<svg xmlns="http://www.w3.org/2000/svg" width="293" height="22" viewBox="0 0 293 22">
    <g fill="none" fill-rule="evenodd" opacity=".7">
        <path fill="#737373" d="M7.242 13.393c-.32 1.004-.988 1.506-2.004 1.506-1.01 0-1.706-.415-2.09-1.244v-4.66c.377-.821 1.067-1.232 2.068-1.232.748 0 1.31.274 1.688.824.378.549.566 1.42.566 2.613 0 .982-.076 1.713-.228 2.193m-1.23-8.165c-1.184 0-2.139.424-2.865 1.273V.507H0v16.709H2.83l.142-1.251c.762.979 1.782 1.468 3.06 1.468 1.445 0 2.57-.527 3.376-1.583.806-1.055 1.209-2.525 1.209-4.41v-.175c0-1.914-.409-3.4-1.225-4.454-.817-1.055-1.944-1.583-3.382-1.583M19.439 14.022c-.429.584-1.024.877-1.786.877-.785 0-1.387-.296-1.808-.888-.421-.592-.632-1.447-.632-2.566 0-1.256.21-2.184.632-2.784.42-.599 1.016-.898 1.786-.898.777 0 1.379.301 1.808.904.428.603.642 1.453.642 2.55 0 1.285-.214 2.22-.642 2.805m2.085-7.336c-1.006-.972-2.303-1.458-3.893-1.458-1.118 0-2.1.25-2.946.75A4.938 4.938 0 0 0 12.741 8.1c-.45.914-.675 1.954-.675 3.122v.141c0 1.871.506 3.35 1.52 4.439 1.012 1.087 2.368 1.631 4.067 1.631 1.699 0 3.052-.545 4.062-1.637 1.008-1.091 1.513-2.54 1.513-4.346l-.021-.805c-.117-1.667-.678-2.987-1.683-3.96M31.548 13.887c-.189.348-.48.626-.871.832-.392.207-.82.31-1.285.31-.48 0-.857-.127-1.133-.38a1.257 1.257 0 0 1-.413-.969l.01-.185c.102-1.087.94-1.631 2.516-1.631h1.176v2.023zm3.158-4.493c0-1.32-.426-2.344-1.28-3.073-.853-.729-2.005-1.093-3.457-1.093-.958 0-1.822.165-2.592.495-.77.33-1.365.785-1.786 1.365a3.156 3.156 0 0 0-.631 1.893h3.147c0-.442.15-.79.452-1.044.3-.254.717-.38 1.247-.38.602 0 1.043.162 1.323.488.28.327.42.762.42 1.306v.674h-1.45c-1.75.008-3.087.345-4.012 1.012-.926.667-1.389 1.625-1.389 2.872 0 1.015.38 1.856 1.138 2.524.759.667 1.716 1 2.87 1 1.22 0 2.21-.424 2.973-1.272.065.42.17.772.316 1.055h3.18v-.185c-.305-.573-.462-1.418-.469-2.535V9.394zM40.184 6.849l-.087-1.403h-2.973v11.77h3.147V9.514c.37-.805 1.15-1.208 2.341-1.208.327 0 .704.03 1.133.088l.043-3.024a3.307 3.307 0 0 0-.98-.142c-1.118 0-1.992.54-2.624 1.62M52.021 13.664c-.4.823-1.085 1.235-2.058 1.235-.734 0-1.292-.295-1.677-.886-.385-.59-.577-1.438-.577-2.546 0-2.47.758-3.704 2.276-3.704.965 0 1.644.412 2.036 1.234v4.667zm0-7.152c-.748-.856-1.695-1.284-2.842-1.284-1.43 0-2.558.544-3.381 1.632-.824 1.088-1.236 2.549-1.236 4.384 0 1.943.419 3.46 1.257 4.552.839 1.092 1.951 1.637 3.338 1.637 1.234 0 2.243-.49 3.028-1.468l.152 1.25h2.842V.508h-3.158v6.005zM70.055 14.022c-.429.584-1.024.877-1.786.877-.784 0-1.387-.296-1.808-.888-.42-.592-.631-1.447-.631-2.566 0-1.256.21-2.184.631-2.784.421-.599 1.017-.898 1.786-.898.777 0 1.38.301 1.808.904.428.603.642 1.453.642 2.55 0 1.285-.214 2.22-.642 2.805m2.085-7.336c-1.005-.972-2.303-1.458-3.893-1.458-1.118 0-2.1.25-2.946.75A4.938 4.938 0 0 0 63.358 8.1c-.45.914-.675 1.954-.675 3.122v.141c0 1.871.506 3.35 1.519 4.439 1.012 1.087 2.368 1.631 4.067 1.631 1.699 0 3.053-.545 4.062-1.637 1.009-1.091 1.514-2.54 1.514-4.346l-.022-.805c-.116-1.667-.677-2.987-1.683-3.96M77.781 1.372c-.759.728-1.138 1.753-1.138 3.073v1H74.89v2.307h1.753v9.464h3.158V7.752h2.342V5.446H79.8V4.49c0-1.118.592-1.678 1.775-1.678.378 0 .697.033.959.098l.032-2.417c-.631-.143-1.165-.216-1.6-.216-1.366 0-2.427.365-3.186 1.094M95.712 13.887c-.19.348-.48.626-.872.832-.392.207-.82.31-1.285.31-.479 0-.857-.127-1.132-.38a1.257 1.257 0 0 1-.414-.969l.01-.185c.102-1.087.941-1.631 2.516-1.631h1.177v2.023zm3.158-4.493c0-1.32-.427-2.344-1.28-3.073-.853-.729-2.006-1.093-3.457-1.093-.959 0-1.823.165-2.592.495-.77.33-1.365.785-1.786 1.365a3.156 3.156 0 0 0-.632 1.893h3.147c0-.442.15-.79.452-1.044.301-.254.717-.38 1.247-.38.603 0 1.044.162 1.323.488.28.327.42.762.42 1.306v.674h-1.449c-1.75.008-3.087.345-4.013 1.012-.925.667-1.388 1.625-1.388 2.872 0 1.015.379 1.856 1.138 2.524.758.667 1.715 1 2.87 1 1.219 0 2.21-.424 2.972-1.272.066.42.17.772.316 1.055h3.18v-.185c-.305-.573-.461-1.418-.468-2.535V9.394zM104.347 6.849l-.087-1.403h-2.973v11.77h3.147V9.514c.37-.805 1.15-1.208 2.342-1.208.326 0 .704.03 1.132.088l.044-3.024a3.307 3.307 0 0 0-.98-.142c-1.118 0-1.993.54-2.625 1.62M112.433 8.563c.374-.533.927-.8 1.66-.8.596 0 1.075.191 1.438.574.363.383.552.88.567 1.492h2.95c-.014-1.392-.466-2.507-1.355-3.344-.89-.838-2.071-1.257-3.545-1.257-1.684 0-3.01.54-3.974 1.62-.966 1.082-1.449 2.528-1.449 4.341v.207c0 1.886.486 3.363 1.46 4.433.972 1.07 2.3 1.604 3.985 1.604.9 0 1.722-.183 2.467-.55a4.31 4.31 0 0 0 1.758-1.544 4.03 4.03 0 0 0 .654-2.192h-2.951c-.015.53-.204.954-.567 1.273-.363.32-.835.479-1.416.479-.755 0-1.317-.265-1.688-.795-.37-.53-.555-1.402-.555-2.615v-.327c0-1.199.187-2.065.561-2.599M127.064 5.228c-1.264 0-2.313.5-3.148 1.501V.507h-3.147v16.709h3.147V8.83c.414-.712 1.082-1.068 2.004-1.068.675 0 1.158.162 1.449.485.29.323.435.823.435 1.5v7.468h3.147V9.677c-.036-2.966-1.332-4.449-3.887-4.449M133.489 17.216h3.158V5.446h-3.158zM133.777 1.236c-.316.304-.473.692-.473 1.164 0 .478.161.87.484 1.175.323.304.75.457 1.28.457s.956-.153 1.28-.457c.322-.305.484-.697.484-1.175 0-.472-.16-.86-.48-1.164-.319-.305-.747-.457-1.284-.457-.545 0-.975.152-1.29.457zM143.257 14.561c-.167-.188-.25-.5-.25-.935V7.752h2.014V5.446h-2.014V2.552h-3.148v2.894h-1.72v2.306h1.72v6.342c.044 2.226 1.17 3.34 3.376 3.34.654 0 1.289-.095 1.906-.283v-2.383a5.008 5.008 0 0 1-.926.076c-.472 0-.791-.094-.958-.283M153.95 10.21h-4.377c.109-.786.358-1.391.746-1.814.388-.422.895-.633 1.52-.633.667 0 1.182.19 1.546.573.363.383.551.923.566 1.623v.251zm-2.1-4.982c-1.076 0-2.032.252-2.87.756-.839.504-1.487 1.222-1.944 2.154-.457.932-.686 1.989-.686 3.17v.305c0 1.763.542 3.174 1.628 4.232 1.085 1.06 2.492 1.588 4.22 1.588.98 0 1.873-.186 2.678-.56.806-.373 1.445-.893 1.917-1.561l-1.546-1.73c-.683.878-1.63 1.317-2.843 1.317-.783 0-1.432-.232-1.943-.696-.512-.464-.819-1.081-.92-1.85h7.503V11.07c0-1.864-.463-3.303-1.389-4.32-.925-1.014-2.194-1.522-3.806-1.522zM162.048 8.563c.373-.533.927-.8 1.66-.8.595 0 1.075.191 1.438.574.363.383.551.88.566 1.492h2.951c-.014-1.392-.466-2.507-1.356-3.344-.889-.838-2.07-1.257-3.544-1.257-1.685 0-3.01.54-3.975 1.62-.966 1.082-1.449 2.528-1.449 4.341v.207c0 1.886.487 3.363 1.46 4.433.973 1.07 2.301 1.604 3.985 1.604.9 0 1.723-.183 2.467-.55a4.31 4.31 0 0 0 1.759-1.544 4.03 4.03 0 0 0 .653-2.192h-2.95c-.016.53-.204.954-.567 1.273-.363.32-.835.479-1.416.479-.755 0-1.318-.265-1.688-.795-.37-.53-.555-1.402-.555-2.615v-.327c0-1.199.186-2.065.56-2.599M174.478 14.561c-.167-.188-.25-.5-.25-.935V7.752h2.015V5.446h-2.015V2.552h-3.147v2.894h-1.72v2.306h1.72v6.342c.043 2.226 1.169 3.34 3.376 3.34.653 0 1.288-.095 1.905-.283v-2.383a5.008 5.008 0 0 1-.925.076c-.472 0-.792-.094-.959-.283M184.944 10.667a13.72 13.72 0 0 0-1.982-.528c-.784-.155-1.342-.34-1.672-.554-.33-.214-.496-.495-.496-.843 0-.37.146-.675.436-.914.29-.24.7-.359 1.23-.359.618 0 1.072.147 1.362.44.29.294.436.666.436 1.116h3.147c0-1.125-.449-2.038-1.345-2.742-.897-.703-2.093-1.055-3.588-1.055-1.402 0-2.536.35-3.403 1.05-.868.7-1.302 1.572-1.302 2.616 0 1.791 1.401 2.98 4.204 3.568.842.174 1.454.372 1.835.593.38.221.571.524.571.908 0 .37-.154.67-.462.898-.31.228-.765.342-1.367.342-.646 0-1.162-.148-1.547-.446-.384-.297-.592-.725-.62-1.283h-2.984c0 .71.218 1.372.653 1.985.436.613 1.036 1.095 1.802 1.447.766.351 1.643.527 2.63.527 1.46 0 2.65-.332 3.572-.995.922-.664 1.383-1.532 1.383-2.605 0-1.501-.831-2.557-2.493-3.166"/>
        <path fill="#000" d="M201.965 10.667a13.72 13.72 0 0 0-1.982-.528c-.785-.155-1.342-.34-1.672-.554-.33-.214-.496-.495-.496-.843 0-.37.146-.675.436-.914.29-.24.7-.359 1.23-.359.618 0 1.072.147 1.362.44.29.294.435.666.435 1.116h3.148c0-1.125-.449-2.038-1.345-2.742-.897-.703-2.093-1.055-3.588-1.055-1.402 0-2.536.35-3.403 1.05-.868.7-1.302 1.572-1.302 2.616 0 1.791 1.401 2.98 4.204 3.568.842.174 1.453.372 1.835.593.38.221.571.524.571.908 0 .37-.154.67-.462.898-.31.228-.765.342-1.367.342-.647 0-1.162-.148-1.547-.446-.384-.297-.592-.725-.62-1.283h-2.984c0 .71.218 1.372.653 1.985.436.613 1.036 1.095 1.802 1.447.766.351 1.643.527 2.63.527 1.46 0 2.65-.332 3.572-.995.922-.664 1.383-1.532 1.383-2.605 0-1.501-.831-2.557-2.493-3.166M208.226.779c-.544 0-.974.152-1.29.457-.316.304-.474.692-.474 1.164 0 .478.162.87.485 1.175.323.304.75.457 1.28.457.529 0 .956-.153 1.279-.457.323-.305.484-.697.484-1.175 0-.472-.16-.86-.479-1.164-.32-.305-.747-.457-1.285-.457M206.647 17.216h3.158V5.446h-3.158zM218.779 5.228c-1.416 0-2.545.526-3.387 1.577l-.098-1.36h-2.962v11.77h3.147V8.897c.443-.755 1.107-1.133 1.993-1.133.675 0 1.158.15 1.448.452.29.302.436.787.436 1.456v7.545h3.147V9.612c-.015-1.458-.327-2.553-.937-3.285-.61-.733-1.539-1.099-2.787-1.099M232.043 13.817c-.414.721-1.1 1.082-2.059 1.082-.747 0-1.336-.304-1.764-.913-.428-.608-.642-1.448-.642-2.519 0-1.23.216-2.156.648-2.776.431-.619 1.025-.928 1.78-.928.937 0 1.615.36 2.037 1.082v4.972zm.174-7.262c-.719-.885-1.725-1.327-3.017-1.327-1.46 0-2.619.551-3.48 1.654-.86 1.102-1.29 2.556-1.29 4.362v.13c0 1.828.438 3.295 1.313 4.4.874 1.106 2.02 1.66 3.436 1.66 1.183 0 2.138-.41 2.864-1.23v.631c0 .82-.233 1.452-.697 1.898-.465.446-1.115.67-1.95.67-1.118 0-2.069-.44-2.853-1.317l-1.394 1.915c.421.543 1.042.988 1.862 1.332.82.345 1.663.517 2.527.517 1.14 0 2.134-.2 2.984-.599.85-.398 1.508-.978 1.976-1.74.468-.761.703-1.657.703-2.687V5.445h-2.853l-.131 1.11zM244 13.887c-.19.348-.48.626-.871.832-.392.207-.821.31-1.285.31-.48 0-.857-.127-1.133-.38a1.257 1.257 0 0 1-.414-.969l.011-.185c.102-1.087.94-1.631 2.516-1.631H244v2.023zm3.158-4.493c0-1.32-.427-2.344-1.28-3.073-.853-.729-2.005-1.093-3.457-1.093-.959 0-1.823.165-2.592.495-.77.33-1.365.785-1.786 1.365a3.156 3.156 0 0 0-.632 1.893h3.147c0-.442.151-.79.452-1.044.301-.254.717-.38 1.247-.38.603 0 1.044.162 1.323.488.28.327.42.762.42 1.306v.674h-1.449c-1.75.008-3.087.345-4.013 1.012-.925.667-1.388 1.625-1.388 2.872 0 1.015.38 1.856 1.138 2.524.758.667 1.715 1 2.87 1 1.22 0 2.21-.424 2.972-1.272.066.42.17.772.316 1.055h3.18v-.185c-.305-.573-.461-1.418-.468-2.535V9.394zM254.78 14.899c-.987 0-1.673-.39-2.058-1.168V8.897c.37-.756 1.05-1.134 2.037-1.134.74 0 1.305.298 1.693.894.389.597.583 1.444.583 2.543 0 2.466-.751 3.699-2.254 3.699m.806-9.671c-1.228 0-2.222.457-2.984 1.37l-.11-1.152h-2.918V21.74h3.147v-5.548c.734.827 1.695 1.24 2.886 1.24 1.401 0 2.514-.545 3.338-1.637.824-1.091 1.236-2.543 1.236-4.357v-.163c0-1.885-.403-3.365-1.209-4.438-.806-1.073-1.934-1.61-3.386-1.61M269.014 14.022c-.429.584-1.024.877-1.786.877-.784 0-1.387-.296-1.808-.888-.42-.592-.631-1.447-.631-2.566 0-1.256.21-2.184.631-2.784.421-.599 1.016-.898 1.786-.898.777 0 1.38.301 1.808.904.428.603.642 1.453.642 2.55 0 1.285-.214 2.22-.642 2.805m2.085-7.336c-1.005-.972-2.303-1.458-3.893-1.458-1.118 0-2.1.25-2.946.75a4.938 4.938 0 0 0-1.943 2.122c-.45.914-.676 1.954-.676 3.122v.141c0 1.871.507 3.35 1.52 4.439 1.012 1.087 2.368 1.631 4.067 1.631 1.699 0 3.053-.545 4.062-1.637 1.009-1.091 1.514-2.54 1.514-4.346l-.022-.805c-.116-1.667-.677-2.987-1.683-3.96M277.802 6.849l-.087-1.403h-2.973v11.77h3.147V9.514c.37-.805 1.15-1.208 2.341-1.208.327 0 .704.03 1.133.088l.044-3.024a3.307 3.307 0 0 0-.98-.142c-1.119 0-1.993.54-2.625 1.62M289.846 10.21h-4.377c.108-.786.357-1.391.746-1.814.388-.422.894-.633 1.519-.633.667 0 1.183.19 1.546.573.363.383.552.923.566 1.623v.251zm3.093.86c0-1.864-.463-3.303-1.389-4.32-.925-1.014-2.194-1.522-3.805-1.522-1.075 0-2.031.252-2.87.756s-1.486 1.222-1.944 2.154c-.457.932-.686 1.989-.686 3.17v.305c0 1.763.543 3.174 1.628 4.232 1.085 1.06 2.492 1.588 4.22 1.588.98 0 1.873-.186 2.679-.56.806-.373 1.444-.893 1.916-1.561l-1.546-1.73c-.682.878-1.63 1.317-2.842 1.317-.784 0-1.432-.232-1.944-.696-.512-.464-.819-1.081-.92-1.85h7.503V11.07z"/>
    </g>
</svg>
