<svg xmlns="http://www.w3.org/2000/svg" width="194" height="59" viewBox="0 0 194 59">
    <g fill="none" fill-rule="evenodd" opacity=".7">
        <path fill="#323232" d="M25.387 41.718c-3.094 0-5.917-2.287-5.917-6.532 0-4.273 2.823-6.534 5.917-6.534 3.098 0 5.942 2.26 5.942 6.534 0 4.245-2.844 6.532-5.942 6.532zm0-15.49c-4.334 0-8.67 3.578-8.67 8.958 0 5.376 4.336 8.958 8.67 8.958 4.336 0 8.695-3.582 8.695-8.958 0-5.38-4.36-8.958-8.695-8.958zm23.146.111l-5.78 13.349-5.554-13.349h-2.935l7.111 16.903s.324.787 1.378.787c1.012 0 1.352-.787 1.352-.787l7.366-16.903h-2.938zM9.47 28.463c1.304 0 2.633.257 3.745.761l.893-1.36c-.988-.667-2.849-1.66-5.242-1.66-5.338 0-8.865 4.319-8.865 8.958 0 5.079 3.696 8.982 9.206 8.982 2.006 0 4.901-.46 4.901-2.678v-6.304H11.5v5.494c0 1.062-1.303 1.156-2.1 1.156-3.241 0-6.5-2.103-6.5-6.65 0-4.506 3.285-6.699 6.57-6.699z"/>
        <path fill="#9E9E9E" d="M109.539 26.34v7.621h-8.486V26.34h-2.752v17.69h2.752v-7.644h8.486v7.644h2.754V26.34h-2.754zm-18.481 2.124c1.24 0 2.503.256 3.556.765l.85-1.363c-.94-.67-2.709-1.664-4.98-1.664-5.072 0-8.417 4.318-8.417 8.959 0 5.08 3.716 8.984 8.417 8.984 1.975 0 3.763-.791 4.98-1.69l-.874-1.363c-1.008.53-2.293.766-3.532.766-3.096 0-6.238-2.146-6.238-6.697 0-4.505 3.12-6.697 6.238-6.697zm-22.258.834v11.751c0 2.726 2.66 2.98 4.22 2.98h6.834V41.69h-6.308c-1.328 0-1.996-.156-1.996-1.68v-3.674h7.802v-2.33H71.55V30.36c0-1.523.668-1.69 1.996-1.69h6.308v-2.33H73.02c-1.56 0-4.22.233-4.22 2.958zm-15.38-.628h5.093v15.36h2.752V28.67h5.091v-2.33H53.42v2.33z"/>
        <path fill="#323232" d="M93.37 57.496c-1.608 0-2.18-1.41-2.18-2.621 0-1.298.668-2.61 2.163-2.61h.032c1.493 0 2.163 1.312 2.163 2.61 0 1.212-.571 2.621-2.178 2.621zm0-6.22c-1.998 0-3.339 1.444-3.339 3.599 0 2.194 1.31 3.611 3.339 3.611 2.028 0 3.34-1.417 3.34-3.611 0-2.155-1.344-3.6-3.34-3.6zm-8.655 3.364h-.901V52.38h.764c.58 0 1.44.297 1.44 1.115 0 .843-.706 1.144-1.303 1.144zm-.155-3.25h-1.847v6.978h1.1V55.63h.892c1.549 0 2.47-.795 2.47-2.125 0-1.382-.905-2.115-2.615-2.115zm-9.633 4.321l1.261-3.166 1.264 3.166h-2.525zm1.85-4.32h-1.108l-2.958 6.977h1.16l.693-1.726h3.247l.693 1.726h1.2l-2.912-6.94-.016-.038zm25.187 2.947h-.766V52.38h.873c.827 0 1.3.349 1.3.95 0 .63-.527 1.007-1.407 1.007zm1.273.56c.781-.2 1.297-.82 1.297-1.589 0-1.689-1.37-1.919-2.707-1.919h-1.73v6.978h1.1v-3.04h.522c.516 0 .8 0 1.086.626l1.056 2.414h1.253l-1.329-2.823c-.182-.354-.321-.529-.548-.648zm8.955-2.517v-.99h-3.936v6.977h3.936v-.994h-2.837v-2.127h2.585v-.988h-2.585v-1.878h2.837zm-44.924 3.043H68.7v1.966c-.026.007-.045.007-.065.012-.202.048-.406.094-.963.094-1.449 0-2.5-1.099-2.5-2.621 0-1.534 1.043-2.61 2.549-2.61.804 0 1.339.135 1.835.459l.09.062.09-1.15-.045-.016c-.561-.192-1-.344-2.02-.344-2.156 0-3.661 1.469-3.661 3.572 0 2.212 1.434 3.638 3.652 3.638.808 0 1.494-.1 2.096-.308l.043-.015v-3.67h-2.533v.931zM50.28 58.368h1.101V51.39h-1.1v6.978zm9.336-1.61l-2.902-5.337-.017-.03H55.27v6.977h1.1v-5.486l2.982 5.454.019.032h1.347V51.39h-1.103v5.368zm-14.518-2.564c-.607-.296-1.134-.551-1.134-1.078 0-.77.79-.85 1.127-.85.493 0 .763.08 1.253.28l.075.028.155-1.03-.049-.02a4.51 4.51 0 0 0-1.473-.248c-1.364 0-2.249.756-2.249 1.928 0 1.193.893 1.612 1.679 1.987.672.315 1.248.585 1.248 1.252 0 .772-.762 1.053-1.273 1.053-.553 0-1.205-.255-1.39-.33l-.077-.035-.11 1.05.045.012c.425.143.92.293 1.415.293 1.62 0 2.547-.765 2.547-2.102 0-1.32-.99-1.803-1.789-2.19z"/>
        <g fill="#000">
            <path d="M167.917 9.682a.392.392 0 0 1-.388-.392c0-.21.176-.386.394-.382.21 0 .38.175.38.388a.39.39 0 0 1-.386.386zm-1.93-.34a.39.39 0 0 1 .368-.403.388.388 0 0 1 .035.775h-.015a.392.392 0 0 1-.389-.371zm3.458.387a.387.387 0 0 1-.366-.408.387.387 0 1 1 .386.407h-.02zm-5-.254a.387.387 0 0 1 .77-.077.385.385 0 0 1-.345.423c-.011.006-.026.006-.037.006a.393.393 0 0 1-.387-.352zm6.52.372a.385.385 0 0 1-.344-.422.378.378 0 0 1 .422-.346c.21.02.365.211.344.422a.384.384 0 0 1-.383.346h-.04zm-8.05-.15a.391.391 0 0 1 .322-.443.4.4 0 0 1 .447.324.399.399 0 0 1-.326.445c-.022 0-.041.006-.055.006a.392.392 0 0 1-.388-.332zm9.567.34a.388.388 0 1 1 .112-.767c.212.03.356.231.327.444a.387.387 0 0 1-.384.33c-.02 0-.036-.006-.055-.006zm1.508.255a.384.384 0 0 1-.307-.45c.04-.21.242-.35.454-.31.211.042.345.243.304.455a.388.388 0 0 1-.378.316c-.024 0-.05-.006-.073-.01zm-12.588-.28a.39.39 0 0 1 .294-.464.388.388 0 1 1 .167.759c-.027.005-.052.005-.083.005a.388.388 0 0 1-.378-.3zm14.086.605a.39.39 0 0 1-.289-.47.382.382 0 0 1 .465-.284.387.387 0 1 1-.176.754zm-15.575-.202a.38.38 0 0 1 .264-.475v-.004a.39.39 0 1 1 .108.763.383.383 0 0 1-.372-.284zm17.054.583a.386.386 0 0 1 .207-.742c.205.056.33.269.266.473a.381.381 0 0 1-.473.269zm-18.518-.078a.385.385 0 1 1 .726-.263.387.387 0 0 1-.232.497.389.389 0 0 1-.493-.234zm19.983.523a.38.38 0 0 1-.248-.484.379.379 0 0 1 .485-.25.383.383 0 0 1 .249.485.382.382 0 0 1-.486.249zm-21.407.07a.382.382 0 0 1 .196-.509.388.388 0 0 1 .309.711.38.38 0 0 1-.505-.202zm22.847.44a.381.381 0 0 1-.22-.5c.069-.2.297-.299.493-.228.2.078.304.3.225.502a.385.385 0 0 1-.498.226zm-24.229.253a.384.384 0 0 1 .16-.522.392.392 0 0 1 .526.166.388.388 0 0 1-.347.563.375.375 0 0 1-.339-.207zm25.648.32a.386.386 0 1 1 .308-.707c.196.082.283.31.196.505a.374.374 0 0 1-.351.234.392.392 0 0 1-.153-.032zm-26.986.464a.392.392 0 0 1 .13-.53.379.379 0 0 1 .531.128.382.382 0 0 1-.327.587.392.392 0 0 1-.334-.185zm28.357.192a.387.387 0 0 1-.165-.523.377.377 0 0 1 .52-.163c.191.099.263.33.166.52a.388.388 0 0 1-.347.206.355.355 0 0 1-.174-.04zm1.289.764a.384.384 0 0 1-.103-.537.387.387 0 0 1 .64.439.393.393 0 0 1-.537.098zm-30.92-.084a.39.39 0 0 1 .096-.542.388.388 0 0 1 .443.635.388.388 0 0 1-.222.069.387.387 0 0 1-.316-.162zm-1.214.955a.39.39 0 0 1 .057-.547.387.387 0 1 1 .483.604.38.38 0 0 1-.243.083.38.38 0 0 1-.297-.14zm33.316.051a.385.385 0 1 1 .504-.582.386.386 0 1 1-.504.582zm-34.471.975a.385.385 0 0 1 .025-.545.382.382 0 0 1 .546.026.384.384 0 0 1-.282.643.386.386 0 0 1-.29-.124zm35.556.073a.385.385 0 0 1 .017-.546.382.382 0 0 1 .546.015.39.39 0 0 1-.015.548.376.376 0 0 1-.267.103.383.383 0 0 1-.28-.12zm-36.64 1.028a.385.385 0 0 1-.01-.547.385.385 0 0 1 .546-.012c.15.151.155.393.01.549a.395.395 0 0 1-.278.118.379.379 0 0 1-.269-.108zm37.643.114a.381.381 0 0 1 .056-.543.38.38 0 0 1 .54.052.389.389 0 0 1-.298.635.387.387 0 0 1-.298-.144zm-38.664 1.046a.388.388 0 0 1-.043-.542.384.384 0 0 1 .545-.045.388.388 0 0 1 .045.547.397.397 0 0 1-.294.133.366.366 0 0 1-.253-.093zm39.581.165a.386.386 0 0 1 .094-.542.393.393 0 0 1 .54.094.391.391 0 0 1-.09.542.385.385 0 0 1-.543-.094zm-40.53 1.053a.382.382 0 0 1-.077-.537.384.384 0 0 1 .542-.078.388.388 0 0 1-.232.698.352.352 0 0 1-.233-.083zm41.375.217a.382.382 0 0 1 .124-.532.383.383 0 0 1 .532.125.385.385 0 0 1-.33.588.376.376 0 0 1-.326-.18zm-42.273 1.068a.389.389 0 0 1-.102-.536.385.385 0 0 1 .547-.119c.174.119.22.361.1.537-.003.005-.003.01-.007.016a.4.4 0 0 1-.321.17.368.368 0 0 1-.217-.068zm43.043.249a.39.39 0 0 1 .148-.528.389.389 0 0 1 .527.156.386.386 0 0 1-.335.572.385.385 0 0 1-.34-.2zm-43.935 1.015a.397.397 0 0 1-.094-.542.395.395 0 0 1 .545-.086c.173.123.215.36.09.536a.385.385 0 0 1-.54.092zm44.635.342a.389.389 0 0 1 .177-.517.393.393 0 0 1 .52.18.39.39 0 0 1-.35.558.384.384 0 0 1-.347-.221zm-45.542.913a.383.383 0 0 1-.083-.542.377.377 0 0 1 .537-.082.387.387 0 0 1 .087.54.392.392 0 0 1-.541.084zm46.173.48a.394.394 0 0 1 .205-.511.388.388 0 1 1 .15.748.389.389 0 0 1-.355-.238zm-47.097.758a.385.385 0 0 1-.077-.541v.004a.387.387 0 0 1 .542-.081.39.39 0 0 1 .076.542.385.385 0 0 1-.54.076zm47.658.661a.385.385 0 0 1 .227-.495.394.394 0 0 1 .5.23.389.389 0 0 1-.232.497.418.418 0 0 1-.135.02.38.38 0 0 1-.36-.252zm-48.59.578a.386.386 0 0 1-.077-.542.385.385 0 1 1 .616.464.376.376 0 0 1-.308.157.376.376 0 0 1-.231-.079zm49.074.872a.388.388 0 1 1 .744-.227c.06.2-.051.418-.259.482a.336.336 0 0 1-.112.02.395.395 0 0 1-.373-.275zm-50.013.356a.387.387 0 1 1 0 0zm-.945 1.229a.388.388 0 0 1-.072-.542.39.39 0 0 1 .544-.072.389.389 0 0 1 .07.542.367.367 0 0 1-.304.153.389.389 0 0 1-.238-.081zm51.372-.115a.386.386 0 1 1 .747-.19v.006a.383.383 0 0 1-.28.464c-.029.01-.066.01-.097.01a.377.377 0 0 1-.37-.29zm-52.31 1.342a.386.386 0 1 1 .542-.072.385.385 0 0 1-.31.156.351.351 0 0 1-.233-.084zm52.635.145a.381.381 0 0 1 .308-.448.38.38 0 0 1 .451.308.383.383 0 0 1-.312.45.269.269 0 0 1-.066.01.392.392 0 0 1-.381-.32zm-53.569 1.095a.388.388 0 0 1 .465-.62.389.389 0 1 1-.465.62zm53.8.412a.383.383 0 0 1 .335-.432.388.388 0 0 1 .094.768c-.017.005-.033.005-.047.005a.384.384 0 0 1-.381-.34zm-54.722.831a.393.393 0 0 1-.083-.542.381.381 0 0 1 .54-.082.39.39 0 0 1 .085.54.392.392 0 0 1-.542.084zm54.846.68a.377.377 0 0 1 .366-.4.387.387 0 0 1 .407.366.386.386 0 0 1-.369.402l-.012.005a.388.388 0 0 1-.392-.373zm-55.748.574a.387.387 0 0 1-.093-.542.394.394 0 0 1 .542-.087c.174.124.21.366.086.537a.375.375 0 0 1-.315.164.391.391 0 0 1-.22-.072zm-.877 1.276a.386.386 0 0 1 .432-.641c.176.12.227.36.103.536a.377.377 0 0 1-.32.17.376.376 0 0 1-.215-.065zm56.987.066a.387.387 0 1 1 .042-.773c.21.009.374.196.366.407a.391.391 0 0 1-.388.366h-.02zm-57.813 1.244a.391.391 0 0 1-.13-.538.39.39 0 0 1 .533-.124.387.387 0 0 1-.403.662zm57.612.289a.38.38 0 0 1-.32-.443.383.383 0 0 1 .443-.32.382.382 0 0 1 .319.442.383.383 0 0 1-.381.326c-.02 0-.04 0-.061-.005zm-58.366 1.062a.388.388 0 1 1 .363-.685.388.388 0 0 1-.363.685zm57.963.434a.39.39 0 0 1-.258-.486.388.388 0 0 1 .741.229.39.39 0 0 1-.483.257zm-58.57.985a.383.383 0 0 1-.223-.5.387.387 0 0 1 .722.278.386.386 0 0 1-.499.222zm57.92.42a.394.394 0 0 1-.165-.527h.005a.388.388 0 0 1 .521-.165.397.397 0 0 1 .16.526h.006a.399.399 0 0 1-.526.165zm-58.185 1.103a.386.386 0 0 1-.354-.411.386.386 0 0 1 .769.052.384.384 0 0 1-.388.359h-.027zm57.267.134a.39.39 0 0 1-.051-.545.387.387 0 1 1 .593.498.385.385 0 0 1-.294.141.38.38 0 0 1-.248-.094zm-1.15 1.037a.393.393 0 0 1 .051-.547.38.38 0 0 1 .54.051.385.385 0 0 1-.042.542.397.397 0 0 1-.55-.046zm-16.505-.144a.387.387 0 1 1 .4.378h-.012a.39.39 0 0 1-.388-.378zm-39.45.289a.384.384 0 0 1 .031-.547.384.384 0 1 1 .515.572.373.373 0 0 1-.257.099.39.39 0 0 1-.289-.124zm41.345.149a.383.383 0 0 1-.346-.423.387.387 0 0 1 .768.077.384.384 0 0 1-.381.346h-.041zm-3.425-.236a.388.388 0 0 1 .763-.135.387.387 0 0 1-.314.449c-.021.005-.046.005-.067.005a.393.393 0 0 1-.382-.319zm4.926.448a.388.388 0 0 1-.314-.448.39.39 0 0 1 .446-.314.386.386 0 1 1-.065.767c-.02 0-.04-.005-.067-.005zm-6.4.011a.387.387 0 1 1 .495.232.354.354 0 0 1-.13.026.385.385 0 0 1-.365-.258zm7.898.289a.386.386 0 0 1 .168-.754h.003a.382.382 0 0 1 .29.459.38.38 0 0 1-.377.305c-.025 0-.056 0-.084-.01zm10.296.005a.385.385 0 0 1 .154-.526.385.385 0 0 1 .526.154.39.39 0 0 1-.155.527.391.391 0 0 1-.525-.155zm-8.794.34v.006a.396.396 0 0 1-.289-.47.39.39 0 0 1 .464-.288c.212.05.342.256.29.463-.041.181-.2.3-.373.3-.029 0-.06 0-.092-.012zm-44.635.059a.4.4 0 0 1-.066-.55.39.39 0 0 1 .541-.066c.17.134.2.377.073.542a.39.39 0 0 1-.31.15.409.409 0 0 1-.238-.076zm33.868.025a.39.39 0 0 1 .14-.533.386.386 0 0 1 .525.145.384.384 0 0 1-.33.577.375.375 0 0 1-.335-.19zm12.284.262a.394.394 0 0 1-.298-.458.387.387 0 1 1 .758.158.383.383 0 0 1-.378.307c-.027 0-.052 0-.082-.007zm5.828-.16a.389.389 0 0 1 .258-.485c.2-.06.417.057.478.264a.383.383 0 0 1-.37.495.38.38 0 0 1-.366-.274zm-4.286.443a.388.388 0 1 1 .444-.324.393.393 0 0 1-.382.33c-.022 0-.043-.006-.062-.006zm2.753-.22a.387.387 0 0 1 .77-.077c.02.216-.13.4-.347.426h-.035a.39.39 0 0 1-.388-.35zm-1.174.382a.379.379 0 0 1-.367-.404.385.385 0 0 1 .403-.37c.211.015.374.196.366.407a.388.388 0 0 1-.386.367h-.016zm-47.974.169a.382.382 0 0 1-.117-.53.385.385 0 0 1 .653.406.391.391 0 0 1-.328.186.383.383 0 0 1-.208-.062zm31.223-.118a.378.378 0 0 1 .16-.522.38.38 0 0 1 .521.161.39.39 0 0 1-.161.526.437.437 0 0 1-.18.04.372.372 0 0 1-.34-.205zm-1.41.64a.387.387 0 0 1 .709-.31.39.39 0 0 1-.358.541.382.382 0 0 1-.35-.23zm-28.435.256a.388.388 0 1 1 .351-.691.388.388 0 0 1-.351.691zm26.986.29a.393.393 0 0 1 .233-.494.386.386 0 0 1 .496.232.386.386 0 0 1-.232.496.427.427 0 0 1-.13.025.39.39 0 0 1-.367-.258zm-25.553.372a.384.384 0 0 1-.21-.506.384.384 0 0 1 .504-.212c.197.084.29.311.21.507a.38.38 0 0 1-.358.238.466.466 0 0 1-.146-.027zm24.084.103a.382.382 0 0 1 .259-.479h-.005a.384.384 0 0 1 .485.252.393.393 0 0 1-.253.485.393.393 0 0 1-.486-.259zm-22.614.45v-.005a.387.387 0 1 1 .125.02.572.572 0 0 1-.125-.015zm21.123-.041a.388.388 0 0 1 .275-.475.393.393 0 0 1 .473.277.393.393 0 0 1-.277.476.39.39 0 0 1-.471-.279zm-19.62.495a.392.392 0 0 1-.277-.476.389.389 0 0 1 .75.202.388.388 0 0 1-.372.285c-.035 0-.067-.006-.102-.01zm18.11-.156a.39.39 0 0 1 .299-.46.387.387 0 1 1 .157.759h.009c-.032.006-.058.006-.082.006a.39.39 0 0 1-.383-.305zm-16.585.522a.386.386 0 0 1-.3-.459.383.383 0 0 1 .46-.3.396.396 0 0 1 .299.459.39.39 0 0 1-.382.31c-.025 0-.052-.005-.077-.01zm15.069-.232a.38.38 0 0 1 .31-.45.38.38 0 0 1 .448.31.384.384 0 0 1-.31.45c-.025.006-.045.006-.07.006a.384.384 0 0 1-.378-.316zm-13.532.52a.384.384 0 0 1-.32-.443.382.382 0 0 1 .443-.32c.213.03.351.232.319.444a.386.386 0 0 1-.382.325c-.017 0-.04 0-.06-.005zm12-.293a.39.39 0 0 1 .33-.44.394.394 0 0 1 .44.332.393.393 0 0 1-.33.438c-.022 0-.038.006-.059.006a.385.385 0 0 1-.38-.336zm-10.453.51a.387.387 0 1 1 .088-.767h.005a.388.388 0 0 1 .336.426.388.388 0 0 1-.385.342h-.044zm8.916-.335a.39.39 0 0 1 .347-.424.387.387 0 1 1 .082.77c-.016 0-.026.006-.041.006a.396.396 0 0 1-.388-.352zm-7.358.484a.392.392 0 0 1-.363-.418.396.396 0 0 1 .419-.355.39.39 0 0 1 .356.42.389.389 0 0 1-.387.353h-.025zm5.822-.36a.385.385 0 1 1 .769-.052.385.385 0 0 1-.36.412h-.022a.383.383 0 0 1-.387-.36zm-1.549.072a.392.392 0 0 1 .379-.402.388.388 0 0 1 .024.773h-.014a.392.392 0 0 1-.389-.371zm-2.716.371a.383.383 0 0 1-.372-.398.38.38 0 0 1 .396-.37.387.387 0 0 1 .378.397.386.386 0 0 1-.388.371h-.014zm1.556.033a.386.386 0 0 1-.382-.388.387.387 0 1 1 .388.387h-.006z"/>
            <path d="M163.85 8.183c0-.21.171-.383.382-.388.219 0 .395.167.395.376a.381.381 0 0 1-.383.389h-.005a.388.388 0 0 1-.39-.377zm1.925.398a.386.386 0 0 1-.375-.398.386.386 0 0 1 .407-.363.376.376 0 0 1 .37.399.382.382 0 0 1-.386.366c-.008 0-.012 0-.016-.004zm-3.477-.316a.388.388 0 0 1 .362-.41c.214-.015.4.148.414.359a.386.386 0 0 1-.36.408h-.029a.386.386 0 0 1-.387-.357zm5.011.414a.388.388 0 0 1-.357-.414.39.39 0 0 1 .425-.348c.213.02.368.205.353.414a.389.389 0 0 1-.388.351c-.013 0-.02-.003-.033-.003zm-6.552-.242a.375.375 0 0 1 .332-.428.38.38 0 0 1 .435.331c.032.21-.12.4-.33.43h-.053a.38.38 0 0 1-.384-.333zm8.079.41a.389.389 0 0 1-.338-.43.384.384 0 0 1 .436-.331c.213.025.362.22.338.427a.387.387 0 0 1-.386.334h-.05zm-9.61-.14a.38.38 0 0 1 .305-.447.383.383 0 1 1 .152.752c-.029.003-.052.003-.072.003a.383.383 0 0 1-.386-.307zm11.129.363a.383.383 0 1 1 .131-.755c.213.037.353.23.32.44a.39.39 0 0 1-.382.32c-.02 0-.047-.005-.07-.005zm1.515.278a.384.384 0 0 1-.305-.45.394.394 0 0 1 .461-.302.382.382 0 0 1 .303.454.388.388 0 0 1-.459.298zm-14.149-.266a.38.38 0 0 1 .274-.471.39.39 0 0 1 .474.271.38.38 0 0 1-.271.471.788.788 0 0 1-.103.008.385.385 0 0 1-.374-.28zm15.655.592a.387.387 0 0 1-.291-.459.399.399 0 0 1 .472-.286h-.005c.212.05.343.255.29.464a.387.387 0 0 1-.377.291c-.032 0-.057 0-.089-.01zm-17.133-.118a.382.382 0 0 1 .243-.486.388.388 0 0 1 .493.238.377.377 0 0 1-.24.485.41.41 0 0 1-.128.025.393.393 0 0 1-.368-.262zm18.632.486a.378.378 0 0 1-.28-.465.396.396 0 0 1 .478-.275c.207.056.33.265.275.469a.389.389 0 0 1-.376.287.312.312 0 0 1-.097-.016zm-20.065.102a.381.381 0 0 1 .203-.505.393.393 0 0 1 .514.2.382.382 0 0 1-.205.5.32.32 0 0 1-.153.036.393.393 0 0 1-.36-.23zm21.554.303a.385.385 0 0 1-.268-.477.387.387 0 0 1 .481-.26.38.38 0 0 1 .27.47.397.397 0 0 1-.483.267zm1.49.423a.38.38 0 0 1-.264-.475.387.387 0 0 1 .482-.26.382.382 0 1 1-.108.751.386.386 0 0 1-.11-.016zm-24.43-.034a.391.391 0 0 1 .161-.524.396.396 0 0 1 .529.164.381.381 0 0 1-.165.516.392.392 0 0 1-.525-.156zm25.926.463a.379.379 0 0 1-.267-.474.379.379 0 0 1 .478-.261.38.38 0 0 1 .27.469.4.4 0 0 1-.374.282.432.432 0 0 1-.107-.016zm1.508.394a.381.381 0 0 1-.274-.47.38.38 0 0 1 .47-.27c.21.05.333.26.283.465a.396.396 0 0 1-.38.285c-.03 0-.067 0-.099-.01zm-28.762-.066a.389.389 0 0 1 .119-.532.398.398 0 0 1 .54.123.374.374 0 0 1-.121.525.392.392 0 0 1-.205.063.404.404 0 0 1-.333-.179zm30.178.542a.382.382 0 0 1-.206-.507.39.39 0 0 1 .508-.204.385.385 0 0 1 .207.505.393.393 0 0 1-.51.206zm-31.445.346a.384.384 0 0 1 .083-.536.394.394 0 0 1 .545.075c.131.169.093.41-.082.537a.378.378 0 0 1-.229.078.415.415 0 0 1-.317-.154zm32.785.31a.379.379 0 0 1-.141-.519.391.391 0 0 1 .534-.137c.188.101.25.336.141.52a.384.384 0 0 1-.337.189.381.381 0 0 1-.197-.052zm-33.978.667a.385.385 0 0 1 .042-.543.393.393 0 0 1 .55.041.38.38 0 0 1-.04.538.382.382 0 0 1-.255.096.405.405 0 0 1-.297-.132zm35.233.158a.378.378 0 0 1-.077-.536.39.39 0 0 1 .543-.077c.173.127.21.368.08.536a.393.393 0 0 1-.312.152.388.388 0 0 1-.234-.075zm-36.355.894a.386.386 0 0 1 0-.542.4.4 0 0 1 .557.005.38.38 0 0 1-.28.649.39.39 0 0 1-.277-.112zm37.51.06a.383.383 0 0 1-.017-.54.397.397 0 0 1 .55-.016c.16.142.164.382.02.542a.388.388 0 0 1-.552.015zm-38.561 1.063a.38.38 0 0 1-.032-.54c.146-.16.39-.17.549-.031a.376.376 0 0 1 .032.541.392.392 0 0 1-.55.03zm39.622.01a.379.379 0 0 1 .03-.541.391.391 0 0 1 .552.03.378.378 0 0 1-.032.543.413.413 0 0 1-.26.097.402.402 0 0 1-.29-.128zm-40.597 1.18a.383.383 0 0 1-.068-.54.396.396 0 0 1 .55-.062.38.38 0 0 1 .063.537.398.398 0 0 1-.309.148.415.415 0 0 1-.236-.083zm41.556-.02a.379.379 0 0 1 .078-.535.394.394 0 0 1 .546.076.38.38 0 0 1-.078.536.396.396 0 0 1-.546-.077zm-42.475 1.252a.381.381 0 0 1-.088-.536.393.393 0 0 1 .544-.088.38.38 0 0 1 .083.537.38.38 0 0 1-.31.158.398.398 0 0 1-.23-.07zm43.332-.016a.383.383 0 0 1 .126-.53.39.39 0 0 1 .534.123.377.377 0 0 1-.121.525.394.394 0 0 1-.206.062.405.405 0 0 1-.333-.18zm-44.235 1.257a.375.375 0 0 1-.093-.531.388.388 0 0 1 .539-.091.376.376 0 0 1 .093.531.375.375 0 0 1-.316.162.358.358 0 0 1-.223-.07zm44.999.042a.377.377 0 0 1 .16-.516.387.387 0 0 1 .523.158.372.372 0 0 1-.16.517.391.391 0 0 1-.183.045.375.375 0 0 1-.34-.204zm-45.886 1.215a.374.374 0 0 1-.099-.532.388.388 0 0 1 .54-.097.376.376 0 0 1 .099.532.387.387 0 0 1-.318.168.397.397 0 0 1-.222-.071zm46.545.14a.382.382 0 0 1 .202-.507.393.393 0 0 1 .513.197.383.383 0 0 1-.202.504.393.393 0 0 1-.514-.195zm-47.412 1.133a.38.38 0 0 1-.109-.53.39.39 0 0 1 .54-.109c.18.117.227.353.108.53a.374.374 0 0 1-.323.17.414.414 0 0 1-.216-.061zm47.976.26a.384.384 0 0 1 .234-.491c.201-.072.426.037.499.236a.383.383 0 0 1-.368.512.39.39 0 0 1-.365-.256zm-48.818 1.022a.374.374 0 0 1-.119-.526.388.388 0 0 1 .54-.117c.177.112.23.346.113.527a.374.374 0 0 1-.325.177.404.404 0 0 1-.209-.06zm49.28.408a.374.374 0 0 1 .271-.469.387.387 0 0 1 .477.266.378.378 0 0 1-.27.469.387.387 0 0 1-.477-.265zm-50.098.894a.38.38 0 0 1-.13-.53.392.392 0 0 1 .534-.123c.182.109.24.348.13.527a.394.394 0 0 1-.332.184.385.385 0 0 1-.202-.058zm50.451.57h.005a.382.382 0 0 1 .3-.452.384.384 0 0 1 .458.297h.006a.389.389 0 0 1-.306.455c-.027.004-.052.004-.079.004a.392.392 0 0 1-.384-.304zm-51.245.744a.375.375 0 0 1-.14-.52.395.395 0 0 1 .535-.14.38.38 0 0 1 .138.522.386.386 0 0 1-.336.19.38.38 0 0 1-.197-.052zm51.5.736h-.007a.388.388 0 0 1 .34-.43.388.388 0 0 1 .433.334.391.391 0 0 1-.337.43h-.046a.38.38 0 0 1-.383-.334zm-52.257.597a.373.373 0 0 1-.152-.516.385.385 0 0 1 .525-.152c.191.102.259.337.154.52a.386.386 0 0 1-.34.2.343.343 0 0 1-.187-.052zm52.386.895a.385.385 0 0 1 .374-.398.38.38 0 0 1 .405.362.388.388 0 0 1-.369.403h-.02a.386.386 0 0 1-.39-.367zm-53.103.465a.382.382 0 0 1-.172-.517.398.398 0 0 1 .525-.169.38.38 0 0 1 .17.517.39.39 0 0 1-.346.21.353.353 0 0 1-.177-.04zm-.67 1.379a.374.374 0 0 1-.186-.505.388.388 0 0 1 .706.323.4.4 0 0 1-.355.219.385.385 0 0 1-.165-.037zm54.162.052a.383.383 0 0 1-.373-.399.38.38 0 0 1 .399-.367c.22.003.384.183.38.392a.39.39 0 0 1-.39.374h-.016zm-54.769 1.359a.384.384 0 0 1-.212-.501.395.395 0 0 1 .508-.21.385.385 0 0 1 .213.502.392.392 0 0 1-.365.235.375.375 0 0 1-.144-.026zm54.62.162a.39.39 0 0 1-.344-.427.388.388 0 0 1 .436-.332.381.381 0 0 1 .338.422.384.384 0 0 1-.384.337h-.046zm-55.149 1.274a.38.38 0 0 1-.243-.485.398.398 0 0 1 .497-.24.383.383 0 1 1-.254.725zm54.854.228a.39.39 0 0 1-.302-.459.392.392 0 0 1 .467-.29c.206.044.342.25.296.455a.392.392 0 0 1-.38.3c-.032 0-.056 0-.081-.006zm-55.281 1.241a.373.373 0 0 1-.272-.465.386.386 0 0 1 .47-.273c.209.05.333.265.281.468a.398.398 0 0 1-.38.286.315.315 0 0 1-.099-.016zm54.829.222a.383.383 0 0 1-.25-.486.39.39 0 0 1 .493-.24c.209.066.316.28.248.48a.393.393 0 0 1-.491.246zm-55.101 1.287a.39.39 0 0 1-.328-.438.389.389 0 0 1 .768.116.385.385 0 0 1-.385.327c-.02 0-.036-.005-.055-.005zm54.494.117a.377.377 0 0 1-.194-.505.395.395 0 0 1 .52-.189c.191.087.28.317.187.506a.387.387 0 0 1-.513.188zm-.77 1.328a.372.372 0 0 1-.129-.524.394.394 0 0 1 .533-.13c.183.114.24.35.131.528a.393.393 0 0 1-.535.126zm-54.182-.3v-.005a.39.39 0 0 1 .778 0 .38.38 0 0 1-.384.381.385.385 0 0 1-.394-.376zm53.228 1.557a.374.374 0 0 1-.056-.535c0-.005.005-.01.008-.016 0-.006.004-.01.012-.014a.387.387 0 0 1 .544-.063.377.377 0 0 1 .068.536l-.016.017-.01.01a.382.382 0 0 1-.55.065zm-53.047.042a.381.381 0 0 1 .29-.46.393.393 0 0 1 .468.286.385.385 0 0 1-.292.46c-.03.01-.06.01-.091.01a.381.381 0 0 1-.375-.296zm51.962 1.052a.38.38 0 0 1 .016-.542.391.391 0 0 1 .55.016c.15.154.14.395-.017.541a.365.365 0 0 1-.263.103.405.405 0 0 1-.286-.118zm-51.354.464a.375.375 0 0 1 .15-.52.393.393 0 0 1 .529.149.38.38 0 0 1-.15.52.416.416 0 0 1-.192.051.377.377 0 0 1-.337-.2zm50.092.425a.388.388 0 0 1 .655-.413.378.378 0 0 1-.114.531.409.409 0 0 1-.212.06.4.4 0 0 1-.329-.178zm-1.426.598a.382.382 0 0 1 .233-.49.392.392 0 0 1 .5.23.382.382 0 0 1-.234.49.412.412 0 0 1-.13.026.397.397 0 0 1-.37-.256zm-7.346.26a.388.388 0 0 1-.374-.403.387.387 0 0 1 .41-.363c.212.01.377.188.368.398a.389.389 0 0 1-.39.367h-.014zm-1.928-.337a.393.393 0 0 1 .36-.414.389.389 0 0 1 .42.354.386.386 0 0 1-.357.413h-.032a.398.398 0 0 1-.391-.353zm3.445.46a.385.385 0 1 1 .086-.765.387.387 0 0 1 .348.422.392.392 0 0 1-.39.342h-.044zm-41.961-.08a.386.386 0 0 1 .079-.543.393.393 0 0 1 .544.078.382.382 0 0 1-.072.535.406.406 0 0 1-.551-.07zm36.998-.072a.385.385 0 0 1 .285-.465.387.387 0 0 1 .471.274.383.383 0 0 1-.283.465h.003a.33.33 0 0 1-.097.017.398.398 0 0 1-.379-.291zm6.512.32a.384.384 0 0 1-.348-.418.39.39 0 0 1 .43-.342c.214.02.37.209.343.418a.38.38 0 0 1-.384.341h-.04zm2.755-.285a.38.38 0 0 1 .332-.428.385.385 0 0 1 .436.33.38.38 0 0 1-.336.429c-.016.006-.033.006-.048.006a.385.385 0 0 1-.384-.337zm-1.178.398a.386.386 0 0 1-.378-.394.394.394 0 0 1 .398-.373.383.383 0 1 1-.01.767h-.01zm-9.528.132a.38.38 0 0 1 .195-.504.386.386 0 0 1 .512.188c.09.193.005.42-.191.506v.004a.442.442 0 0 1-.162.032.389.389 0 0 1-.354-.226zm-34.507.69v.006a.384.384 0 0 1 0-.54.398.398 0 0 1 .557 0 .387.387 0 1 1-.557.535zm33.186.113a.367.367 0 0 1 .11-.525v-.006a.39.39 0 0 1 .537.107.378.378 0 0 1-.108.532.406.406 0 0 1-.213.066.39.39 0 0 1-.326-.174zm-31.996.94a.378.378 0 0 1-.058-.537.387.387 0 0 1 .546-.06.378.378 0 0 1 .062.536.392.392 0 0 1-.306.149.402.402 0 0 1-.244-.089zm30.791.025a.38.38 0 0 1 .058-.54.385.385 0 0 1 .544.06.369.369 0 0 1-.057.537.396.396 0 0 1-.244.087.393.393 0 0 1-.3-.144zm-29.495.885v.005a.384.384 0 0 1-.117-.532.395.395 0 0 1 .536-.118.383.383 0 0 1 .123.532.4.4 0 0 1-.542.113zm28.196-.041a.38.38 0 0 1 .126-.527.394.394 0 0 1 .539.123c.109.18.057.415-.124.526h-.003a.376.376 0 0 1-.204.056.39.39 0 0 1-.334-.178zm-26.819.822a.376.376 0 0 1-.166-.515.387.387 0 0 1 .521-.163.374.374 0 0 1 .168.514.382.382 0 0 1-.523.164zm25.447-.112a.384.384 0 0 1 .176-.516.386.386 0 1 1 .349.69.422.422 0 0 1-.18.036.39.39 0 0 1-.345-.21zm-24.017.776a.38.38 0 0 1-.205-.499.39.39 0 0 1 .513-.205.38.38 0 0 1 .207.5.39.39 0 0 1-.515.204zm22.582-.183a.394.394 0 0 1 .22-.501.402.402 0 0 1 .509.215.391.391 0 0 1-.218.5.538.538 0 0 1-.147.026c-.155 0-.3-.091-.364-.24zm-21.103.736a.383.383 0 0 1-.242-.486.397.397 0 0 1 .496-.24.376.376 0 0 1 .238.485.387.387 0 0 1-.492.24zm19.635-.241a.382.382 0 0 1 .25-.481.39.39 0 0 1 .494.246.379.379 0 0 1-.25.48.389.389 0 0 1-.493-.246zm-1.493.408a.373.373 0 0 1 .276-.463.389.389 0 0 1 .476.27.39.39 0 0 1-.28.47.533.533 0 0 1-.098.01.387.387 0 0 1-.374-.287zm-16.632.287a.383.383 0 0 1-.273-.47.39.39 0 0 1 .752.2.385.385 0 0 1-.48.27zm15.118.047a.38.38 0 0 1 .3-.455.387.387 0 0 1 .456.295.38.38 0 0 1-.3.456.385.385 0 0 1-.456-.297zm-13.585.316v.005a.385.385 0 0 1-.302-.46.387.387 0 0 1 .462-.29c.212.04.342.244.301.454a.393.393 0 0 1-.378.3c-.031 0-.058 0-.083-.01zm12.047-.063a.392.392 0 0 1 .327-.438c.214-.03.41.113.448.322a.392.392 0 0 1-.328.44v-.007c-.02.007-.041.007-.063.007a.389.389 0 0 1-.384-.324zm-10.502.342v.007a.383.383 0 0 1-.322-.439.395.395 0 0 1 .447-.323.392.392 0 0 1 .322.44.388.388 0 0 1-.384.322c-.022 0-.042 0-.063-.007zm8.962-.152a.392.392 0 0 1 .346-.423.382.382 0 1 1 .085.762c-.016.003-.026.003-.044.003a.392.392 0 0 1-.387-.342zm-7.405.363a.385.385 0 0 1-.343-.422.393.393 0 0 1 .431-.345v.006a.38.38 0 0 1 .342.42.383.383 0 0 1-.388.34h-.042zm5.857-.24a.386.386 0 0 1 .366-.409.385.385 0 0 1 .412.353.38.38 0 0 1-.361.409c-.01 0-.015.006-.027.006a.396.396 0 0 1-.39-.36zm-4.654-.035a.38.38 0 0 1 .411-.357c.218.009.377.194.364.403a.384.384 0 0 1-.411.357.38.38 0 0 1-.364-.403zm3.103.085a.391.391 0 0 1 .38-.392.385.385 0 0 1 .398.378.385.385 0 0 1-.378.389h-.01a.39.39 0 0 1-.39-.375zm-1.168.38a.385.385 0 0 1-.384-.39.384.384 0 0 1 .396-.371c.217 0 .39.172.383.387a.381.381 0 0 1-.389.373h-.006z"/>
            <path d="M160.318 8.19a.389.389 0 0 1 .386-.395.391.391 0 0 1 .396.385c0 .213-.172.39-.386.395h-.006a.389.389 0 0 1-.39-.385zm1.94.407a.391.391 0 0 1-.377-.407.385.385 0 0 1 .408-.374h-.007a.385.385 0 0 1 .377.406.389.389 0 0 1-.392.375h-.01zm-3.505-.306a.398.398 0 0 1 .36-.423.393.393 0 0 1 .422.36.393.393 0 0 1-.359.42h-.031a.396.396 0 0 1-.392-.357zm5.045.406a.398.398 0 0 1-.358-.428.397.397 0 0 1 .43-.354.39.39 0 0 1 .352.421.387.387 0 0 1-.39.36h-.034zm-6.594-.2a.392.392 0 0 1 .33-.447.39.39 0 0 1 .115.77c-.021.005-.038.005-.059.005a.388.388 0 0 1-.386-.327zm8.134.36a.39.39 0 0 1-.339-.432.392.392 0 1 1 .778.099.389.389 0 0 1-.392.338c-.014 0-.03 0-.047-.005zm1.535.224a.4.4 0 0 1-.325-.448.391.391 0 0 1 .45-.322c.213.03.36.234.322.447a.383.383 0 0 1-.385.328c-.02 0-.042 0-.062-.005zm-11.202-.266a.397.397 0 0 1 .293-.468.39.39 0 0 1 .469.291.391.391 0 0 1-.292.474c-.026.005-.059.005-.089.005a.392.392 0 0 1-.381-.302zm12.735.53a.396.396 0 0 1-.313-.456.398.398 0 0 1 .457-.314c.21.043.351.245.315.454a.394.394 0 0 1-.387.322c-.02 0-.046-.005-.072-.005zm-14.23-.082a.389.389 0 0 1 .249-.49.39.39 0 0 1 .493.25.389.389 0 0 1-.374.51.386.386 0 0 1-.369-.27zm15.762.374a.39.39 0 0 1 .151-.765.392.392 0 1 1-.072.776c-.026 0-.053-.006-.079-.01zm1.533.308a.39.39 0 1 1 .46-.303.387.387 0 0 1-.386.314.372.372 0 0 1-.074-.01zM152.72 9.84a.39.39 0 0 1 .72-.302.395.395 0 0 1-.36.543.39.39 0 0 1-.36-.24zm20.289.412a.393.393 0 0 1-.312-.458.391.391 0 0 1 .458-.307c.215.041.35.245.315.458a.403.403 0 0 1-.387.319c-.027 0-.046-.006-.074-.012zm1.55.281a.39.39 0 1 1 .125-.77c.213.03.36.234.323.448a.392.392 0 0 1-.386.329c-.02 0-.041-.007-.063-.007zm1.575.21a.39.39 0 1 1 .428-.35.392.392 0 0 1-.388.355c-.015 0-.026-.005-.04-.005zm-24.811-.199a.398.398 0 0 1 .161-.532.4.4 0 0 1 .533.163.397.397 0 0 1-.351.577.404.404 0 0 1-.343-.208zm26.02-.116a.39.39 0 0 1 .38-.4.386.386 0 0 1 .402.375.389.389 0 0 1-.381.4h-.01a.389.389 0 0 1-.39-.375zm1.925.408a.393.393 0 1 1 .063-.782.384.384 0 0 1 .353.422.392.392 0 0 1-.386.36h-.03zm1.49.219a.4.4 0 0 1-.302-.464.395.395 0 0 1 .47-.303.39.39 0 0 1-.085.771c-.03 0-.056 0-.082-.004zm1.45.415a.39.39 0 1 1 .266-.734.392.392 0 0 1-.136.76.36.36 0 0 1-.13-.026zm-32.217-.105a.399.399 0 0 1 .116-.54.392.392 0 0 1 .544.115c.119.181.067.422-.116.536a.375.375 0 0 1-.213.067.402.402 0 0 1-.33-.178zm33.593.72a.396.396 0 0 1-.161-.531c.1-.189.34-.266.527-.162.192.1.265.34.167.527a.392.392 0 0 1-.35.207.467.467 0 0 1-.183-.04zm-34.843.214a.395.395 0 0 1 .068-.552.393.393 0 0 1 .48.62.43.43 0 0 1-.24.083.394.394 0 0 1-.308-.151zm36.131.577a.393.393 0 0 1 .454-.64c.173.125.215.369.089.547a.387.387 0 0 1-.318.162.402.402 0 0 1-.225-.07zm-37.304.454a.387.387 0 0 1 .027-.552.388.388 0 0 1 .552.025.4.4 0 0 1-.026.554.4.4 0 0 1-.553-.027zm38.479.494a.385.385 0 0 1-.021-.552.393.393 0 0 1 .552-.02.392.392 0 0 1-.265.677.374.374 0 0 1-.266-.105zm-39.568.625a.392.392 0 1 1 .265.104.394.394 0 0 1-.265-.104zm40.621.469a.394.394 0 0 1 .594-.515v.004c.14.162.12.407-.042.546a.356.356 0 0 1-.255.094.383.383 0 0 1-.297-.13zm-41.634.719a.387.387 0 0 1-.057-.546.39.39 0 1 1 .303.634.372.372 0 0 1-.246-.088zm42.562.478a.39.39 0 1 1 .644-.442.393.393 0 0 1-.098.546.381.381 0 0 1-.222.068.382.382 0 0 1-.324-.172zm-43.51.765a.391.391 0 1 1 .469-.625.391.391 0 0 1-.47.625zm44.312.532a.385.385 0 0 1 .152-.525.385.385 0 0 1 .53.15.384.384 0 0 1-.155.53.387.387 0 0 1-.527-.155zm-45.204.754a.392.392 0 0 1 .438-.65.388.388 0 0 1-.219.713.42.42 0 0 1-.219-.063zm45.872.615a.392.392 0 0 1 .72-.306.386.386 0 0 1-.203.51.343.343 0 0 1-.158.037.39.39 0 0 1-.359-.241zm-46.7.704a.384.384 0 0 1-.132-.537.396.396 0 0 1 .536-.13.4.4 0 0 1 .132.541.39.39 0 0 1-.334.183.368.368 0 0 1-.203-.057zm47.242.723a.392.392 0 0 1 .746-.243.391.391 0 0 1-.37.514.4.4 0 0 1-.376-.271zm-48.015.64a.394.394 0 0 1-.151-.531.385.385 0 0 1 .527-.156.39.39 0 0 1-.187.734.433.433 0 0 1-.19-.047zm48.438.833a.393.393 0 0 1 .285-.475.395.395 0 0 1 .47.293.383.383 0 0 1-.285.468c-.033.011-.063.011-.095.011a.383.383 0 0 1-.375-.297zm-49.137.557a.382.382 0 0 1-.181-.52.387.387 0 0 1 .522-.177.389.389 0 0 1-.168.74.345.345 0 0 1-.173-.043zm49.43.943a.398.398 0 0 1 .327-.449.393.393 0 0 1 .444.33.39.39 0 0 1-.324.447h-.062a.39.39 0 0 1-.386-.328zm-50.06.49a.391.391 0 0 1-.21-.51.4.4 0 0 1 .518-.21.39.39 0 0 1 .203.511.388.388 0 0 1-.511.209zm50.237 1.03a.39.39 0 0 1 .36-.416c.213-.016.398.146.417.36a.39.39 0 0 1-.36.415c-.01 0-.022.006-.026.006a.385.385 0 0 1-.391-.364zm-50.791.432a.392.392 0 0 1-.234-.5.392.392 0 0 1 .735.266.394.394 0 0 1-.37.255.353.353 0 0 1-.131-.021zm50.843 1.1a.39.39 0 1 1 .782 0 .39.39 0 0 1-.782 0zm-51.316.39a.394.394 0 0 1-.261-.49.39.39 0 0 1 .488-.26.391.391 0 1 1-.227.75zm-.386 1.51a.389.389 0 0 1-.288-.473.387.387 0 0 1 .47-.287.39.39 0 0 1-.094.77c-.026 0-.057-.005-.088-.01zm52 .047a.393.393 0 0 1-.362-.417.392.392 0 1 1 .783.063h-.006a.386.386 0 0 1-.385.359c-.01 0-.02 0-.03-.005zm-52.303 1.484a.385.385 0 0 1-.313-.454.382.382 0 0 1 .452-.31.382.382 0 0 1 .314.451.388.388 0 0 1-.385.319c-.02 0-.043 0-.068-.006zm52.088.061a.38.38 0 0 1-.323-.441.39.39 0 1 1 .77.12.387.387 0 0 1-.385.327c-.02 0-.04 0-.062-.006zm-52.296 1.49a.392.392 0 0 1-.34-.436.391.391 0 1 1 .777.094.398.398 0 0 1-.39.341h-.047zm51.967.042a.394.394 0 0 1-.291-.469.39.39 0 0 1 .468-.292.387.387 0 0 1 .293.47.39.39 0 0 1-.38.302c-.029 0-.058-.006-.09-.01zm-52.082 1.515a.39.39 0 1 1 .046-.78c.214.01.381.199.37.411a.397.397 0 0 1-.39.37h-.026zm51.64-.02a.39.39 0 0 1-.257-.49.391.391 0 0 1 .491-.249c.208.06.318.28.255.489a.395.395 0 0 1-.37.27.327.327 0 0 1-.12-.02zm-.56 1.464a.395.395 0 0 1-.213-.513.385.385 0 0 1 .506-.212.39.39 0 0 1 .22.505.398.398 0 0 1-.366.246c-.047 0-.094-.013-.146-.026zm-51.487-.272c0-.219.172-.39.391-.39.213-.005.39.171.39.385 0 .213-.172.39-.385.397h-.005a.394.394 0 0 1-.39-.392zm50.826 1.682a.384.384 0 0 1-.177-.52.382.382 0 0 1 .521-.177.385.385 0 0 1 .177.52.39.39 0 0 1-.35.219.421.421 0 0 1-.171-.042zm-50.763-.094v-.004a.39.39 0 1 1 .78-.053.389.389 0 0 1-.364.417h-.025a.391.391 0 0 1-.391-.36zm49.996 1.453a.388.388 0 0 1-.14-.532c.109-.186.35-.25.537-.14.183.109.244.348.135.536a.403.403 0 0 1-.338.193.399.399 0 0 1-.194-.057zm-49.83.125a.392.392 0 0 1 .776-.11.396.396 0 0 1-.332.443h-.052a.393.393 0 0 1-.391-.333zm48.903 1.255a.393.393 0 0 1-.096-.546c.007-.012.018-.022.026-.033.006-.014.018-.03.027-.045a.398.398 0 0 1 .548-.1.398.398 0 0 1 .063.583.393.393 0 0 1-.568.141zm-48.626.306a.396.396 0 0 1 .302-.463c.21-.04.416.094.465.303a.39.39 0 0 1-.767.16zm47.639.896a.39.39 0 1 1 .512-.587c.162.14.183.384.041.552a.386.386 0 0 1-.554.035zm-47.248.652a.387.387 0 0 1 .261-.486.388.388 0 0 1 .485.262.385.385 0 0 1-.261.483c-.036.016-.08.016-.115.016a.383.383 0 0 1-.37-.275zm46.111.417a.392.392 0 0 1 .594-.511.39.39 0 0 1-.297.645.407.407 0 0 1-.297-.134zm-1.318.822a.388.388 0 0 1 .156-.533.391.391 0 1 1-.156.533zm-44.23.271a.385.385 0 0 1 .193-.517.388.388 0 0 1 .515.194.385.385 0 0 1-.192.515.366.366 0 0 1-.162.035.38.38 0 0 1-.354-.227zm42.748.213a.392.392 0 0 1 .275-.48.4.4 0 0 1 .483.277.392.392 0 1 1-.758.203zm-1.543.212a.386.386 0 0 1 .339-.43.387.387 0 0 1 .434.343.389.389 0 0 1-.345.433c-.011 0-.027.004-.041.004a.39.39 0 0 1-.387-.35zm-1.553.173a.39.39 0 1 1 .436.339h-.05a.387.387 0 0 1-.386-.34zm-1.523.344a.385.385 0 0 1 .276-.478.39.39 0 0 1 .48.275.395.395 0 0 1-.278.479c-.035.004-.066.01-.103.01a.388.388 0 0 1-.375-.286zm-37.363.478a.392.392 0 1 1 .663-.416.388.388 0 0 1-.127.537.364.364 0 0 1-.207.062.39.39 0 0 1-.329-.183zm35.928.137a.393.393 0 0 1 .183-.522.386.386 0 0 1 .522.178.397.397 0 0 1-.178.526.424.424 0 0 1-.173.037.391.391 0 0 1-.354-.22zm-1.303.854a.394.394 0 0 1 .093-.543.396.396 0 0 1 .55.089.395.395 0 0 1-.32.62.392.392 0 0 1-.323-.166zm-33.68.312a.393.393 0 1 1 .553.052.403.403 0 0 1-.251.088.386.386 0 0 1-.302-.14zm32.507.714a.389.389 0 0 1 .025-.552.386.386 0 0 1 .549.02c.15.161.14.407-.02.551a.396.396 0 0 1-.554-.02zm-31.408.457a.39.39 0 0 1-.015-.553.394.394 0 0 1 .568.543.408.408 0 0 1-.286.119.374.374 0 0 1-.267-.11zm30.344.682a.388.388 0 0 1-.032-.552.391.391 0 1 1 .032.552zm-29.13.36a.388.388 0 0 1-.067-.548.387.387 0 0 1 .55-.067c.17.131.202.375.066.547a.392.392 0 0 1-.549.068zm27.957.671a.39.39 0 0 1 .055-.547v-.004a.392.392 0 0 1 .496.608v-.005a.379.379 0 0 1-.25.09.385.385 0 0 1-.301-.142zm-26.64.245a.391.391 0 1 1 .536-.118.383.383 0 0 1-.536.118zm25.335.62a.388.388 0 0 1 .127-.537.392.392 0 0 1 .541.124.395.395 0 0 1-.126.539.382.382 0 0 1-.207.054c-.13 0-.26-.06-.335-.18zm-23.955.177a.396.396 0 0 1-.166-.531.392.392 0 0 1 .693.364.391.391 0 0 1-.527.167zm1.44.682v-.007a.384.384 0 0 1-.204-.508.383.383 0 0 1 .51-.204v-.005a.396.396 0 0 1 .21.515.399.399 0 0 1-.36.241.413.413 0 0 1-.156-.032zm21.124-.145a.388.388 0 0 1 .186-.521.39.39 0 0 1 .523.182.393.393 0 0 1-.182.52.43.43 0 0 1-.173.037.39.39 0 0 1-.354-.218zm-19.645.718a.389.389 0 0 1-.238-.495.391.391 0 0 1 .5-.24.39.39 0 1 1-.262.735zm18.195-.141a.39.39 0 1 1 .73-.276.394.394 0 0 1-.224.505.392.392 0 0 1-.505-.23zm-16.676.624a.393.393 0 0 1 .213-.756.397.397 0 0 1 .266.485.388.388 0 0 1-.48.271zm15.18-.161a.397.397 0 0 1 .266-.485.384.384 0 0 1 .48.266.384.384 0 0 1-.373.5.399.399 0 0 1-.373-.281zm-13.647.548a.384.384 0 0 1-.291-.466.392.392 0 0 1 .464-.296.393.393 0 0 1 .297.464.394.394 0 0 1-.38.306c-.031 0-.06 0-.09-.008zm12.124-.195a.392.392 0 1 1 .766-.167.382.382 0 0 1-.303.464v.006c-.025.005-.051.005-.077.005a.393.393 0 0 1-.386-.308zm-10.565.501a.396.396 0 0 1-.322-.452.398.398 0 0 1 .453-.324v.004a.391.391 0 1 1-.068.777c-.023 0-.042-.005-.063-.005zm9.022-.239a.394.394 0 0 1 .328-.448.396.396 0 0 1 .448.329.395.395 0 0 1-.33.447c-.019 0-.04.004-.055.004a.392.392 0 0 1-.39-.332zm-7.452.458a.39.39 0 1 1 .089-.776.39.39 0 1 1-.041.776h-.048zm5.897-.29a.394.394 0 0 1 .783-.074.396.396 0 0 1-.355.426h-.036a.395.395 0 0 1-.392-.353zm-4.317.426a.391.391 0 1 1 .412-.364.387.387 0 0 1-.392.364h-.02zm2.756-.339a.386.386 0 0 1 .376-.407.39.39 0 0 1 .408.37.39.39 0 0 1-.374.406c-.006.004-.014.004-.014.004a.392.392 0 0 1-.396-.373zm-1.177.397a.392.392 0 0 1-.385-.397.396.396 0 0 1 .397-.384.39.39 0 0 1-.005.781h-.007z"/>
            <path d="M157.822 7.066a.39.39 0 0 1 .777 0 .383.383 0 0 1-.388.386.39.39 0 0 1-.39-.386zm1.917.43a.396.396 0 0 1-.369-.41.386.386 0 0 1 .409-.358.384.384 0 1 1-.02.769h-.02zm-3.464-.347a.39.39 0 0 1 .781-.057.38.38 0 0 1-.364.41c-.01.006-.02.006-.03.006a.394.394 0 0 1-.387-.359zm4.987.47a.385.385 0 0 1-.343-.424.388.388 0 0 1 .427-.344v.005c.211.02.367.21.347.42a.388.388 0 0 1-.39.343h-.04zm-6.516-.266a.384.384 0 0 1 .32-.441.39.39 0 0 1 .444.323.38.38 0 0 1-.319.437c-.022.005-.041.005-.061.005a.38.38 0 0 1-.384-.324zm8.043.452a.384.384 0 0 1-.331-.435.383.383 0 0 1 .436-.33c.212.032.36.227.331.437a.385.385 0 0 1-.384.332c-.014 0-.037-.004-.052-.004zm-9.555-.108a.387.387 0 0 1 .284-.468.386.386 0 1 1 .19.746c-.028.01-.066.01-.098.01a.39.39 0 0 1-.376-.288zm11.077.335a.382.382 0 1 1 .124-.755c.214.03.355.23.323.44a.388.388 0 0 1-.383.32c-.02 0-.041 0-.064-.005zm1.523.256a.39.39 0 0 1-.32-.445.388.388 0 1 1 .766.132.39.39 0 0 1-.383.318c-.022 0-.041 0-.063-.005zm-14.068-.103a.39.39 0 0 1 .733-.261.388.388 0 0 1-.229.493.434.434 0 0 1-.136.02.384.384 0 0 1-.368-.252zm15.597.364a.388.388 0 0 1-.321-.447.395.395 0 0 1 .452-.313.392.392 0 0 1 .316.448.392.392 0 0 1-.386.318c-.02 0-.04 0-.06-.006zm10.83.16a.384.384 0 0 1-.385-.39c0-.211.18-.38.398-.38.211.005.382.18.382.395a.386.386 0 0 1-.388.375h-.007zm-1.931-.292a.389.389 0 0 1 .357-.416c.214-.022.4.139.42.347a.392.392 0 0 1-.352.422v-.006c-.015.006-.025.006-.037.006a.396.396 0 0 1-.388-.353zm-7.366.38a.388.388 0 0 1 .114-.765.387.387 0 1 1-.057.77c-.015 0-.035-.005-.057-.005zm10.793.014a.387.387 0 0 1-.335-.431.388.388 0 0 1 .435-.333c.214.026.364.22.34.43a.392.392 0 0 1-.387.34c-.014 0-.03 0-.053-.006zm-4.956-.159a.39.39 0 0 1 .318-.447.387.387 0 0 1 .135.76c-.021 0-.047.006-.069.006a.394.394 0 0 1-.384-.319zm-4.288.35a.388.388 0 0 1-.342-.427.387.387 0 0 1 .429-.338c.214.02.368.21.342.42a.386.386 0 0 1-.387.344h-.042zm-20.086-.18a.385.385 0 0 1 .178-.514.39.39 0 0 1 .52.18.382.382 0 0 1-.347.55.394.394 0 0 1-.35-.216zm30.809.267a.388.388 0 0 1-.286-.473.394.394 0 0 1 .477-.276c.208.05.33.26.28.467a.395.395 0 0 1-.38.293c-.03 0-.061-.006-.091-.01zm-9.153.04a.386.386 0 0 1-.372-.404.389.389 0 0 1 .776.04.385.385 0 0 1-.39.364h-.014zm1.176-.359a.386.386 0 0 1 .374-.401.387.387 0 0 1 .403.365.388.388 0 0 1-.375.406h.007-.022a.388.388 0 0 1-.387-.37zm9.396.774a.386.386 0 0 1-.219-.502.392.392 0 0 1 .509-.21.376.376 0 0 1 .212.497.38.38 0 0 1-.357.242.34.34 0 0 1-.145-.027zm-33.561.058a.382.382 0 0 1 .127-.529.381.381 0 0 1 .532.124.376.376 0 0 1-.124.528.361.361 0 0 1-.204.057.393.393 0 0 1-.331-.18zm34.903.59a.384.384 0 0 1-.145-.529.392.392 0 0 1 .533-.138c.187.11.248.338.138.524a.389.389 0 0 1-.335.195.356.356 0 0 1-.191-.052zm-36.15.319a.389.389 0 0 1 .073-.544.386.386 0 0 1 .543.073c.13.167.099.409-.073.538a.353.353 0 0 1-.232.08.394.394 0 0 1-.31-.147zm37.38.508a.384.384 0 0 1-.061-.539.39.39 0 0 1 .545-.065.38.38 0 0 1 .063.536.39.39 0 0 1-.547.068zm-38.54.502a.378.378 0 0 1 .02-.54h.007a.38.38 0 0 1 .544.021.38.38 0 0 1-.022.545.391.391 0 0 1-.264.103.376.376 0 0 1-.284-.129zm39.644.488a.391.391 0 0 1 .011-.544.404.404 0 0 1 .555.011v.005a.384.384 0 0 1-.014.543.397.397 0 0 1-.268.102.386.386 0 0 1-.284-.117zm-40.712.622a.383.383 0 0 1-.025-.544.39.39 0 0 1 .547-.02c.162.143.173.39.028.542a.394.394 0 0 1-.29.124.36.36 0 0 1-.26-.102zm41.677.517a.378.378 0 0 1 .081-.54.395.395 0 0 1 .545.084c.125.17.09.409-.082.54a.39.39 0 0 1-.233.072.376.376 0 0 1-.311-.156zm-42.66.668a.378.378 0 0 1-.063-.54.386.386 0 0 1 .545-.06.383.383 0 1 1-.244.682.38.38 0 0 1-.239-.082zm43.463.58h.003a.376.376 0 0 1 .152-.523.392.392 0 0 1 .528.148.385.385 0 0 1-.15.525.396.396 0 0 1-.191.05.396.396 0 0 1-.342-.2zm-44.354.672a.374.374 0 0 1-.103-.534.39.39 0 0 1 .539-.102.384.384 0 0 1-.218.703.378.378 0 0 1-.218-.067zm45.01.668a.385.385 0 0 1 .209-.502.392.392 0 0 1 .506.209.38.38 0 0 1-.206.503.358.358 0 0 1-.15.032.394.394 0 0 1-.359-.242zm-45.794.656a.384.384 0 0 1-.149-.522.39.39 0 0 1 .527-.149.38.38 0 0 1 .15.522.38.38 0 0 1-.528.15zm46.298.755a.388.388 0 0 1 .258-.482.397.397 0 0 1 .488.261.387.387 0 0 1-.372.494.392.392 0 0 1-.374-.273zm-46.96.63a.378.378 0 0 1-.196-.507.393.393 0 0 1 .512-.195.384.384 0 0 1 .197.508.384.384 0 0 1-.352.232.343.343 0 0 1-.16-.037zm47.323.823h-.007a.39.39 0 1 1 .768-.148.39.39 0 0 1-.31.45c-.02.007-.046.007-.072.007a.377.377 0 0 1-.38-.31zm-47.85.623a.386.386 0 1 1 .249-.73c.2.067.309.287.242.488a.384.384 0 0 1-.492.242zm48.072.86a.39.39 0 0 1 .773-.082c.019.21-.131.401-.342.422-.016.004-.033.004-.043.004a.39.39 0 0 1-.388-.343zm-48.466.622a.387.387 0 0 1-.29-.462.392.392 0 0 1 .47-.287.383.383 0 0 1 .285.467.384.384 0 0 1-.374.292c-.03 0-.06-.005-.09-.01zm48.564.877h.005c-.01-.21.16-.39.375-.396a.389.389 0 0 1 .398.376.388.388 0 0 1-.38.396h-.009a.39.39 0 0 1-.389-.376zm-48.829.633a.387.387 0 0 1-.327-.438.388.388 0 0 1 .44-.323.383.383 0 1 1-.055.765c-.016 0-.036 0-.058-.004zm49.182 1.277a.386.386 0 1 1 .04-.771c.213.012.38.19.37.402a.39.39 0 0 1-.39.37h-.02zm-49.321.25a.388.388 0 0 1-.364-.41.382.382 0 0 1 .416-.353.381.381 0 0 1-.027.764h-.025zm49.165 1.275a.386.386 0 1 1 .093-.766.388.388 0 0 1 .341.426.389.389 0 0 1-.387.345c-.016 0-.03-.005-.047-.005zm-49.208.261a.385.385 0 0 1 .011-.769.385.385 0 0 1-.004.769h-.007zm48.953 1.253a.387.387 0 1 1 .143-.76.386.386 0 0 1-.073.766c-.023 0-.048 0-.07-.006zm-49.3-.088a.388.388 0 0 1 .774-.036.39.39 0 0 1-.368.405h-.016a.387.387 0 0 1-.39-.369zm48.95 1.582a.386.386 0 0 1-.288-.467.396.396 0 0 1 .474-.284.39.39 0 0 1 .285.468h-.004a.388.388 0 0 1-.467.283zm-48.84-.031a.383.383 0 0 1 .352-.422.384.384 0 0 1 .42.35c.02.21-.134.4-.353.417-.01.004-.02.004-.03.004a.383.383 0 0 1-.388-.35zm48.392 1.499a.388.388 0 0 1-.252-.483.397.397 0 0 1 .486-.252.381.381 0 0 1 .255.483.387.387 0 0 1-.489.252zm-48.22.036a.382.382 0 0 1 .335-.427.383.383 0 1 1 .1.76c-.022.006-.037.006-.053.006a.386.386 0 0 1-.382-.339zm47.7 1.412a.39.39 0 0 1-.23-.5.392.392 0 0 1 .732.274.394.394 0 0 1-.367.246.507.507 0 0 1-.136-.02zm-47.49.118a.384.384 0 0 1 .328-.436.394.394 0 0 1 .446.323.39.39 0 0 1-.332.436c-.015.005-.036.005-.057.005a.395.395 0 0 1-.385-.328zm46.888 1.294a.39.39 0 0 1-.202-.51.386.386 0 0 1 .512-.194.378.378 0 0 1 .202.502.39.39 0 0 1-.512.202zm-46.643.23a.39.39 0 0 1 .321-.446.386.386 0 0 1 .444.319.382.382 0 0 1-.32.44c-.021.004-.04.004-.062.004a.386.386 0 0 1-.383-.318zm45.969 1.148a.388.388 0 0 1-.175-.516.39.39 0 0 1 .522-.17.384.384 0 1 1-.347.686zm-45.715.366a.386.386 0 0 1 .321-.446.385.385 0 0 1 .13.758c-.027.005-.049.005-.068.005a.38.38 0 0 1-.383-.317zm44.975.98a.378.378 0 0 1-.15-.523.386.386 0 0 1 .53-.145c.185.103.251.34.15.525a.404.404 0 0 1-.344.196.346.346 0 0 1-.186-.053zm-44.717.528h-.005a.392.392 0 0 1 .32-.44.385.385 0 0 1 .447.317.379.379 0 0 1-.316.442c-.02.006-.047.006-.068.006a.382.382 0 0 1-.378-.325zm43.852.87a.384.384 0 0 1-.12-.53c.004-.015.016-.025.026-.04.012-.016.016-.033.026-.048a.395.395 0 0 1 .539-.122.382.382 0 0 1 .088.574c-.004.016-.016.03-.021.047a.401.401 0 0 1-.332.179.399.399 0 0 1-.206-.06zm-43.613.644h.003a.383.383 0 0 1 .323-.44c.214-.03.41.113.446.323a.393.393 0 0 1-.327.442h-.064a.387.387 0 0 1-.38-.325zm42.748.623a.381.381 0 0 1-.099-.534.39.39 0 0 1 .54-.097.382.382 0 0 1-.218.699.393.393 0 0 1-.223-.068zm-42.526.887a.384.384 0 0 1 .33-.43.383.383 0 0 1 .437.327.39.39 0 0 1-.331.438h-.052a.388.388 0 0 1-.384-.335zm41.571.318a.377.377 0 0 1-.052-.539.381.381 0 0 1 .547-.055.382.382 0 0 1 .056.538.396.396 0 0 1-.55.056zm-1.076 1.094a.38.38 0 0 1 .016-.544.39.39 0 0 1 .549.01.393.393 0 0 1-.014.55.408.408 0 0 1-.265.102.41.41 0 0 1-.286-.118zm-40.185.14a.378.378 0 0 1 .276-.468.387.387 0 0 1 .476.272.39.39 0 0 1-.752.195zm38.931.748a.388.388 0 0 1 .114-.533.397.397 0 0 1 .539.113.386.386 0 0 1-.325.596.4.4 0 0 1-.328-.176zm-1.33.769a.386.386 0 0 1 .135-.527.393.393 0 0 1 .533.132c.11.186.05.421-.135.53a.405.405 0 0 1-.197.056.394.394 0 0 1-.336-.191zm-37.098-.019a.379.379 0 0 1 .215-.498.391.391 0 0 1 .506.21.384.384 0 0 1-.363.53.373.373 0 0 1-.358-.242zm35.855.922a.385.385 0 0 1 .062-.538.395.395 0 0 1 .548.063.38.38 0 0 1-.061.539.401.401 0 0 1-.244.086.392.392 0 0 1-.305-.15zm-35.17.504a.383.383 0 0 1 .15-.522.389.389 0 0 1 .526.15.382.382 0 0 1-.148.522.366.366 0 0 1-.186.05.389.389 0 0 1-.342-.2zm34.061.56a.383.383 0 0 1-.005-.543.393.393 0 0 1 .549-.006.38.38 0 0 1 .005.545.379.379 0 0 1-.273.117.394.394 0 0 1-.276-.112zm-33.208.77a.376.376 0 0 1 .09-.534.384.384 0 0 1 .536.088.382.382 0 0 1-.31.61.379.379 0 0 1-.316-.163zm32.196.385a.377.377 0 0 1-.045-.54.39.39 0 0 1 .544-.05c.165.139.187.38.053.544a.391.391 0 0 1-.552.047zm-31.202.842a.383.383 0 0 1 .032-.543.395.395 0 0 1 .55.03c.14.16.129.4-.032.543a.367.367 0 0 1-.258.098.384.384 0 0 1-.292-.128zm30.26.373a.382.382 0 0 1-.076-.538.391.391 0 0 1 .542-.077.383.383 0 0 1-.232.693.385.385 0 0 1-.234-.078zm-29.14.742a.381.381 0 0 1-.025-.546.396.396 0 0 1 .549-.026c.16.145.172.387.025.545a.4.4 0 0 1-.291.128.384.384 0 0 1-.258-.101zm28.239.501a.384.384 0 1 1 .457-.619.39.39 0 0 1 .088.539l-.005-.007a.37.37 0 0 1-.31.16.366.366 0 0 1-.23-.073zm-27.022.5a.381.381 0 0 1-.072-.54.39.39 0 0 1 .544-.072c.17.13.2.364.073.539a.386.386 0 0 1-.312.149.415.415 0 0 1-.233-.076zm25.962.62a.384.384 0 0 1 .003-.544.393.393 0 0 1 .552.004.383.383 0 1 1-.275.653.386.386 0 0 1-.28-.114zm-24.662.272a.383.383 0 0 1-.118-.534.388.388 0 0 1 .658.416.403.403 0 0 1-.54.118zm23.445.671a.382.382 0 0 1 .08-.537.394.394 0 0 1 .546.08.383.383 0 0 1-.316.612.373.373 0 0 1-.31-.155zm-22.082.114a.394.394 0 0 1-.16-.523.4.4 0 0 1 .527-.16.392.392 0 0 1 .161.524.401.401 0 0 1-.346.206.397.397 0 0 1-.182-.047zm1.419.683a.384.384 0 0 1-.2-.508.392.392 0 0 1 .516-.194.38.38 0 0 1 .197.507.392.392 0 0 1-.357.23.407.407 0 0 1-.156-.035zm19.325-.025a.375.375 0 0 1 .158-.518.379.379 0 0 1 .52.153.378.378 0 0 1-.153.519.335.335 0 0 1-.183.046.38.38 0 0 1-.342-.2zm-17.87.61a.385.385 0 0 1-.228-.492.382.382 0 0 1 .498-.227c.2.072.306.292.234.494a.393.393 0 0 1-.504.225zm16.452.01c-.08-.2.015-.42.212-.502a.386.386 0 1 1 .295.714.359.359 0 0 1-.145.025.387.387 0 0 1-.362-.237zm-14.955.488h-.006a.391.391 0 0 1-.259-.483.39.39 0 0 1 .748.221.394.394 0 0 1-.373.279.38.38 0 0 1-.11-.017zm13.484-.01a.382.382 0 0 1 .259-.482v.004c.208-.06.424.05.485.257a.38.38 0 0 1-.26.477.385.385 0 0 1-.484-.255zm-11.965.41a.379.379 0 0 1-.29-.46.393.393 0 0 1 .465-.288.384.384 0 1 1-.175.748zm10.457-.062a.388.388 0 0 1 .76-.16.383.383 0 0 1-.299.458c-.029.005-.053.005-.082.005a.39.39 0 0 1-.379-.303zm-8.921.375a.387.387 0 0 1 .136-.76.385.385 0 0 1-.067.766c-.02 0-.049 0-.07-.006zm7.393-.137a.385.385 0 0 1 .333-.437.39.39 0 0 1 .434.335.38.38 0 0 1-.332.43c-.015 0-.037.005-.052.005a.386.386 0 0 1-.383-.333zm-5.836.363a.384.384 0 1 1 .086-.765.386.386 0 0 1 .342.428.387.387 0 0 1-.388.337h-.04zm4.291-.236a.386.386 0 0 1 .364-.41.385.385 0 1 1 .052.765c-.01.006-.015.006-.026.006a.395.395 0 0 1-.39-.361zm-2.73.37a.388.388 0 0 1-.367-.404.389.389 0 0 1 .777.039.382.382 0 0 1-.387.364h-.023zm1.182-.345c0-.21.17-.385.39-.385a.386.386 0 1 1 0 .771.387.387 0 0 1-.39-.386z"/>
            <path d="M177.525 6.344a.384.384 0 0 1-.37-.4.382.382 0 0 1 .395-.376.393.393 0 0 1 .376.396.392.392 0 0 1-.389.38h-.012zm-1.92-.328a.387.387 0 0 1 .772-.055.383.383 0 0 1-.356.414c-.01.005-.022.005-.03.005a.389.389 0 0 1-.386-.364zm-21.056.4a.392.392 0 0 1-.375-.4.394.394 0 0 1 .401-.376v.005a.385.385 0 0 1 .377.392.395.395 0 0 1-.39.38h-.013zm-1.919-.342a.385.385 0 0 1 .367-.407h-.006a.386.386 0 0 1 .412.36.39.39 0 0 1-.367.414h-.019a.39.39 0 0 1-.387-.367zm26.393.399a.387.387 0 0 1 .114-.766.386.386 0 1 1-.057.77c-.017 0-.039 0-.057-.004zm-22.948.034a.382.382 0 0 1-.351-.418.388.388 0 0 1 .423-.35c.21.021.365.205.343.423a.38.38 0 0 1-.379.352c-.012 0-.026 0-.036-.007zm17.994-.276a.394.394 0 0 1 .326-.446h-.006a.383.383 0 0 1 .445.32.383.383 0 0 1-.321.445c-.02.004-.041.004-.063.004a.389.389 0 0 1-.381-.323zm-22.972.054a.386.386 0 1 1 .762-.123.387.387 0 0 1-.319.444c-.02.007-.043.007-.062.007a.388.388 0 0 1-.381-.328zm6.495.404a.393.393 0 0 1-.329-.438.392.392 0 0 1 .437-.333.39.39 0 0 1-.049.777c-.022 0-.037-.006-.059-.006zm22.893.104a.388.388 0 0 1-.261-.482.38.38 0 0 1 .477-.262.387.387 0 0 1 .264.479.398.398 0 0 1-.373.28.425.425 0 0 1-.107-.015zm-7.928-.24a.386.386 0 1 1 .752-.173.384.384 0 0 1-.29.465c-.024.003-.054.01-.086.01a.386.386 0 0 1-.376-.301zm-13.44.369a.39.39 0 0 1-.318-.45.382.382 0 0 1 .441-.314v-.006a.39.39 0 1 1-.062.774c-.02 0-.04-.004-.061-.004zm-9.518-.237a.386.386 0 1 1 .741-.223.386.386 0 0 1-.371.496.392.392 0 0 1-.37-.273zm11.041.49a.382.382 0 0 1-.314-.445.39.39 0 0 1 .443-.32.39.39 0 0 1-.061.77c-.021 0-.047 0-.068-.004zm10.43-.196a.385.385 0 1 1 .736-.223.386.386 0 0 1-.371.502.38.38 0 0 1-.365-.28zm10.804.336a.393.393 0 0 1-.184-.517.382.382 0 0 1 .515-.185.38.38 0 0 1 .183.51.382.382 0 0 1-.514.192zm-19.7.114a.378.378 0 0 1-.32-.44.39.39 0 0 1 .444-.326c.205.036.35.232.32.446a.389.389 0 0 1-.381.325c-.02 0-.041 0-.064-.005zm-14.006-.162a.388.388 0 0 1 .19-.51.39.39 0 0 1 .514.196.39.39 0 0 1-.355.543.375.375 0 0 1-.35-.229zm21.39.059a.392.392 0 0 1 .307-.455.385.385 0 0 1 .453.305.392.392 0 0 1-.308.455c-.026.003-.046.01-.072.01a.391.391 0 0 1-.38-.315zm-5.839.33a.39.39 0 0 1-.336-.435.391.391 0 0 1 .435-.335.388.388 0 0 1-.048.774c-.015 0-.035-.004-.05-.004zm1.559.165a.39.39 0 0 1 .063-.776c.21.021.372.208.354.418a.39.39 0 0 1-.385.358h-.032zm2.739-.337a.388.388 0 1 1 .418.358h-.032c-.2 0-.37-.149-.386-.358zm-1.162.41a.387.387 0 0 1-.387-.392.392.392 0 0 1 .392-.384.384.384 0 0 1 .38.393.386.386 0 0 1-.385.383zm16.312.155a.39.39 0 0 1-.102-.538.387.387 0 1 1 .638.436.377.377 0 0 1-.319.17.379.379 0 0 1-.217-.068zm-36.348-.016a.387.387 0 1 1 .66-.4.387.387 0 0 1-.66.4zm37.495.956a.393.393 0 0 1-.01-.552.388.388 0 1 1 .278.662.382.382 0 0 1-.268-.11zm-38.741-.03a.388.388 0 0 1 .067-.543.38.38 0 0 1 .54.068c.136.165.102.408-.067.543h.007a.406.406 0 0 1-.243.08.39.39 0 0 1-.304-.149zm-1.138 1.054a.389.389 0 0 1 .556-.542.395.395 0 0 1-.01.552.395.395 0 0 1-.267.11.388.388 0 0 1-.279-.12zm40.858.093a.39.39 0 0 1 .624-.464.394.394 0 0 1-.084.541.388.388 0 0 1-.54-.077zM143.4 11.172a.39.39 0 0 1-.04-.548.376.376 0 0 1 .54-.042.38.38 0 0 1 .048.543.39.39 0 0 1-.548.047zm42.697.195a.389.389 0 0 1 .155-.526.395.395 0 0 1 .525.16.387.387 0 0 1-.161.522.328.328 0 0 1-.179.046.377.377 0 0 1-.34-.202zM142.5 12.433a.388.388 0 0 1-.102-.538.384.384 0 0 1 .534-.104.39.39 0 0 1 .103.538.384.384 0 0 1-.535.104zm44.213.303a.387.387 0 0 1 .721-.278.385.385 0 0 1-.36.527.38.38 0 0 1-.36-.249zm-44.94 1.071a.4.4 0 0 1-.182-.52.39.39 0 0 1 .518-.178.383.383 0 0 1 .178.517.38.38 0 0 1-.343.217.372.372 0 0 1-.17-.036zm45.393.368h-.004a.387.387 0 1 1 .752-.191.394.394 0 0 1-.278.476c-.036.004-.068.009-.098.009a.384.384 0 0 1-.372-.294zM141.25 15.27a.392.392 0 0 1-.251-.485.385.385 0 0 1 .488-.254c.2.062.313.28.252.486a.389.389 0 0 1-.37.268.458.458 0 0 1-.119-.015zm46.21.394a.397.397 0 0 1 .326-.446.39.39 0 0 1 .11.771c-.017 0-.034.005-.054.005a.388.388 0 0 1-.381-.33zm-46.508 1.131a.386.386 0 0 1-.32-.444.382.382 0 0 1 .443-.32.39.39 0 0 1 .32.444.39.39 0 0 1-.382.325c-.021 0-.042-.005-.06-.005zm46.665.378a.385.385 0 0 1 .365-.408.383.383 0 0 1 .406.36.394.394 0 0 1-.36.415H188a.39.39 0 0 1-.385-.367zm-46.758 1.173a.39.39 0 0 1-.378-.398.395.395 0 0 1 .399-.379.39.39 0 0 1 .376.4.386.386 0 0 1-.386.377h-.01zm47.172.75a.387.387 0 1 1 .011-.775c.217 0 .388.175.38.392a.388.388 0 0 1-.384.383h-.007zm-47.505.45a.386.386 0 1 1 .416.35c-.01.005-.02.005-.03.005a.384.384 0 0 1-.386-.355zm47.404 1.1a.386.386 0 0 1-.35-.418.386.386 0 0 1 .412-.357.39.39 0 0 1 .354.418.386.386 0 0 1-.385.357h-.03zm-47.217.471a.392.392 0 0 1 .32-.445.386.386 0 0 1 .444.322.383.383 0 0 1-.318.443c-.022.005-.043.005-.064.005a.39.39 0 0 1-.382-.325zm47.016 1.07a.384.384 0 0 1-.323-.44.385.385 0 0 1 .436-.326c.21.032.355.228.324.44a.384.384 0 0 1-.38.331c-.016 0-.037 0-.057-.005zm-46.723.48a.397.397 0 0 1 .302-.465.388.388 0 1 1 .162.76c-.029.004-.054.01-.082.01a.394.394 0 0 1-.382-.304zm46.439 1.05a.391.391 0 0 1-.303-.456.389.389 0 0 1 .762.15.391.391 0 0 1-.381.311c-.025 0-.053 0-.078-.005zm-46.073.475a.388.388 0 1 1 .474.28.628.628 0 0 1-.097.01.39.39 0 0 1-.377-.29zm45.713 1.04a.392.392 0 0 1-.278-.477.384.384 0 0 1 .468-.277c.207.05.329.262.279.47a.394.394 0 0 1-.469.284zm-45.304.47a.383.383 0 0 1 .267-.475.379.379 0 0 1 .473.267.386.386 0 0 1-.37.492.381.381 0 0 1-.37-.284zm44.871 1.017a.384.384 0 0 1-.257-.48.384.384 0 0 1 .48-.258.388.388 0 0 1-.114.76.253.253 0 0 1-.109-.022zm-44.454.482a.393.393 0 0 1 .268-.482.391.391 0 0 1 .478.27.393.393 0 0 1-.268.48c-.036.01-.072.01-.102.01a.388.388 0 0 1-.376-.278zm43.956.991a.381.381 0 0 1-.236-.49.387.387 0 0 1 .73.254h-.005a.379.379 0 0 1-.489.236zm-43.54.503a.391.391 0 0 1 .272-.476.39.39 0 0 1 .206.75.812.812 0 0 1-.101.01.394.394 0 0 1-.376-.284zm42.985.951a.387.387 0 0 1-.218-.502.386.386 0 0 1 .5-.222.39.39 0 0 1-.146.75.472.472 0 0 1-.136-.026zm-42.589.548h.006a.391.391 0 0 1 .278-.476.385.385 0 0 1 .468.286.386.386 0 0 1-.278.469.398.398 0 0 1-.474-.278zm41.975.885a.39.39 0 0 1-.196-.517v.005a.384.384 0 0 1 .505-.201.387.387 0 0 1-.155.743.397.397 0 0 1-.154-.03zm-41.61.615a.387.387 0 0 1 .29-.466.39.39 0 1 1 .087.77.38.38 0 0 1-.377-.304zm40.944.785a.384.384 0 0 1-.173-.517.383.383 0 0 1 .514-.18.387.387 0 0 1 .18.517.39.39 0 0 1-.35.222.371.371 0 0 1-.171-.042zm-40.635.723a.382.382 0 0 1 .31-.449.377.377 0 0 1 .447.306.385.385 0 0 1-.309.453c-.02.006-.044.006-.066.006a.387.387 0 0 1-.382-.316zm39.926.663a.396.396 0 0 1-.16-.527.39.39 0 0 1 .522-.162.39.39 0 0 1 .163.523.39.39 0 0 1-.345.205.38.38 0 0 1-.18-.04zm-39.678.851a.387.387 0 0 1 .767-.101.384.384 0 0 1-.329.433c-.021.007-.036.007-.056.007a.385.385 0 0 1-.382-.339zm38.87.606a.391.391 0 0 1-.144-.532.28.28 0 0 1 .031-.041c.004-.022.016-.036.026-.058a.386.386 0 1 1 .637.43c-.003.02-.015.034-.024.057a.383.383 0 0 1-.337.191.424.424 0 0 1-.188-.047zm-38.694.925a.39.39 0 0 1 .35-.425.396.396 0 0 1 .42.353.391.391 0 0 1-.354.424h-.03a.39.39 0 0 1-.386-.352zm37.943.429a.386.386 0 0 1-.155-.526h.004a.38.38 0 0 1 .523-.151.383.383 0 0 1 .153.523.391.391 0 0 1-.34.202.378.378 0 0 1-.185-.048zm-.727 1.37a.391.391 0 0 1-.163-.522.39.39 0 0 1 .524-.166.391.391 0 0 1 .165.523.389.389 0 0 1-.345.207.37.37 0 0 1-.18-.042zm-37.124-.273a.385.385 0 0 1 .375-.398.387.387 0 1 1 .02.774h-.01a.385.385 0 0 1-.385-.376zm36.454 1.67a.387.387 0 1 1 .517-.187.387.387 0 0 1-.35.22.38.38 0 0 1-.167-.033zm-36.338-.085a.38.38 0 0 1 .337-.426c.21-.033.4.118.427.329a.384.384 0 0 1-.336.434c-.014.006-.029.006-.045.006a.388.388 0 0 1-.383-.343zm35.747 1.511a.388.388 0 0 1 .288-.719.393.393 0 0 1 .216.507.389.389 0 0 1-.36.242.37.37 0 0 1-.144-.03zm-35.461.062a.39.39 0 0 1 .282-.472.398.398 0 0 1 .469.29.39.39 0 0 1-.289.466c-.03.01-.056.01-.088.01a.384.384 0 0 1-.374-.294zm34.89 1.375a.39.39 0 0 1-.21-.506.386.386 0 0 1 .714.294.388.388 0 0 1-.358.243.38.38 0 0 1-.146-.03zm-34.438.154a.387.387 0 1 1 .495.234.374.374 0 0 1-.135.02.388.388 0 0 1-.36-.254zm33.793 1.257a.399.399 0 0 1-.185-.516.389.389 0 1 1 .352.553.442.442 0 0 1-.167-.037zm-33.176.213a.388.388 0 0 1 .696-.343.387.387 0 0 1-.18.518.383.383 0 0 1-.165.042.4.4 0 0 1-.35-.217zm32.488 1.173a.389.389 0 0 1 .35-.694.389.389 0 0 1-.35.694zm-31.715.216a.386.386 0 1 1 .655-.407.39.39 0 0 1-.124.532.38.38 0 0 1-.207.063.38.38 0 0 1-.324-.188zm30.996 1.153a.378.378 0 0 1-.162-.521.38.38 0 0 1 .518-.16.381.381 0 0 1 .163.522.377.377 0 0 1-.52.159zm-30.09.156a.388.388 0 0 1 .072-.543.38.38 0 0 1 .54.066.391.391 0 0 1-.302.626.387.387 0 0 1-.31-.15zm29.347 1.21a.387.387 0 0 1-.148-.527.384.384 0 1 1 .673.371.384.384 0 0 1-.525.156zm-28.318 0a.394.394 0 0 1 .02-.55.384.384 0 0 1 .546.015.388.388 0 0 1-.02.55.375.375 0 0 1-.263.108.389.389 0 0 1-.283-.123zm1.134 1.106h.005a.385.385 0 0 1-.031-.548.38.38 0 0 1 .54-.026.38.38 0 0 1 .03.543.363.363 0 0 1-.282.127.397.397 0 0 1-.262-.096zm26.416.242a.389.389 0 0 1-.132-.533.39.39 0 0 1 .529-.134.39.39 0 1 1-.2.724.392.392 0 0 1-.197-.057zm-25.191.765a.388.388 0 0 1-.077-.543.384.384 0 0 1 .54-.072.386.386 0 0 1 .076.542.383.383 0 0 1-.307.15.345.345 0 0 1-.232-.077zm24.233.461a.393.393 0 0 1-.039-.549.387.387 0 0 1 .587.501.386.386 0 0 1-.294.141.41.41 0 0 1-.254-.093zm-22.942.449a.395.395 0 0 1-.115-.537.39.39 0 0 1 .537-.12.39.39 0 0 1 .113.537.384.384 0 0 1-.535.12zm21.8.595a.394.394 0 0 1 .046-.543.388.388 0 0 1 .548.045.384.384 0 0 1-.047.543.386.386 0 0 1-.546-.045zm-20.441.21a.392.392 0 0 1-.155-.526.386.386 0 0 1 .525-.155.39.39 0 0 1 .155.528.39.39 0 0 1-.525.154zm1.41.71a.385.385 0 0 1-.19-.516c.087-.193.32-.28.514-.193h-.005a.39.39 0 0 1-.158.745.418.418 0 0 1-.16-.036zm17.746-.052a.388.388 0 0 1 .128-.537.381.381 0 0 1 .531.127c.11.183.055.42-.125.535a.393.393 0 0 1-.535-.124zm-16.294.663a.39.39 0 0 1-.221-.503.38.38 0 0 1 .495-.223.387.387 0 1 1-.274.726zm14.902.02a.387.387 0 1 1 .51.19.35.35 0 0 1-.154.037.39.39 0 0 1-.356-.227zm-13.414.491a.382.382 0 0 1-.254-.482.387.387 0 1 1 .254.483zm11.953.02a.38.38 0 0 1 .252-.485.384.384 0 0 1 .484.248.397.397 0 0 1-.253.491.386.386 0 0 1-.483-.254zm-10.436.399a.39.39 0 0 1 .182-.756.387.387 0 0 1 .282.47.383.383 0 0 1-.377.294.669.669 0 0 1-.087-.008zm8.926-.042a.398.398 0 0 1 .3-.46.386.386 0 0 1 .458.3.382.382 0 0 1-.298.46h.005c-.03.005-.055.01-.084.01a.391.391 0 0 1-.38-.31zm-7.387.362a.388.388 0 0 1-.312-.449.382.382 0 0 1 .445-.316.387.387 0 1 1-.064.768c-.021 0-.04-.003-.07-.003zm5.855-.142a.391.391 0 0 1 .34-.431.385.385 0 0 1 .426.34.384.384 0 0 1-.334.43c-.015.004-.03.004-.048.004a.392.392 0 0 1-.384-.343zm-4.295.359a.39.39 0 0 1-.339-.431.381.381 0 0 1 .424-.34c.21.02.364.213.344.425a.391.391 0 0 1-.387.346h-.042zm2.75-.263a.386.386 0 0 1 .372-.403.382.382 0 0 1 .4.372.389.389 0 0 1-.37.402h-.015a.39.39 0 0 1-.387-.371zm-1.55-.031a.386.386 0 0 1 .772.031.384.384 0 0 1-.395.371.387.387 0 0 1-.377-.402z"/>
            <path d="M176.502 3.738a.387.387 0 0 1 .38-.397c.215 0 .393.17.397.381a.39.39 0 0 1-.384.39h-.006a.38.38 0 0 1-.387-.374zm1.9.432a.385.385 0 1 1 .073-.767.39.39 0 0 1 .352.421.39.39 0 0 1-.389.35c-.008 0-.024 0-.035-.004zm-3.448-.294a.386.386 0 0 1 .338-.427.393.393 0 0 1 .435.34.39.39 0 0 1-.343.427c-.018 0-.025.005-.043.005a.394.394 0 0 1-.387-.345zm4.919.548a.392.392 0 0 1-.284-.47.39.39 0 0 1 .471-.283.387.387 0 0 1 .287.468.395.395 0 0 1-.38.293.665.665 0 0 1-.094-.008zm-6.448-.28a.387.387 0 0 1 .305-.453.39.39 0 0 1 .456.303.383.383 0 0 1-.306.454c-.025.005-.052.01-.076.01a.385.385 0 0 1-.38-.314zm-1.507.372a.384.384 0 0 1 .274-.475.393.393 0 0 1 .478.279.379.379 0 0 1-.275.468.385.385 0 0 1-.477-.272zm9.365.37a.38.38 0 0 1-.203-.505.39.39 0 0 1 .508-.207h.005a.39.39 0 0 1 .202.51.394.394 0 0 1-.512.202zm-10.847.086a.39.39 0 0 1 .25-.49c.201-.065.424.05.485.249a.385.385 0 0 1-.248.489.386.386 0 0 1-.487-.247zm12.141.62a.387.387 0 0 1-.102-.536.382.382 0 0 1 .539-.104c.18.118.221.361.104.535a.39.39 0 0 1-.54.105zm-31.918-.304a.386.386 0 0 1 .4-.376.386.386 0 1 1-.022.772.386.386 0 0 1-.378-.396zm-1.548.098a.386.386 0 0 1 .345-.423.39.39 0 0 1 .427.345c.02.21-.135.4-.347.42h-.041a.385.385 0 0 1-.384-.342zm19.864.118a.39.39 0 0 1 .229-.499.388.388 0 0 1 .502.22.387.387 0 0 1-.363.525.391.391 0 0 1-.368-.246zm-16.428.298a.384.384 0 0 1-.34-.427.39.39 0 0 1 .773.092.39.39 0 0 1-.388.34c-.015 0-.031 0-.045-.005zm-4.954-.083a.393.393 0 0 1 .28-.473.382.382 0 0 1 .471.273.388.388 0 0 1-.275.474.36.36 0 0 1-.099.015.39.39 0 0 1-.377-.289zm6.47.315a.388.388 0 0 1-.318-.448.39.39 0 1 1 .769.134.396.396 0 0 1-.386.319c-.025 0-.044 0-.066-.005zm13.46.02a.385.385 0 0 1 .24-.495.39.39 0 0 1 .498.232.387.387 0 0 1-.238.495h.006a.392.392 0 0 1-.505-.231zm-11.947.268a.379.379 0 0 1-.3-.452.388.388 0 0 1 .76.148.394.394 0 0 1-.384.309c-.025 0-.05 0-.076-.005zm-9.413-.016a.377.377 0 0 1 .188-.509.391.391 0 0 1 .518.186.39.39 0 0 1-.353.55.378.378 0 0 1-.353-.227zm10.94.315a.384.384 0 1 1 .144-.755c.215.038.354.24.313.45a.39.39 0 0 1-.385.311c-.02 0-.046 0-.072-.006zm26.61-.093a.389.389 0 0 1 0-.551.39.39 0 0 1 .549.006.387.387 0 1 1-.55.545zm-17.68-.057a.386.386 0 0 1 .28-.469.387.387 0 1 1 .193.748c-.032.01-.063.01-.1.01a.383.383 0 0 1-.373-.289zm-7.391.422a.387.387 0 0 1-.322-.441.39.39 0 0 1 .447-.32.384.384 0 0 1 .32.443.387.387 0 0 1-.382.323c-.021 0-.043 0-.063-.005zm5.862-.16a.388.388 0 0 1 .767-.112.382.382 0 0 1-.326.437.388.388 0 0 1-.441-.325zm-4.304.372a.38.38 0 0 1-.34-.423.385.385 0 0 1 .423-.345.398.398 0 0 1 .347.428.39.39 0 0 1-.387.345c-.01 0-.027 0-.043-.005zm2.756-.258a.386.386 0 1 1 .77-.042.378.378 0 0 1-.364.408h-.016a.388.388 0 0 1-.39-.366zm-1.18.375a.39.39 0 0 1-.373-.4.384.384 0 0 1 .404-.37.386.386 0 0 1-.015.77h-.017zm-16.933-.097a.392.392 0 0 1 .104-.541h.005a.39.39 0 0 1 .54.109c.118.175.07.417-.111.536a.409.409 0 0 1-.217.065.395.395 0 0 1-.321-.17zm39.801.534a.387.387 0 0 1 .644-.43.375.375 0 0 1-.106.534.366.366 0 0 1-.217.067.383.383 0 0 1-.32-.171zm-40.988.454a.385.385 0 0 1 .031-.546.39.39 0 0 1 .545.032.383.383 0 0 1-.032.546.378.378 0 0 1-.254.097.375.375 0 0 1-.29-.129zm41.719.84a.382.382 0 0 1 .192-.515.389.389 0 0 1 .513.185.39.39 0 0 1-.705.33zm-42.78.289a.383.383 0 0 1-.037-.542.39.39 0 0 1 .55-.04c.16.138.176.38.035.544a.382.382 0 0 1-.548.038zm-.865 1.275a.376.376 0 0 1-.13-.53.394.394 0 0 1 .533-.13c.182.115.24.353.13.538a.386.386 0 0 1-.33.18.349.349 0 0 1-.203-.058zm44.175-.174a.39.39 0 0 1 .745-.226.391.391 0 0 1-.26.483.444.444 0 0 1-.114.015.39.39 0 0 1-.371-.272zm-44.776 1.6a.38.38 0 0 1-.233-.494c.066-.2.29-.302.492-.236.202.072.31.293.238.495a.39.39 0 0 1-.497.235zm45.132-.143a.386.386 0 0 1 .31-.453.393.393 0 0 1 .452.314.392.392 0 0 1-.311.447c-.027.006-.047.006-.071.006a.383.383 0 0 1-.38-.314zm-45.407 1.663a.393.393 0 0 1-.337-.434.393.393 0 0 1 .435-.339.39.39 0 0 1 .337.433.39.39 0 0 1-.388.34h-.047zm45.609-.17v-.005a.383.383 0 0 1 .352-.417.39.39 0 0 1 .42.35.392.392 0 0 1-.352.422h-.038a.383.383 0 0 1-.382-.35zM140.48 14.64a.387.387 0 1 1 .415.361h-.025a.387.387 0 0 1-.39-.36zm46.05.16a.39.39 0 0 1 .388-.39c.214 0 .388.168.388.384a.382.382 0 0 1-.385.387h-.003a.389.389 0 0 1-.388-.381zm-45.821 1.421h.004a.386.386 0 1 1 .755-.165.386.386 0 0 1-.295.463c-.03.006-.055.006-.081.006a.393.393 0 0 1-.383-.304zm46.147.504a.383.383 0 0 1-.362-.407.388.388 0 0 1 .408-.365.384.384 0 0 1 .361.406.382.382 0 0 1-.38.366h-.027zm-45.728 1.02a.383.383 0 0 1 .248-.486.394.394 0 0 1 .492.248.389.389 0 0 1-.254.49.434.434 0 0 1-.118.015.38.38 0 0 1-.368-.268zm45.566.515a.385.385 0 0 1-.336-.428.385.385 0 0 1 .43-.34.381.381 0 0 1 .336.426.384.384 0 0 1-.382.342h-.048zm-45.037.963a.384.384 0 0 1 .222-.5.394.394 0 0 1 .503.217.38.38 0 0 1-.224.498.353.353 0 0 1-.139.031.397.397 0 0 1-.362-.246zm44.8.56a.386.386 0 0 1 .13-.76.391.391 0 0 1 .32.446.393.393 0 0 1-.382.32c-.027 0-.049 0-.068-.007zm-44.206.875a.382.382 0 0 1 .203-.504.388.388 0 1 1 .31.71.388.388 0 0 1-.513-.207zm43.893.638a.387.387 0 1 1 .463-.299.383.383 0 0 1-.378.305c-.026 0-.056 0-.085-.006zm-43.265.783a.383.383 0 0 1 .197-.51.388.388 0 0 1 .512.196.382.382 0 0 1-.353.542.386.386 0 0 1-.356-.228zm42.892.717a.397.397 0 0 1-.279-.475.396.396 0 0 1 .479-.278c.206.057.329.268.278.474a.39.39 0 0 1-.38.287.767.767 0 0 1-.098-.008zm-42.26.693a.38.38 0 0 1 .196-.509.388.388 0 0 1 .513.196.383.383 0 0 1-.35.541.396.396 0 0 1-.359-.228zm41.836.788a.386.386 0 1 1 .22-.74c.204.061.318.278.263.478a.391.391 0 0 1-.483.262zm-41.216.619a.38.38 0 0 1 .205-.505.383.383 0 0 1 .506.206.38.38 0 0 1-.203.504c-.05.02-.1.03-.15.03a.383.383 0 0 1-.358-.235zm40.736.85a.385.385 0 0 1-.242-.49.382.382 0 0 1 .492-.242c.201.067.309.282.244.489v-.006a.396.396 0 0 1-.369.268c-.042 0-.084-.01-.125-.02zm-40.15.57a.392.392 0 0 1 .217-.505.391.391 0 0 1 .504.217.384.384 0 0 1-.358.53.394.394 0 0 1-.363-.242zm39.627.88a.383.383 0 0 1-.233-.492.392.392 0 0 1 .496-.234.396.396 0 0 1 .235.5.393.393 0 0 1-.364.253.374.374 0 0 1-.134-.026zm-39.083.55a.385.385 0 0 1 .233-.494.392.392 0 0 1 .497.238.38.38 0 0 1-.238.49.378.378 0 0 1-.492-.233zm38.518.887a.377.377 0 0 1-.218-.5.387.387 0 1 1 .72.284.39.39 0 0 1-.502.216zm-38.036.56a.382.382 0 0 1 .258-.478.385.385 0 1 1 .11.752.376.376 0 0 1-.368-.273zm37.43.861a.387.387 0 0 1-.207-.506.394.394 0 0 1 .511-.204.389.389 0 0 1 .203.509.389.389 0 0 1-.506.201zm-37.027.609a.395.395 0 0 1 .286-.469.387.387 0 0 1 .471.282.388.388 0 0 1-.285.469.394.394 0 0 1-.471-.282zm36.385.796a.382.382 0 0 1-.191-.51.392.392 0 0 1 .517-.19c.194.088.28.32.186.515h.008a.4.4 0 0 1-.36.222.355.355 0 0 1-.16-.037zm-36.057.69a.386.386 0 0 1 .31-.452.391.391 0 0 1 .456.309.393.393 0 0 1-.31.453c-.027 0-.052.004-.073.004a.388.388 0 0 1-.383-.314zm35.38.7a.382.382 0 0 1-.178-.515c.099-.19.326-.272.522-.18.192.098.27.33.178.52a.398.398 0 0 1-.35.217.455.455 0 0 1-.171-.042zm-35.148.8a.39.39 0 0 1 .772-.094.397.397 0 0 1-.34.433h-.048a.387.387 0 0 1-.384-.34zm34.405.658a.385.385 0 0 1-.146-.557l.018-.045h.004a.384.384 0 0 1 .523-.165.386.386 0 0 1 .14.562c-.006.009-.01.025-.017.039a.4.4 0 0 1-.345.207.445.445 0 0 1-.177-.041zm-34.28.85a.389.389 0 0 1 .373-.403c.212-.01.393.15.404.365a.388.388 0 0 1-.368.403c-.004.004-.015.004-.021.004a.392.392 0 0 1-.388-.37zm33.648.554a.383.383 0 0 1-.212-.503.39.39 0 0 1 .507-.207.385.385 0 1 1-.295.71zm-33.243 1.356a.39.39 0 0 1-.386-.392.395.395 0 0 1 .4-.381c.213.005.384.18.384.396a.396.396 0 0 1-.394.377h-.004zm32.775.118a.39.39 0 0 1-.272-.474.391.391 0 0 1 .476-.274.386.386 0 0 1 .275.475.385.385 0 0 1-.479.273zm-33.201 1.04c0-.218.17-.387.383-.387a.387.387 0 0 1 .395.38.392.392 0 0 1-.39.394h-.005a.386.386 0 0 1-.383-.387zm33.011.489a.39.39 0 0 1-.363-.414.386.386 0 0 1 .414-.353c.22.015.38.195.364.411a.387.387 0 0 1-.388.356h-.027zM146.884 39.8a.389.389 0 0 1 .353-.423c.211-.02.401.14.423.351h-.004a.383.383 0 0 1-.346.417c-.018.006-.028.006-.04.006-.2 0-.366-.15-.386-.35zm32.629.113a.38.38 0 0 1 .336-.426.386.386 0 1 1 .093.766c-.015 0-.033.005-.047.005a.384.384 0 0 1-.382-.345zm-32.407 1.447a.387.387 0 1 1 .451.308c-.025.005-.047.005-.072.005a.385.385 0 0 1-.379-.313zm32.634.092a.388.388 0 0 1 .326-.437.386.386 0 0 1 .445.324.391.391 0 0 1-.33.438c-.017 0-.037.006-.058.006a.393.393 0 0 1-.383-.331zm-32.266 1.44a.385.385 0 0 1 .263-.477.4.4 0 0 1 .484.262.391.391 0 0 1-.373.495.383.383 0 0 1-.374-.28zm32.407.047a.384.384 0 0 1 .376-.395.389.389 0 0 1 .4.375.387.387 0 0 1-.379.397h-.01a.383.383 0 0 1-.387-.377zm-31.894 1.447a.378.378 0 0 1 .216-.497.384.384 0 0 1 .505.215.379.379 0 0 1-.217.498.38.38 0 0 1-.142.032.388.388 0 0 1-.362-.248zm32.157.464a.383.383 0 0 1-.336-.426.384.384 0 0 1 .429-.34c.212.025.365.22.34.431h-.004a.387.387 0 0 1-.383.341c-.015 0-.03 0-.046-.006zm-31.505.973a.39.39 0 0 1 .695-.35.386.386 0 0 1-.348.562.393.393 0 0 1-.347-.212zm31.183.54a.385.385 0 1 1 .176-.75.38.38 0 0 1 .29.462.395.395 0 0 1-.379.299.387.387 0 0 1-.087-.011zm-30.395.829a.375.375 0 0 1 .12-.53.386.386 0 0 1 .533.12.383.383 0 0 1-.327.591.378.378 0 0 1-.326-.181zm29.94.645a.387.387 0 1 1 .118.02c-.04 0-.081-.01-.118-.02zm-29.04.652a.387.387 0 1 1 .618-.468.38.38 0 0 1-.073.54.394.394 0 0 1-.544-.072zm28.486.789a.387.387 0 0 1-.218-.5.384.384 0 0 1 .502-.217.38.38 0 0 1 .219.5.383.383 0 0 1-.358.242.341.341 0 0 1-.145-.025zm-27.47.421a.382.382 0 0 1 .026-.545.388.388 0 1 1 .522.57.392.392 0 0 1-.547-.025zm26.853.994a.384.384 0 0 1-.197-.51.384.384 0 0 1 .513-.195.382.382 0 0 1 .197.51.393.393 0 0 1-.513.195zm-25.744.13h-.005a.39.39 0 0 1-.015-.547.388.388 0 0 1 .548-.015.381.381 0 0 1-.265.664.37.37 0 0 1-.263-.102zm1.192 1.034a.386.386 0 1 1 .484-.603.381.381 0 0 1 .06.541.373.373 0 0 1-.301.144.388.388 0 0 1-.243-.082zm23.758.164a.382.382 0 0 1-.113-.535.386.386 0 1 1 .653.416.388.388 0 0 1-.54.119zm-22.494.777a.386.386 0 0 1-.099-.54.396.396 0 0 1 .543-.098.386.386 0 0 1 .095.541.384.384 0 0 1-.317.165.386.386 0 0 1-.222-.068zm21.496.397a.382.382 0 0 1-.026-.546.392.392 0 0 1 .55-.02.38.38 0 0 1 .023.544.38.38 0 0 1-.288.125.377.377 0 0 1-.259-.103zm-20.165.448a.378.378 0 0 1-.136-.529.387.387 0 1 1 .136.528zm18.978.551a.39.39 0 0 1 .068-.54.384.384 0 0 1 .544.066.387.387 0 1 1-.612.474zm-17.597.206a.385.385 0 0 1-.17-.52.39.39 0 0 1 .523-.17c.192.093.27.323.17.513a.385.385 0 0 1-.523.177zm1.435.653a.39.39 0 0 1-.208-.504.392.392 0 0 1 .51-.205.384.384 0 1 1-.15.739.366.366 0 0 1-.152-.03zm14.842-.056a.38.38 0 0 1 .142-.525.397.397 0 0 1 .532.149.384.384 0 0 1-.146.526.38.38 0 0 1-.527-.15zm-13.37.619a.38.38 0 0 1-.237-.49.386.386 0 0 1 .492-.243c.2.073.31.29.244.489a.39.39 0 0 1-.498.244zm11.945-.006a.38.38 0 0 1 .219-.5.393.393 0 0 1 .503.216.394.394 0 0 1-.219.505.39.39 0 0 1-.503-.221zm-10.433.462a.383.383 0 0 1-.273-.472.388.388 0 0 1 .474-.274c.21.057.335.268.276.475a.386.386 0 0 1-.372.288.37.37 0 0 1-.105-.017zm8.943-.03a.38.38 0 0 1 .279-.474.391.391 0 0 1 .47.279.384.384 0 0 1-.28.468.384.384 0 0 1-.47-.273zm-7.404.386h.006a.384.384 0 1 1 .142-.757c.214.037.35.243.308.448a.386.386 0 0 1-.377.314c-.027 0-.053 0-.08-.005zm5.87-.129a.39.39 0 0 1 .772-.108.39.39 0 0 1-.333.438c-.016 0-.036.005-.056.005a.391.391 0 0 1-.384-.335zm-4.307.372a.392.392 0 0 1-.34-.434.383.383 0 0 1 .43-.333c.216.02.368.215.343.425a.389.389 0 0 1-.385.342h-.048zm2.757-.257a.384.384 0 0 1 .373-.403.386.386 0 0 1 .405.365.388.388 0 0 1-.369.403h-.02a.39.39 0 0 1-.389-.365zm-1.176.374a.38.38 0 0 1-.372-.4.387.387 0 0 1 .399-.372h.006c.211.01.376.19.371.401a.391.391 0 0 1-.393.371h-.01z"/>
            <path d="M177.566.894a.385.385 0 0 1-.364-.404.379.379 0 0 1 .405-.366c.21.011.375.193.365.404a.387.387 0 0 1-.386.366h-.02zM175.66.547a.393.393 0 0 1 .359-.412.392.392 0 0 1 .413.362.386.386 0 0 1-.36.41h-.028a.388.388 0 0 1-.384-.36zm3.373.527v.005a.391.391 0 0 1-.301-.459.386.386 0 1 1 .755.156.387.387 0 0 1-.374.308c-.027 0-.052-.005-.08-.01zm-4.892-.315a.38.38 0 0 1 .318-.442.392.392 0 0 1 .441.323.392.392 0 0 1-.324.444h-.056a.374.374 0 0 1-.379-.325zm-1.507.33a.383.383 0 0 1 .28-.464h.009a.383.383 0 0 1 .463.29.393.393 0 0 1-.377.474.385.385 0 0 1-.375-.3zm7.808.406a.385.385 0 1 1 0 0zm-9.293.017a.388.388 0 0 1 .263-.48.39.39 0 0 1 .478.258.394.394 0 0 1-.257.486.44.44 0 0 1-.114.014.389.389 0 0 1-.37-.278zm10.573.67a.39.39 0 0 1-.104-.537.39.39 0 0 1 .541-.101c.173.122.214.36.096.54a.384.384 0 0 1-.533.097zm-12.026-.165a.385.385 0 1 1 .725-.262.388.388 0 0 1-.36.52.395.395 0 0 1-.365-.258zm-1.433.562a.38.38 0 0 1 .211-.5c.2-.082.42.015.504.212a.392.392 0 0 1-.216.505.385.385 0 0 1-.499-.217zm14.553.556a.388.388 0 0 1 .02-.545c.154-.144.401-.14.544.02a.388.388 0 0 1-.02.547.398.398 0 0 1-.262.102.37.37 0 0 1-.282-.124zm-15.964.063c-.09-.19 0-.423.195-.51.194-.088.42 0 .508.196a.385.385 0 0 1-.2.51.378.378 0 0 1-.503-.196zm-19.414.367a.385.385 0 1 1 .771-.012.384.384 0 0 1-.379.392h-.006a.389.389 0 0 1-.386-.38zm1.862.499a.393.393 0 0 1-.326-.443.386.386 0 1 1 .38.448c-.02 0-.04 0-.054-.005zm16.159-.2a.387.387 0 0 1 .179-.516.379.379 0 0 1 .513.18.385.385 0 0 1-.175.516h-.004a.375.375 0 0 1-.164.036.383.383 0 0 1-.35-.217zm-19.53-.011a.387.387 0 0 1 .278-.47.383.383 0 0 1 .466.28.388.388 0 0 1-.277.468.313.313 0 0 1-.092.015.39.39 0 0 1-.375-.293zm4.838.526a.388.388 0 0 1-.278-.47.39.39 0 0 1 .47-.279.388.388 0 0 1 .276.47.389.389 0 0 1-.374.295.336.336 0 0 1-.094-.016zm32.917-.073a.388.388 0 0 1 .135-.53.39.39 0 0 1 .527.134.393.393 0 0 1-.133.532.38.38 0 0 1-.529-.135zm-19.644.154a.384.384 0 0 1 .217-.498.378.378 0 0 1 .499.216.38.38 0 0 1-.355.525.39.39 0 0 1-.361-.243zm-19.508.049a.394.394 0 0 1 .16-.527.39.39 0 0 1 .523.159.39.39 0 0 1-.16.521.393.393 0 0 1-.524-.154zm7.716.277a.387.387 0 0 1-.267-.48.381.381 0 0 1 .47-.268.39.39 0 0 1 .268.48.378.378 0 0 1-.369.278.593.593 0 0 1-.102-.01zm1.49.408a.39.39 0 0 1-.28-.47.385.385 0 0 1 .475-.278.386.386 0 0 1 .276.47.387.387 0 0 1-.374.288c-.032 0-.062 0-.097-.01zm8.838-.253a.384.384 0 0 1 .258-.48.388.388 0 0 1 .484.26.387.387 0 0 1-.742.22zm-7.313.603a.384.384 0 0 1-.303-.454.377.377 0 0 1 .45-.304.385.385 0 1 1-.075.763c-.026 0-.048 0-.072-.005zm-11.965-.114a.388.388 0 0 1 .602-.486.388.388 0 0 1-.303.632.4.4 0 0 1-.299-.146zm17.778-.148a.387.387 0 0 1 .296-.455.386.386 0 1 1 .157.758c-.026.005-.051.005-.076.005a.38.38 0 0 1-.377-.308zm-4.263.505a.39.39 0 0 1-.34-.428.385.385 0 1 1 .766.087.384.384 0 0 1-.384.34h-.042zm2.731-.32a.386.386 0 1 1 .423.35h-.036a.394.394 0 0 1-.387-.35zm-1.16.417a.394.394 0 0 1-.38-.39.387.387 0 0 1 .39-.383c.212 0 .388.174.38.388a.383.383 0 0 1-.382.385h-.007zm25.935-.248h.007a.383.383 0 1 1 .714-.277.386.386 0 0 1-.222.499.389.389 0 0 1-.499-.222zm-42.087.902a.383.383 0 0 1-.038-.545.382.382 0 0 1 .546-.031.385.385 0 0 1-.259.674.362.362 0 0 1-.25-.098zm42.525.527a.378.378 0 0 1 .288-.464.38.38 0 0 1 .46.283.392.392 0 0 1-.287.47c-.03.005-.054.01-.087.01a.388.388 0 0 1-.374-.299zm-43.333.789a.386.386 0 0 1-.165-.52.39.39 0 0 1 .525-.165.395.395 0 0 1 .159.525.38.38 0 0 1-.519.16zm43.594.69a.39.39 0 0 1 .336-.432.39.39 0 0 1 .43.334.39.39 0 0 1-.333.434c-.021 0-.036.004-.052.004a.384.384 0 0 1-.38-.34zm-43.984.804a.384.384 0 0 1-.313-.448.385.385 0 1 1 .76.134.39.39 0 0 1-.381.32c-.02 0-.047 0-.066-.006zm44.103.702a.385.385 0 0 1 .368-.403.395.395 0 0 1 .403.373.387.387 0 0 1-.37.402h-.016a.384.384 0 0 1-.385-.372zm-44.463.5a.385.385 0 0 1 .343-.427.38.38 0 0 1 .423.34.39.39 0 0 1-.34.427h-.04a.39.39 0 0 1-.386-.34zm44.838 1.417a.383.383 0 0 1-.375-.395.389.389 0 0 1 .402-.377c.21.005.374.185.369.397a.382.382 0 0 1-.38.375h-.016zm-44.495.162a.391.391 0 0 1 .253-.485.377.377 0 0 1 .483.251.388.388 0 0 1-.248.486.46.46 0 0 1-.116.015.392.392 0 0 1-.372-.267zm44.376 1.38a.389.389 0 0 1 .07-.772c.212.02.368.21.354.423a.392.392 0 0 1-.387.349h-.037zm-43.794.099a.387.387 0 0 1 .19-.512.392.392 0 0 1 .515.192.391.391 0 0 1-.355.547.387.387 0 0 1-.35-.227zm43.6 1.434a.389.389 0 0 1-.33-.434.386.386 0 1 1 .767.103.393.393 0 0 1-.379.336c-.022 0-.044 0-.058-.005zm-42.89-.026a.386.386 0 1 1 .679-.371.39.39 0 0 1-.157.525.383.383 0 0 1-.522-.154zm.775 1.351a.39.39 0 0 1 .133-.533.391.391 0 0 1 .529.136.39.39 0 0 1-.334.587.38.38 0 0 1-.328-.19zm41.853.2a.387.387 0 0 1 .138-.763.385.385 0 0 1 .308.454.382.382 0 0 1-.38.313c-.02 0-.046-.004-.066-.004zM143.89 17.69a.384.384 0 0 1 .652-.408.392.392 0 0 1-.123.537.41.41 0 0 1-.2.057.387.387 0 0 1-.33-.186zm40.724.387a.385.385 0 0 1-.288-.46.378.378 0 0 1 .456-.293.38.38 0 0 1 .293.46.382.382 0 0 1-.46.293zm-39.915.928a.389.389 0 0 1 .126-.531.385.385 0 1 1 .406.655.368.368 0 0 1-.2.062.388.388 0 0 1-.332-.186zm39.55.571a.388.388 0 0 1-.28-.468.386.386 0 0 1 .747.19.384.384 0 0 1-.37.295.31.31 0 0 1-.097-.017zm-38.746.744a.38.38 0 0 1 .128-.526.383.383 0 0 1 .53.129.388.388 0 0 1-.33.587.373.373 0 0 1-.328-.19zm38.333.746a.391.391 0 0 1-.266-.478.381.381 0 0 1 .478-.263.387.387 0 0 1 .268.474.396.396 0 0 1-.375.284.347.347 0 0 1-.105-.017zm-37.562.585a.388.388 0 0 1 .144-.528.38.38 0 0 1 .523.145.382.382 0 0 1-.145.526.339.339 0 0 1-.189.052.387.387 0 0 1-.333-.195zm37.106.89a.379.379 0 0 1-.245-.484.384.384 0 0 1 .477-.253.391.391 0 0 1 .256.485.39.39 0 0 1-.368.273.316.316 0 0 1-.12-.02zm-36.377.455a.387.387 0 0 1 .164-.522.378.378 0 0 1 .52.16.389.389 0 0 1-.34.568.398.398 0 0 1-.344-.206zm35.89 1.015a.383.383 0 0 1-.238-.49.384.384 0 1 1 .729.248.387.387 0 0 1-.491.242zm-35.213.351a.388.388 0 0 1 .186-.51.38.38 0 0 1 .513.185.386.386 0 1 1-.699.325zm34.693 1.104a.387.387 0 0 1-.232-.496h.007a.383.383 0 0 1 .492-.232.38.38 0 0 1 .228.496.382.382 0 0 1-.361.258.437.437 0 0 1-.134-.026zm-34.076.293a.377.377 0 0 1 .21-.5.378.378 0 0 1 .5.211h.004a.385.385 0 0 1-.217.5.365.365 0 0 1-.143.032.377.377 0 0 1-.354-.243zm33.527 1.15a.389.389 0 0 1-.222-.5.386.386 0 1 1 .222.5zm-32.998.277a.388.388 0 0 1 .241-.49.38.38 0 0 1 .488.239.388.388 0 0 1-.364.515.39.39 0 0 1-.365-.264zm32.422 1.156a.382.382 0 0 1-.208-.505.38.38 0 0 1 .495-.212c.2.083.294.31.212.506a.382.382 0 0 1-.354.244.382.382 0 0 1-.145-.033zm-31.975.3a.384.384 0 1 1 .74-.203.383.383 0 0 1-.273.476.635.635 0 0 1-.097.009.383.383 0 0 1-.37-.283zm31.37 1.124a.393.393 0 0 1-.2-.51.382.382 0 0 1 .503-.202.387.387 0 1 1-.304.712zm-31.032.351a.392.392 0 0 1 .304-.456c.21-.039.415.098.452.311a.383.383 0 0 1-.304.453c-.026.006-.045.006-.07.006a.39.39 0 0 1-.382-.314zm30.405 1.061a.385.385 0 0 1-.19-.51.385.385 0 1 1 .704.314.396.396 0 0 1-.355.233.474.474 0 0 1-.16-.037zm-30.167.437a.386.386 0 0 1 .333-.432.391.391 0 0 1 .432.34.393.393 0 0 1-.338.43c-.02.004-.033.004-.048.004a.383.383 0 0 1-.379-.342zm29.472 1.064a.394.394 0 0 1-.182-.515c.009-.016.014-.033.024-.047.004-.016.014-.037.02-.051a.393.393 0 0 1 .515-.186.394.394 0 0 1 .16.562c-.008.016-.012.03-.022.05a.386.386 0 0 1-.515.187zm-29.357.444a.39.39 0 0 1 .373-.403c.21-.005.39.161.402.372a.393.393 0 0 1-.372.402h-.015a.386.386 0 0 1-.388-.37zm28.86 1.015a.382.382 0 0 1-.257-.479h-.007a.388.388 0 0 1 .485-.263c.2.06.317.278.256.48v.004a.379.379 0 0 1-.477.258zm-28.487.902a.392.392 0 0 1-.373-.4.394.394 0 0 1 .403-.374.39.39 0 0 1 .372.403.388.388 0 0 1-.387.37h-.015zm28.288.63a.381.381 0 0 1-.355-.413.377.377 0 0 1 .409-.362.387.387 0 0 1 .354.418.386.386 0 0 1-.382.358h-.026zm-28.429.908a.387.387 0 0 1-.344-.423.394.394 0 0 1 .428-.346c.209.025.365.215.339.427a.385.385 0 0 1-.38.345c-.015 0-.031 0-.043-.003zm28.155.308a.38.38 0 0 1 .313-.443.387.387 0 0 1 .45.314h-.007a.38.38 0 0 1-.31.443.29.29 0 0 1-.065.01.386.386 0 0 1-.38-.324zm-28.236 1.237a.392.392 0 0 1-.375-.4h.005a.38.38 0 0 1 .396-.372c.21.004.38.185.368.397a.38.38 0 0 1-.383.375h-.01zm28.673.319a.388.388 0 0 1 .22-.498.389.389 0 0 1 .5.225.39.39 0 0 1-.228.502.406.406 0 0 1-.132.02.377.377 0 0 1-.36-.25zm-29.037.856a.386.386 0 0 1 .77-.034.39.39 0 0 1-.364.406h-.023a.389.389 0 0 1-.383-.372zm29.655.588a.39.39 0 0 1 .187-.515.382.382 0 0 1 .509.192.386.386 0 0 1-.183.515.462.462 0 0 1-.166.035.388.388 0 0 1-.347-.227zm-29.52.98a.39.39 0 0 1 .331-.432.39.39 0 0 1 .433.334.39.39 0 0 1-.334.434c-.015.004-.03.004-.046.004a.391.391 0 0 1-.385-.34zm30.15.418a.392.392 0 0 1 .202-.511.39.39 0 0 1 .508.208.387.387 0 0 1-.355.535.39.39 0 0 1-.354-.232zm-29.891 1.14a.393.393 0 0 1 .3-.46c.21-.045.41.09.456.3a.386.386 0 0 1-.298.458c-.025.006-.05.006-.078.006a.393.393 0 0 1-.38-.303zm30.424.268h-.003a.393.393 0 0 1 .253-.486.384.384 0 0 1 .48.253.38.38 0 0 1-.245.484.305.305 0 0 1-.12.021.388.388 0 0 1-.365-.272zm-30.033 1.256a.393.393 0 0 1 .257-.483.395.395 0 0 1 .484.262.388.388 0 0 1-.37.497.393.393 0 0 1-.371-.276zm30.382.192a.387.387 0 0 1 .761-.127.387.387 0 0 1-.312.443c-.02.004-.046.004-.068.004a.386.386 0 0 1-.38-.32zM151.05 45.44a.392.392 0 0 1 .222-.505.382.382 0 0 1 .496.223.387.387 0 0 1-.214.5.391.391 0 0 1-.504-.217zm30.018.187a.388.388 0 0 1 .375-.402.387.387 0 0 1 .022.773h-.01a.388.388 0 0 1-.387-.371zm-29.38 1.252a.382.382 0 0 1 .178-.515.376.376 0 0 1 .515.175.385.385 0 0 1-.175.515.402.402 0 0 1-.17.042.389.389 0 0 1-.348-.217zm29.673.661a.385.385 0 0 1-.344-.423.384.384 0 0 1 .422-.346.38.38 0 0 1 .344.423.381.381 0 0 1-.379.35c-.018 0-.027-.004-.043-.004zm-28.918.721a.387.387 0 0 1 .133-.53.39.39 0 0 1 .53.131.395.395 0 0 1-.134.534.412.412 0 0 1-.2.055.379.379 0 0 1-.329-.19zm28.65.799a.385.385 0 0 1-.297-.452.388.388 0 0 1 .452-.306c.21.047.344.246.303.458a.39.39 0 0 1-.379.31c-.026 0-.051 0-.079-.01zm-27.789.52a.395.395 0 0 1 .089-.542.39.39 0 0 1 .54.094.386.386 0 0 1-.315.609.379.379 0 0 1-.314-.162zm27.395.974a.378.378 0 0 1-.261-.478.38.38 0 0 1 .478-.264.391.391 0 0 1 .261.48.39.39 0 0 1-.37.28.364.364 0 0 1-.108-.018zm-26.434.269a.382.382 0 0 1 .046-.541.383.383 0 1 1 .493.587.37.37 0 0 1-.539-.046zm25.93 1.191a.38.38 0 0 1-.225-.494h-.006a.391.391 0 0 1 .499-.233c.194.077.3.298.226.501a.386.386 0 0 1-.358.252.387.387 0 0 1-.136-.026zm-24.882-.025a.386.386 0 0 1 .555-.537c.15.15.144.397-.005.546a.394.394 0 0 1-.271.109.401.401 0 0 1-.279-.118zm1.135 1.086a.387.387 0 0 1 .515-.576c.16.14.168.38.03.546a.391.391 0 0 1-.288.129.378.378 0 0 1-.257-.099zm23.069.325a.391.391 0 0 1-.159-.525.387.387 0 1 1 .34.572.37.37 0 0 1-.181-.047zm-21.862.676a.387.387 0 0 1 .47-.614c.168.13.199.371.07.542a.387.387 0 0 1-.303.148.413.413 0 0 1-.237-.076zm20.97.584a.38.38 0 0 1-.067-.541.375.375 0 0 1 .537-.068.391.391 0 0 1 .068.54.39.39 0 0 1-.302.15.354.354 0 0 1-.236-.08zm-19.695.329a.386.386 0 1 1 .535-.107.388.388 0 0 1-.535.107zm1.334.821a.389.389 0 0 1-.142-.527.382.382 0 0 1 .524-.145c.186.105.251.34.148.526a.399.399 0 0 1-.34.196.403.403 0 0 1-.19-.05zm17.266-.064a.39.39 0 0 1 .025-.546.389.389 0 0 1 .545.026.385.385 0 0 1-.025.546.38.38 0 0 1-.257.105.393.393 0 0 1-.288-.13zm-15.87.791a.388.388 0 0 1-.182-.517.383.383 0 0 1 .513-.18.39.39 0 0 1-.17.737.365.365 0 0 1-.162-.04zm14.61.103a.394.394 0 0 1 .118-.536.388.388 0 0 1 .536.118.383.383 0 0 1-.119.53.394.394 0 0 1-.211.062.4.4 0 0 1-.325-.174zm-13.173.524a.383.383 0 0 1-.222-.5c.081-.199.302-.299.503-.22a.387.387 0 1 1-.281.72zm11.793.157a.393.393 0 0 1 .2-.512c.19-.088.42 0 .503.196a.387.387 0 0 1-.195.512.427.427 0 0 1-.155.03.383.383 0 0 1-.353-.226zm-10.316.366a.39.39 0 0 1-.256-.487.39.39 0 0 1 .483-.25c.205.06.32.278.257.482a.389.389 0 0 1-.37.274.297.297 0 0 1-.114-.02zm8.851.107a.39.39 0 0 1 .267-.48.387.387 0 1 1 .104.758.38.38 0 0 1-.37-.278zm-7.337.304a.391.391 0 0 1-.292-.464.386.386 0 0 1 .463-.288.388.388 0 0 1 .295.458.39.39 0 0 1-.466.294zm1.548.29a.388.388 0 0 1 .108-.769c.21.03.355.226.329.438a.391.391 0 0 1-.386.335c-.015 0-.039-.004-.05-.004zm4.274-.316a.384.384 0 0 1 .321-.438.386.386 0 0 1 .445.32.394.394 0 0 1-.324.444c-.024.006-.04.006-.063.006a.39.39 0 0 1-.379-.332zm-2.707.47a.38.38 0 0 1-.364-.408.384.384 0 0 1 .405-.366.388.388 0 0 1-.026.774h-.015zm1.576.01a.378.378 0 0 1-.399-.37.383.383 0 1 1 .765-.032.387.387 0 0 1-.366.402z"/>
        </g>
    </g>
</svg>
