<svg xmlns="http://www.w3.org/2000/svg" width="215" height="24" viewBox="0 0 215 24">
    <defs>
        <linearGradient id="a" x1="0%" y1="49.5%" y2="49.5%">
            <stop offset="0%" stop-color="#323232" stop-opacity="0"/>
            <stop offset="7.317%" stop-color="#323232" stop-opacity=".146"/>
            <stop offset="50%" stop-color="#323232"/>
            <stop offset="92.68%" stop-color="#323232" stop-opacity=".146"/>
            <stop offset="100%" stop-color="#323232" stop-opacity="0"/>
        </linearGradient>
    </defs>
    <g fill="none" fill-rule="nonzero" opacity=".7">
        <path fill="#323232" d="M16.386.166h2.07V17.13h-2.07V8.938h-5.793v8.193H8.524V.166h2.07v6.951h5.792V.166zM29.71 10.759c0 3.558-.91 6.703-4.551 6.703-3.642 0-4.552-3.145-4.552-6.703 0-3.559.91-6.704 4.552-6.704 3.641 0 4.551 3.145 4.551 6.704zm-2.069 0c0-2.731-.413-5.131-2.565-5.131-1.986 0-2.483 2.4-2.483 5.13 0 2.732.414 5.132 2.483 5.132 2.152 0 2.565-2.4 2.565-5.131zM34.262.662h-1.986v3.724h-1.82V5.96h1.82v8.772c0 1.655.496 2.483 2.565 2.483.828 0 1.325-.083 1.656-.166v-1.655c-.249 0-.414.083-.91.083-1.077 0-1.325-.414-1.325-1.407V5.876h2.235V4.303h-2.235V.663zM46.18 10.18v.828h-6.703c0 1.986 0 4.883 2.483 4.883 1.903 0 2.151-1.987 2.151-2.98h1.987c0 1.324-.828 4.552-4.304 4.552-3.145 0-4.386-2.152-4.386-6.538 0-3.145.58-6.869 4.552-6.869 3.89 0 4.22 3.393 4.22 6.124zM44.11 8.772c0-1.406-.413-3.144-2.234-3.144-2.07 0-2.317 2.565-2.317 3.31v.496h4.551v-.662zm4.387 8.359h1.986V.166h-1.986V17.13zm9.434-7.283c-1.572-.496-3.145-.827-3.145-2.317 0-1.82 1.407-1.986 2.07-1.986 1.489 0 1.903.91 1.903 2.483h1.986c0-1.49-.166-4.056-3.89-4.056-2.234 0-4.055 1.159-4.055 3.476 0 2.649 1.572 3.062 3.145 3.642 1.572.496 3.145.91 3.145 2.565 0 1.82-1.49 2.152-2.152 2.152-1.986 0-2.4-1.407-2.4-2.98h-1.986c0 1.325.082 4.552 4.386 4.552 2.4 0 4.138-1.324 4.138-3.972-.083-2.483-1.655-2.98-3.145-3.559zM70.759.166h-2.07V17.13h8.939v-1.82h-6.87V.165zm8.524 16.965h1.986V4.386h-1.986v12.745zm0-14.648h1.986V.166h-1.986v2.317zm8.772 3.145c1.49 0 1.986 1.406 1.986 2.648h1.987c0-1.49-.58-4.22-4.056-4.22-3.89 0-4.551 3.64-4.551 6.868 0 4.386 1.324 6.538 4.386 6.538 3.145 0 4.22-2.731 4.22-4.717h-1.986c0 1.407-.413 3.145-2.069 3.145-2.4 0-2.4-3.31-2.4-4.966 0-4.634 1.242-5.296 2.483-5.296zm14.4 4.551v.828h-6.703c0 1.986 0 4.883 2.482 4.883 1.904 0 2.152-1.987 2.152-2.98h1.986c0 1.324-.827 4.552-4.303 4.552-3.145 0-4.386-2.152-4.386-6.538 0-3.145.58-6.869 4.551-6.869 3.89 0 4.221 3.393 4.221 6.124zm-2.069-1.407c0-1.406-.414-3.144-2.234-3.144-2.07 0-2.318 2.565-2.318 3.31v.496h4.552v-.662zm9.352-4.717c-1.241 0-2.566.662-3.062 1.82h-.083V4.387h-1.903v12.745h1.986V8.359c0-1.821 1.49-2.566 2.483-2.566 1.82 0 1.903 1.573 1.903 2.566v8.772h1.986v-9.02c0-1.49 0-4.056-3.31-4.056zm10.593 5.793c-1.572-.496-3.145-.827-3.145-2.317 0-1.82 1.407-1.986 2.07-1.986 1.489 0 1.903.91 1.903 2.483h1.986c0-1.49-.166-4.056-3.89-4.056-2.234 0-4.055 1.159-4.055 3.476 0 2.649 1.572 3.062 3.145 3.642 1.572.496 3.145.91 3.145 2.565 0 1.82-1.49 2.152-2.152 2.152-1.986 0-2.4-1.407-2.4-2.98h-1.986c0 1.325.082 4.552 4.386 4.552 2.4 0 4.138-1.324 4.138-3.972-.083-2.483-1.655-2.98-3.145-3.559zm5.131-7.365h1.986V.166h-1.986v2.317zm0 14.648h1.986V4.386h-1.986v12.745zm9.766-13.076c-1.242 0-2.566.662-3.062 1.82h-.083V4.387h-1.904v12.745h1.987V8.359c0-1.821 1.49-2.566 2.482-2.566 1.821 0 1.904 1.573 1.904 2.566v8.772h1.986v-9.02c0-1.49 0-4.056-3.31-4.056zm12.413.331h1.904v11.917c0 3.807-1.738 5.214-4.304 5.214-.744 0-3.807 0-4.22-3.145h1.986c.083 1.159.993 1.656 2.069 1.656 2.565 0 2.483-1.987 2.483-2.814v-1.655h-.083c-.414 1.075-1.655 1.738-2.897 1.738-3.724 0-3.972-4.718-3.972-6.373 0-3.476.91-6.703 4.138-6.703 1.407 0 2.483.91 2.73 1.986h.084v-1.82h.082zm0 6.373c0-2.483-.413-4.966-2.565-4.966-1.82 0-2.317 1.986-2.317 4.966 0 2.069.33 4.634 2.317 4.634 2.152 0 2.565-1.986 2.565-4.634zM168 12.249c0 3.475-1.986 4.882-5.462 4.882h-4.635V.166h5.214c2.235 0 4.386 1.075 4.386 4.386 0 1.572-.91 3.062-2.482 3.558v.083c2.069.414 2.979 1.986 2.979 4.055zm-7.945-4.718h2.4c.91 0 2.897-.248 2.897-2.814 0-1.738-.91-2.814-2.897-2.814h-2.317v5.628h-.083zm5.793 4.717c0-2.317-1.49-3.227-3.31-3.227h-2.483v6.372h2.814c2.234 0 2.98-1.49 2.98-3.145zm12.91-1.49c0 3.56-.91 6.704-4.551 6.704s-4.552-3.145-4.552-6.703c0-3.559.91-6.704 4.552-6.704 3.641 0 4.552 3.145 4.552 6.704zm-2.068 0c0-2.73-.414-5.13-2.566-5.13-1.986 0-2.483 2.4-2.483 5.13 0 2.732.414 5.132 2.483 5.132 2.07 0 2.566-2.4 2.566-5.131zm12.496 5.132c.248 0 .414-.083.497-.083v1.407c-.166 0-.662.083-1.159.083-.745 0-1.738 0-1.82-1.656h-.083c-.662 1.159-1.904 1.821-3.062 1.821-2.4 0-3.476-1.407-3.476-3.724 0-1.82.745-2.98 2.4-3.476l2.648-.828c1.49-.413 1.49-.827 1.49-1.903 0-1.159-.745-1.903-2.07-1.903-2.151 0-2.151 2.069-2.151 2.482v.166h-1.986c0-2.897 1.241-4.22 4.303-4.22 3.89 0 3.89 2.316 3.89 3.64v7.118c0 .58 0 1.076.58 1.076zm-2.565-5.71c-.745.744-2.483.91-3.393 1.489-.662.414-.994.91-.994 1.986 0 1.324.414 2.152 1.821 2.152 1.324 0 2.566-1.076 2.566-2.4v-3.228zm6.703-3.89l-.083-1.904h-1.986v12.745h1.986V9.103c0-2.151 1.656-2.979 2.649-2.979.662 0 .91.083 1.076.083V4.22c-.166-.083-.497-.166-.91-.166-1.408 0-2.153 1.076-2.732 2.235zM206.731.166V17.13h-1.903v-1.572h-.083c-.248.91-1.407 1.903-2.731 1.903-2.98 0-4.138-2.648-4.138-6.703 0-2.649.414-6.704 4.055-6.704 1.159 0 2.317.662 2.814 1.82h.083V.166h1.903zm-1.903 10.593c0-2.483-.414-4.966-2.566-4.966-1.82 0-2.317 1.986-2.317 4.966 0 2.979.496 4.965 2.317 4.965 2.235 0 2.566-2.069 2.566-4.965z"/>
        <path fill="url(#a)" d="M0 23.007h215.172v1H0z"/>
    </g>
</svg>
