<svg width="300" height="300" viewBox="0 0 300 300" fill="none" xmlns="http://www.w3.org/2000/svg">
<path d="M75.6434 224.352C76.5028 225.21 77.8933 225.21 78.7516 224.352L104.504 198.6L105.791 199.885C107.234 201.329 109.418 201.837 111.354 201.171L118.741 198.629C122.565 201.331 127.913 200.997 131.374 197.538L191.302 137.609L192.152 138.46C194.352 140.658 197.931 140.659 200.131 138.46L202.092 136.498C204.291 134.299 204.291 130.72 202.092 128.519C201.738 128.166 199.326 125.753 196.003 122.432L200.75 117.684C201.609 116.827 201.609 115.435 200.75 114.577C199.892 113.719 198.501 113.719 197.643 114.577L192.896 119.324C189.116 115.544 184.753 111.18 180.974 107.402L197.132 91.2424C201.256 95.3669 206.39 100.501 209.055 103.165L204.894 107.326C204.036 108.184 204.036 109.576 204.894 110.433C205.753 111.291 207.144 111.291 208.001 110.433L212.163 106.273L213.411 107.522C215.616 109.726 219.185 109.726 221.39 107.522L223.35 105.56C225.55 103.361 225.55 99.782 223.35 97.5813L217.085 91.3157C216.226 90.4585 214.836 90.4585 213.978 91.3168C213.119 92.1751 213.119 93.5656 213.978 94.4239L220.243 100.688C220.728 101.175 220.73 101.967 220.243 102.453L218.282 104.413C217.796 104.9 217.005 104.9 216.519 104.413L195.883 83.7786C195.397 83.2922 195.398 82.5014 195.883 82.015L197.845 80.0535C198.331 79.5671 199.119 79.566 199.608 80.0547L206.727 87.1729C207.585 88.0301 208.975 88.0312 209.834 87.1718C210.692 86.3146 210.692 84.923 209.834 84.0647L202.717 76.9464C200.511 74.7412 196.942 74.7412 194.738 76.9464L192.776 78.9068C190.577 81.1075 190.577 84.6861 192.776 86.8857L194.025 88.1342L177.866 104.293C174.502 100.929 172.075 98.5014 171.779 98.205C169.573 96.0009 166.005 95.9998 163.8 98.205L161.839 100.165C159.634 102.371 159.634 105.94 161.839 108.144L162.688 108.995C160.45 111.233 105.65 166.033 102.76 168.923C99.1896 172.495 98.9974 177.998 101.828 181.778L99.3018 189.118C98.6369 191.052 99.1416 193.236 100.587 194.682L101.397 195.491L75.6434 221.244C74.7862 222.102 74.7862 223.493 75.6434 224.352ZM164.946 103.275L166.907 101.313C167.394 100.826 168.183 100.827 168.67 101.313C169.826 102.469 196.562 129.205 198.985 131.628C199.47 132.114 199.471 132.905 198.985 133.391L197.023 135.351C196.538 135.838 195.746 135.838 195.26 135.351C194.382 134.474 166.613 106.705 164.945 105.037C164.459 104.551 164.458 103.761 164.946 103.275ZM165.796 112.103L188.195 134.502L184.47 138.226L162.072 115.828L165.796 112.103ZM105.868 172.031L158.965 118.935L181.363 141.333L176.312 146.385L172.422 142.495C171.563 141.635 170.172 141.637 169.315 142.494C168.456 143.352 168.456 144.744 169.313 145.602L173.204 149.492L167.961 154.736L164.071 150.845C163.213 149.986 161.821 149.986 160.964 150.845C160.104 151.703 160.104 153.094 160.963 153.952L164.854 157.843L159.61 163.086L155.72 159.196C154.862 158.338 153.47 158.338 152.612 159.195C151.754 160.054 151.754 161.445 152.612 162.304L156.502 166.195L151.259 171.437L147.368 167.547C146.511 166.689 145.119 166.688 144.261 167.546C143.403 168.404 143.403 169.796 144.261 170.654L148.151 174.544L142.908 179.788L139.017 175.897C138.16 175.04 136.769 175.039 135.91 175.897C135.052 176.755 135.052 178.147 135.91 179.004L139.8 182.895L134.557 188.139L130.667 184.248C129.808 183.389 128.417 183.39 127.56 184.248C126.701 185.106 126.701 186.498 127.56 187.356L131.449 191.246L128.266 194.429C126.135 196.56 122.686 196.564 120.551 194.433L105.868 179.749C103.735 177.617 103.735 174.164 105.868 172.031ZM103.457 190.548L105.247 185.344L115.128 195.225L109.924 197.015C109.567 197.137 109.164 197.044 108.898 196.778C104.353 192.232 106.892 194.772 103.694 191.574C103.429 191.308 103.335 190.905 103.457 190.548Z" fill="#276EF1"/>
</svg>
