<svg width="300" height="300" viewBox="0 0 300 300" fill="none" xmlns="http://www.w3.org/2000/svg">
<path d="M223.192 122.946L222.697 122.097C220.625 118.544 217.102 116.179 213.029 115.608C210.011 115.185 207.013 115.793 204.453 117.294C203.926 116.495 203.17 115.863 202.258 115.495C198.54 113.996 194.729 112.647 190.929 111.483C189.783 111.131 188.568 111.776 188.216 112.923C187.864 114.07 188.51 115.285 189.656 115.636C193.338 116.764 197.032 118.072 200.635 119.524C200.754 119.572 200.849 119.675 200.888 119.798C201.415 121.484 201.897 123.158 202.343 124.822C169.234 118.742 134.038 118.829 97.6144 125.083C98.1328 123.336 98.7027 121.593 99.3253 119.859C99.3679 119.74 99.4666 119.643 99.5897 119.599C113.643 114.53 127.584 111.424 141.024 110.365C154.436 109.309 167.736 110.262 180.551 113.2C181.721 113.467 182.886 112.737 183.154 111.568C183.422 110.399 182.691 109.234 181.522 108.966C155.046 102.898 126.984 105.1 98.1154 115.513C97.1183 115.872 96.286 116.542 95.7245 117.409C93.1266 115.828 90.0601 115.175 86.9705 115.608C82.898 116.18 79.3743 118.545 77.3028 122.098L76.8076 122.947C74.6989 126.565 74.4171 131.025 76.0547 134.878C76.0547 134.878 93.4069 175.702 93.4298 175.747C93.98 177.582 94.587 179.413 95.2545 181.238C95.7216 182.515 96.7158 183.535 97.9825 184.037C115.279 190.898 132.828 194.377 150.145 194.377H150.158C167.478 194.375 185.032 190.893 202.333 184.027C203.571 183.535 204.555 182.543 205.03 181.306C206.04 178.678 206.902 176.001 207.628 173.279L223.944 134.879C225.582 131.025 225.301 126.565 223.192 122.946V122.946ZM203.952 170.09C175.001 175.708 146.841 176.814 117.902 173.465C116.711 173.326 115.633 174.181 115.495 175.372C115.357 176.564 116.211 177.642 117.403 177.78C128.433 179.057 139.345 179.696 150.236 179.696C167.676 179.696 185.052 178.044 202.697 174.745C202.182 176.433 201.609 178.101 200.976 179.747C200.935 179.854 200.843 179.945 200.731 179.989C183.942 186.652 166.927 190.031 150.158 190.033C150.152 190.033 150.15 190.033 150.145 190.033C133.38 190.033 116.368 186.657 99.5845 180C99.4692 179.954 99.3757 179.859 99.3345 179.747C98.7339 178.104 98.1878 176.457 97.6868 174.807C101.147 175.449 104.626 176.038 108.077 176.551C108.185 176.567 108.293 176.575 108.399 176.575C109.457 176.575 110.384 175.8 110.545 174.722C110.721 173.535 109.902 172.431 108.716 172.255C104.627 171.647 100.495 170.936 96.4074 170.148C95.0666 164.701 94.267 159.226 94.0093 153.752H159.039C160.239 153.752 161.211 152.78 161.211 151.58C161.211 150.38 160.239 149.408 159.039 149.408H93.9178C93.9291 147.369 94.009 145.331 94.1717 143.296C94.2673 142.101 93.3757 141.054 92.1799 140.958C90.9805 140.866 89.9374 141.754 89.8415 142.95C89.4914 147.324 89.4749 151.711 89.7891 156.095L80.0528 133.18C78.9486 130.582 79.1386 127.574 80.5607 125.135L81.0559 124.286C82.4523 121.891 84.8281 120.296 87.5743 119.91C89.935 119.581 92.2741 120.185 94.1558 121.576C92.8808 125.53 91.8579 129.515 91.1143 133.466C90.8921 134.644 91.6677 135.78 92.8466 136.002C92.9824 136.028 93.1176 136.04 93.2508 136.04C94.2745 136.04 95.1865 135.312 95.3825 134.269C95.6681 132.753 96.0008 131.231 96.3703 129.708C133.704 123.074 169.727 122.988 203.489 129.452C205.039 136.308 205.894 142.966 206.046 149.409H169.078C167.878 149.409 166.906 150.381 166.906 151.581C166.906 152.781 167.878 153.753 169.078 153.753H206.039C205.893 159.375 205.197 164.825 203.952 170.09V170.09ZM219.947 133.18L210.311 155.858C210.837 144.985 209.377 133.509 205.932 121.514C207.799 120.167 210.101 119.584 212.425 119.91C215.171 120.295 217.547 121.89 218.944 124.285L219.439 125.135C220.861 127.574 221.051 130.582 219.947 133.18V133.18Z" fill="#276EF1"/>
</svg>
