<svg width="300" height="300" viewBox="0 0 300 300" fill="none" xmlns="http://www.w3.org/2000/svg">
<path d="M204.694 75H163.669C160.31 75 157.577 77.7328 157.577 81.092V96.1078C157.577 99.467 160.31 102.2 163.669 102.2H175.192V145.008C175.192 146.222 176.176 147.205 177.389 147.205C178.603 147.205 179.586 146.222 179.586 145.008V102.2H188.769V188.919H179.586V155.288C179.586 154.075 178.603 153.091 177.389 153.091C176.176 153.091 175.192 154.075 175.192 155.288V191.005L173.175 211.061C172.647 216.345 174.409 219.592 175.981 221.386C177.932 223.614 180.681 224.895 183.717 224.992C183.868 224.998 184.023 225 184.178 225C184.333 225 184.486 224.998 184.635 224.993C187.675 224.895 190.423 223.614 192.375 221.386C193.946 219.592 195.708 216.345 195.18 211.06L193.163 191.006V102.2H204.694C208.054 102.2 210.786 99.4673 210.786 96.1081V81.092C210.786 77.7328 208.054 75 204.694 75V75ZM189.069 218.49C187.928 219.792 186.303 220.542 184.491 220.6C184.289 220.607 184.066 220.607 183.861 220.6C182.052 220.542 180.427 219.793 179.286 218.49C177.855 216.857 177.254 214.439 177.548 211.5L179.376 193.313H188.978L190.807 211.499C191.101 214.439 190.5 216.857 189.069 218.49V218.49ZM206.392 96.1081C206.392 97.0283 205.615 97.8056 204.694 97.8056H163.669C162.749 97.8056 161.972 97.0283 161.972 96.1081V81.092C161.972 80.156 162.733 79.3945 163.669 79.3945H169.295V88.5958C169.295 89.8093 170.279 90.7931 171.492 90.7931C172.706 90.7931 173.69 89.8093 173.69 88.5958V79.3945H181.98V88.5958C181.98 89.8093 182.964 90.7931 184.178 90.7931C185.391 90.7931 186.375 89.8093 186.375 88.5958V79.3945H194.674V88.5958C194.674 89.8093 195.658 90.7931 196.871 90.7931C198.085 90.7931 199.069 89.8093 199.069 88.5958V79.3945H204.694C205.615 79.3945 206.392 80.1718 206.392 81.092V96.1081Z" fill="#276EF1"/>
<path d="M144.456 75H93.7234C91.2361 75 89.2129 77.0235 89.2129 79.5105V88.8984C89.2129 91.3699 91.2039 93.3814 93.6628 93.4143V145.008C93.6628 146.222 94.6466 147.205 95.8601 147.205C97.0735 147.205 98.0573 146.222 98.0573 145.008V93.4178H140.131V103.232H113.895C109.748 103.232 106.373 106.61 106.373 110.762V189.955C106.373 194.107 109.748 197.486 113.895 197.486H140.131V199.562C140.131 211.162 130.694 220.599 119.094 220.599C107.494 220.599 98.0573 211.162 98.0573 199.562V155.288C98.0573 154.075 97.0735 153.091 95.8601 153.091C94.6466 153.091 93.6628 154.075 93.6628 155.288V199.562C93.6628 213.585 105.071 224.994 119.094 224.994C133.117 224.994 144.525 213.585 144.525 199.562V93.4143C146.985 93.3768 148.975 91.3673 148.975 88.8987V79.5105C148.975 77.0235 146.948 75 144.456 75V75ZM140.131 193.091H113.895C112.171 193.091 110.768 191.684 110.768 189.955V110.762C110.768 109.033 112.171 107.626 113.895 107.626H140.131V193.091ZM144.581 88.8987C144.581 88.9638 144.521 89.0232 144.456 89.0232H93.7234C93.671 89.0232 93.6074 88.9679 93.6074 88.8987V79.5105C93.6074 79.454 93.6672 79.3945 93.7234 79.3945H144.456C144.525 79.3945 144.581 79.4581 144.581 79.5105V88.8987Z" fill="#276EF1"/>
<path d="M120.591 158.158H130.585C131.798 158.158 132.782 157.175 132.782 155.961V145.976C132.782 144.762 131.798 143.779 130.585 143.779H120.591C119.378 143.779 118.394 144.762 118.394 145.976V155.961C118.394 157.175 119.378 158.158 120.591 158.158ZM122.789 148.173H128.387V153.764H122.789V148.173Z" fill="#276EF1"/>
<path d="M120.591 181.847H130.585C131.798 181.847 132.782 180.864 132.782 179.65V169.665C132.782 168.451 131.798 167.468 130.585 167.468H120.591C119.378 167.468 118.394 168.451 118.394 169.665V179.65C118.394 180.864 119.378 181.847 120.591 181.847ZM122.789 171.862H128.387V177.452H122.789V171.862Z" fill="#276EF1"/>
<path d="M120.591 122.903H130.585C131.798 122.903 132.782 121.919 132.782 120.705C132.782 119.492 131.798 118.508 130.585 118.508H120.591C119.378 118.508 118.394 119.492 118.394 120.705C118.394 121.919 119.378 122.903 120.591 122.903Z" fill="#276EF1"/>
<path d="M120.591 133.056H130.585C131.798 133.056 132.782 132.073 132.782 130.859C132.782 129.646 131.798 128.662 130.585 128.662H120.591C119.378 128.662 118.394 129.646 118.394 130.859C118.394 132.073 119.378 133.056 120.591 133.056Z" fill="#276EF1"/>
</svg>
