<svg width="300" height="300" viewBox="0 0 300 300" fill="none" xmlns="http://www.w3.org/2000/svg">
<path d="M172.266 157.032C170.971 157.032 169.922 158.082 169.922 159.376V201.562H90.2344V98.4375H116.016C117.31 98.4375 118.359 97.3881 118.359 96.0938C118.359 94.7994 117.31 93.75 116.016 93.75H90.2344V91.4062C90.2344 84.9445 95.4914 79.6875 101.953 79.6875H158.203C159.497 79.6875 160.547 78.6381 160.547 77.3438C160.547 76.0494 159.497 75 158.203 75H101.953C92.9068 75 85.5469 82.36 85.5469 91.4062V208.594C85.5469 217.64 92.9068 225 101.953 225H158.203C167.249 225 174.609 217.64 174.609 208.594V159.376C174.609 158.082 173.56 157.032 172.266 157.032ZM158.203 220.312H101.953C95.4914 220.312 90.2344 215.055 90.2344 208.594V206.25H169.922V208.594C169.922 215.055 164.665 220.312 158.203 220.312Z" fill="#276EF1"/>
<path d="M134.766 210.938H125.391C124.096 210.938 123.047 211.987 123.047 213.281C123.047 214.576 124.096 215.625 125.391 215.625H134.766C136.06 215.625 137.109 214.576 137.109 213.281C137.109 211.987 136.06 210.938 134.766 210.938Z" fill="#276EF1"/>
<path d="M114.357 85.0605C113.921 85.4971 113.672 86.1035 113.672 86.7188C113.672 87.334 113.921 87.9404 114.357 88.377C114.794 88.8135 115.397 89.0625 116.016 89.0625C116.634 89.0625 117.237 88.8135 117.674 88.377C118.11 87.9404 118.359 87.3369 118.359 86.7188C118.359 86.1006 118.11 85.4971 117.674 85.0605C117.237 84.624 116.634 84.375 116.016 84.375C115.397 84.375 114.794 84.624 114.357 85.0605Z" fill="#276EF1"/>
<path d="M137.109 114.844H151.172C152.466 114.844 153.516 113.794 153.516 112.5C153.516 111.206 152.466 110.156 151.172 110.156H137.109C135.815 110.156 134.766 111.206 134.766 112.5C134.766 113.794 135.815 114.844 137.109 114.844Z" fill="#276EF1"/>
<path d="M198.047 110.156H160.547C159.253 110.156 158.203 111.206 158.203 112.5C158.203 113.794 159.253 114.844 160.547 114.844H198.047C199.341 114.844 200.391 113.794 200.391 112.5C200.391 111.206 199.341 110.156 198.047 110.156Z" fill="#276EF1"/>
<path d="M198.047 121.875H183.984C182.69 121.875 181.641 122.924 181.641 124.219C181.641 125.513 182.69 126.562 183.984 126.562H198.047C199.341 126.562 200.391 125.513 200.391 124.219C200.391 122.924 199.341 121.875 198.047 121.875Z" fill="#276EF1"/>
<path d="M137.109 126.562H174.609C175.904 126.562 176.953 125.513 176.953 124.219C176.953 122.924 175.904 121.875 174.609 121.875H137.109C135.815 121.875 134.766 122.924 134.766 124.219C134.766 125.513 135.815 126.562 137.109 126.562Z" fill="#276EF1"/>
<path d="M198.047 98.4375H137.109C135.815 98.4375 134.766 99.4869 134.766 100.781C134.766 102.076 135.815 103.125 137.109 103.125H198.047C199.341 103.125 200.391 102.076 200.391 100.781C200.391 99.4869 199.341 98.4375 198.047 98.4375Z" fill="#276EF1"/>
<path d="M198.047 133.594H137.109C135.815 133.594 134.766 134.643 134.766 135.938C134.766 137.232 135.815 138.281 137.109 138.281H198.047C199.341 138.281 200.391 137.232 200.391 135.938C200.391 134.643 199.341 133.594 198.047 133.594Z" fill="#276EF1"/>
<path d="M198.047 84.375H137.109C128.063 84.375 120.703 91.735 120.703 100.781V135.938C120.703 144.188 126.825 151.036 134.766 152.177V160.748C134.766 162.651 135.901 164.35 137.659 165.079C138.243 165.32 138.853 165.438 139.458 165.438C140.675 165.438 141.869 164.961 142.768 164.062L154.487 152.344H198.047C207.093 152.344 214.453 144.984 214.453 135.938V100.781C214.453 91.735 207.093 84.375 198.047 84.375ZM209.766 135.938C209.766 142.399 204.509 147.656 198.047 147.656H153.516C152.894 147.656 152.298 147.903 151.858 148.343L139.453 160.746V150C139.453 148.706 138.404 147.656 137.109 147.656C130.648 147.656 125.391 142.399 125.391 135.938V100.781C125.391 94.3195 130.648 89.0625 137.109 89.0625H198.047C204.509 89.0625 209.766 94.3195 209.766 100.781V135.938Z" fill="#276EF1"/>
</svg>
