<svg width="300" height="300" viewBox="0 0 300 300" fill="none" xmlns="http://www.w3.org/2000/svg">
<path d="M169.018 172.105C169.289 171.664 169.56 171.232 169.83 170.783C182.005 150.627 188.132 132.995 188.044 118.383C187.99 108.33 183.959 98.7067 176.831 91.6165C169.704 84.5263 160.06 80.5454 150.007 80.5437C139.954 80.542 130.308 84.5196 123.179 91.6074C116.049 98.6952 112.015 108.317 111.957 118.37C111.868 132.995 117.996 150.629 130.171 170.783C130.441 171.232 130.712 171.664 130.983 172.105C105.352 175.273 88.3594 184.433 88.3594 195.309C88.3594 208.964 115.43 219.66 150 219.66C184.57 219.66 211.641 208.964 211.641 195.309C211.641 184.433 194.648 175.273 169.018 172.105V172.105ZM116.059 118.383C116.034 113.909 116.893 109.474 118.588 105.333C120.282 101.192 122.779 97.4276 125.934 94.2552C129.089 91.0829 132.84 88.5656 136.971 86.8481C141.103 85.1306 145.533 84.2469 150.007 84.2478C154.481 84.2486 158.911 85.134 163.042 86.853C167.172 88.5721 170.923 91.0908 174.076 94.2644C177.23 97.4379 179.725 101.204 181.418 105.345C183.112 109.486 183.969 113.922 183.942 118.396C184.118 147.526 156.884 183.455 150 192.07C143.116 183.455 115.881 147.525 116.059 118.383V118.383ZM150 215.558C115.581 215.558 92.4609 205.088 92.4609 195.309C92.4609 186.638 109.604 178.569 133.399 175.952C138.001 183.138 143.023 190.046 148.438 196.641C148.63 196.867 148.87 197.049 149.139 197.174C149.409 197.299 149.703 197.364 150 197.364C150.297 197.364 150.591 197.299 150.861 197.174C151.13 197.049 151.37 196.867 151.562 196.641C156.978 190.046 162 183.138 166.602 175.952C190.391 178.569 207.54 186.633 207.54 195.309C207.539 205.088 184.419 215.558 150 215.558Z" fill="#276EF1"/>
<path d="M133.233 203.68C124.132 202.515 116.827 200.464 112.669 197.909C112.44 197.762 112.183 197.662 111.915 197.616C111.647 197.569 111.372 197.577 111.106 197.638C110.841 197.698 110.59 197.812 110.369 197.97C110.148 198.129 109.96 198.33 109.818 198.562C109.675 198.794 109.58 199.052 109.538 199.321C109.496 199.591 109.508 199.865 109.574 200.13C109.639 200.394 109.757 200.643 109.919 200.861C110.082 201.08 110.287 201.263 110.521 201.402C115.165 204.257 123.047 206.511 132.713 207.748C132.8 207.759 132.888 207.764 132.975 207.764C133.495 207.762 133.995 207.562 134.373 207.205C134.751 206.848 134.979 206.361 135.012 205.843C135.045 205.324 134.879 204.812 134.549 204.41C134.219 204.009 133.748 203.748 133.233 203.68V203.68Z" fill="#276EF1"/>
<path d="M153.444 204.66C150.586 204.726 147.609 204.71 144.704 204.604C144.435 204.594 144.166 204.637 143.914 204.731C143.661 204.825 143.43 204.967 143.232 205.151C143.035 205.334 142.875 205.555 142.763 205.8C142.651 206.045 142.588 206.31 142.578 206.579C142.568 206.848 142.611 207.117 142.705 207.369C142.799 207.622 142.942 207.854 143.125 208.051C143.309 208.249 143.529 208.408 143.774 208.52C144.019 208.632 144.284 208.695 144.553 208.705C146.356 208.771 148.186 208.805 150 208.805C151.193 208.805 152.373 208.791 153.54 208.763C154.084 208.75 154.601 208.522 154.976 208.129C155.352 207.735 155.556 207.209 155.543 206.665C155.54 206.395 155.483 206.127 155.376 205.879C155.268 205.631 155.112 205.407 154.916 205.22C154.721 205.033 154.49 204.887 154.237 204.791C153.984 204.695 153.715 204.65 153.444 204.66V204.66Z" fill="#276EF1"/>
<path d="M167.317 118.383C167.316 114.958 166.3 111.61 164.397 108.762C162.494 105.914 159.789 103.695 156.624 102.385C153.459 101.074 149.977 100.732 146.618 101.4C143.259 102.069 140.173 103.719 137.752 106.141C135.33 108.563 133.681 111.649 133.013 115.008C132.345 118.367 132.688 121.849 133.999 125.014C135.31 128.178 137.53 130.883 140.378 132.785C143.226 134.688 146.575 135.703 150 135.703C154.591 135.697 158.993 133.871 162.24 130.624C165.486 127.377 167.312 122.974 167.317 118.383V118.383ZM136.783 118.383C136.784 115.769 137.559 113.214 139.012 111.041C140.464 108.868 142.529 107.174 144.944 106.174C147.359 105.174 150.016 104.913 152.58 105.423C155.143 105.933 157.498 107.192 159.346 109.041C161.194 110.889 162.453 113.244 162.962 115.808C163.472 118.371 163.21 121.029 162.21 123.443C161.21 125.858 159.516 127.922 157.342 129.374C155.169 130.826 152.614 131.602 150 131.602C146.495 131.598 143.136 130.204 140.658 127.726C138.18 125.247 136.787 121.887 136.783 118.383V118.383Z" fill="#276EF1"/>
</svg>
