<svg xmlns="http://www.w3.org/2000/svg" xmlns:xlink="http://www.w3.org/1999/xlink" viewBox="0 0 716.53 267.21"><defs><style>.cls-1{fill:none;}.cls-2{isolation:isolate;}.cls-3{fill:#e0ecf7;}.cls-4{fill:#fff;}.cls-26,.cls-5{fill:#465fe9;}.cls-6{fill:#2233a3;}.cls-7{fill:#fdd4c6;}.cls-8{fill:#276ef1;}.cls-9{fill:#272163;}.cls-10{fill:#272063;}.cls-11{fill:#fcd2c5;}.cls-12,.cls-28{fill:#adb8fd;}.cls-13,.cls-17{fill:#d3dce5;}.cls-13,.cls-24{opacity:0.5;}.cls-13,.cls-23,.cls-24,.cls-27,.cls-28{mix-blend-mode:multiply;}.cls-14{fill:#ff6455;}.cls-15{fill:#bf2e20;}.cls-16{fill:#ff3d2b;}.cls-18{fill:#adb3bc;}.cls-19{fill:#528bf4;}.cls-20,.cls-23{fill:#afc4d6;}.cls-21{fill:#edf4fc;}.cls-22{clip-path:url(#clip-path);}.cls-25{fill:url(#linear-gradient);}.cls-26,.cls-27{opacity:0.8;}.cls-29{fill:#000c59;}.cls-30{fill:url(#Gradient_bez_nazwy_7);}.cls-31{fill:#edf5f8;}.cls-32{fill:#fab9af;}</style><clipPath id="clip-path"><path class="cls-1" d="M696.08,128.85l-36.53,18A40.56,40.56,0,0,1,663.79,165a41,41,0,0,1-41,41,40.76,40.76,0,0,1-15.2-2.91L592.45,241A81.8,81.8,0,0,0,696.08,128.85Z"/></clipPath><linearGradient id="linear-gradient" x1="492.24" y1="180.05" x2="498.17" y2="160.34" gradientTransform="matrix(1.13, 0.58, 0.22, 1, -99.34, -253.26)" gradientUnits="userSpaceOnUse"><stop offset="0" stop-color="#adb8fd"/><stop offset="0.59" stop-color="#dd7082"/><stop offset="1" stop-color="#ff3d2b"/></linearGradient><linearGradient id="Gradient_bez_nazwy_7" x1="2784.38" y1="189.25" x2="2784.38" y2="232.66" gradientTransform="matrix(-1, 0, 0.43, 1, 3256.94, 0)" gradientUnits="userSpaceOnUse"><stop offset="0" stop-color="#36078b"/><stop offset="1" stop-color="#168d68"/></linearGradient></defs><title>corp-graphic</title><g class="cls-2"><g id="Layer_2" data-name="Layer 2"><g id="_ÎÓÈ_2" data-name="—ÎÓÈ_2"><path class="cls-3" d="M0,229.28c10.22-.85,25.23-10.09,32.37-23.1s12.87-28.66,26-34.36C70.67,166.48,85,187,97.87,183.66c26.43-6.72,29.48-106.08,62.93-106.08,31.75,0,87,79.35,131.06,50.28C334.12,100,359.05,14.24,393.9,2.14c67.2-23.33,81.24,151.68,129.54,151.68,13.66,0,23.6-41.86,34-47.08C590.84,90,575.1,197.8,622.63,229.28Z"/><polygon class="cls-4" points="467.24 226.28 467.3 226.99 466.45 227.91 465.64 227.44 465.64 227.07 465.54 226.28 467.24 226.28"/><path class="cls-4" d="M475.55,226.57l.09.71-.9.75-.69-.38c-.05,0-.39-1.17-.39-1.17Z"/><path class="cls-5" d="M465.8,228.71c.91-.17,1.69-.27,1.59-1,0-.21-.09-.71-.09-.71-.37.27-1.6.35-1.66.08,0,0-4.42,1.44-4.54,1.87a.61.61,0,0,0,0,.19C461.21,229.57,464.9,228.88,465.8,228.71Z"/><path class="cls-5" d="M473.88,229.7c.33-.12,1.95-.87,1.86-1.61,0-.22-.11-.9-.11-.9-.24.51-1.52.49-1.58.46s-2.22,1.34-2.34,1.77a1.33,1.33,0,0,0,0,.2C471.82,230.06,473,230,473.88,229.7Z"/><path class="cls-6" d="M462.22,188.43s5-7.46,6.8-10.1c.86-1.28,5.49-.37,4,3.3-1.08,2.57-6.34,7.08-7.78,8.28-.29.24-3.27,1-4.25,1.39l-.59-1.79Z"/><path class="cls-7" d="M451.86,193.76l1.88-.94a3.6,3.6,0,0,1-.69-.43c-.24-.21-.15-.56.19-.33a4.47,4.47,0,0,0,1.34.34l5.77-2.89.59,1.79c-2.23.68-5.45,1.48-6,1.83C452.1,195,451.86,193.76,451.86,193.76Z"/><path class="cls-8" d="M477.87,193.51c-1,8.71-2.06,11.06-3.1,17.38-.55,3.4.06,8.14.86,15.63.07.64-2.38.62-2.56,0-1.65-5.66-3.73-13.07-4.13-15.91a79.24,79.24,0,0,1-.12-10.68l2.23-7.85Z"/><path class="cls-8" d="M468.18,190.71a54,54,0,0,0-4.59,17.64c-.58,4.91.73,9.14,1.57,17.89,0,.55,2.18.55,2.2,0,.19-8,.21-16.46,1.46-19.62a55,55,0,0,1,3.35-6.44l2.6-7.2Z"/><path class="cls-4" d="M472.73,195.52c-3.91,0-4.63-1.37-4.63-1.37l.07-10.35s.93-5,.9-5.06,1.36-1.41,1.32-.8-.08,1.23,1,1.33a5.37,5.37,0,0,0,2.56-.87l-.41,1.63Z"/><path class="cls-6" d="M470.38,178.47c-.47.82-1.09,5.43-1.12,6.94a71.88,71.88,0,0,1-.58,7.93c-.21,1.39-3.13,8.64-3.13,8.64s-1.84-.86-1.84-2.15c0-1.56,3.68-6.13,3.3-15a16.17,16.17,0,0,1,1.51-6.59,5.19,5.19,0,0,1,1-1.26l.8.16Z"/><path class="cls-6" d="M472.46,179.66s.09,21.79-.67,24.3c0,0,7.28-1.25,7.85-3.14,2-6.64,0-19-2.5-21.07-2.29-1.9-2.85-2.26-2.85-2.26l-.69,2Z"/><path class="cls-8" d="M471.16,177.39a9.89,9.89,0,0,0-1,1.5,2,2,0,0,0-.91-.24s.95-1.75,1.71-2S471.16,177.39,471.16,177.39Z"/><path class="cls-7" d="M474,177.14c-2.49-.9,1.64-3.94-1.18-5s-3.9,3.2-3.59,4,1.43.19,1.53,1c0,.12,0,1,0,1.07,0,.65.22.86.88.92h0a3.51,3.51,0,0,0,1.57-.22l.72-.28Z"/><path class="cls-8" d="M474.76,177.57a4.21,4.21,0,0,1-1.32,2.41,4.48,4.48,0,0,0-1-.32,9.44,9.44,0,0,0,1.15-1.52,2.64,2.64,0,0,0,.4-1Z"/><path class="cls-8" d="M478,195.4l.19.92a15.15,15.15,0,0,1-4.55,1.41v-1A21.32,21.32,0,0,0,478,195.4Z"/><polygon class="cls-8" points="465.73 194.42 466.27 195.51 465.33 195.96 465 194.95 465.73 194.42"/><path class="cls-9" d="M470.21,172.91c.4-.19.88-.23,1,0s.59-.08.92.23-.13,1.64.12,1.74.65-.11.66.34-.71.63-.71.63.11,1,.83.74a2.56,2.56,0,0,0,.81-4.46,3.27,3.27,0,0,0-2.91-.37C470.24,171.94,470.21,172.91,470.21,172.91Z"/><path class="cls-6" d="M471.17,193.31s1.68-8.84,2.29-12c.3-1.51,4.92-2.49,4.93,1.49,0,2.79-3.05,9-3.91,10.66-.17.34-2.6,2.24-3.36,2.95L469.88,195Z"/><path class="cls-7" d="M463.73,202.26l1.36-1.6a3.61,3.61,0,0,1-.8-.12c-.3-.1-.36-.46,0-.38a4.66,4.66,0,0,0,1.36-.21l4.18-4.93,1.24,1.42c-1.78,1.5-4.44,3.5-4.78,4C464.45,203.35,463.73,202.26,463.73,202.26Z"/><path class="cls-10" d="M435.11,227.82l1-.58a5.3,5.3,0,0,0,.41.55c.35.42,2,.72,2,1.31,0,.3-.63.56-1.14.59a3.71,3.71,0,0,1-1.23-.17,3.07,3.07,0,0,1-1.1-.57.83.83,0,0,1,0-.68A.69.69,0,0,1,435.11,227.82Z"/><path class="cls-4" d="M436.45,227.21a.5.5,0,0,0,.11.58,1.66,1.66,0,0,1-.61.58c-.22.13-.87-.1-.87-.1a4.75,4.75,0,0,1,0-.81Z"/><path class="cls-8" d="M439.09,194.27c.1.71,2.66,10.19,1.92,19.12a35.4,35.4,0,0,1-4.57,14.05c0,.06-1,.61-1.53.05,0-1.35,1.82-13.91,1.78-14.05-1.23-4.28-4.08-11.68-4.57-12.07v-6.53A24.29,24.29,0,0,0,439.09,194.27Z"/><path class="cls-11" d="M456.13,200c.14,0,.29-.09.3.11s-.52.3-.65.27-.18-.31-.46-.42A2.74,2.74,0,0,0,456.13,200Z"/><path class="cls-11" d="M455.11,199.83a7.15,7.15,0,0,1,.84.4c.33.19,1,.67,1.06.71a3.51,3.51,0,0,1,.58.44.66.66,0,0,1,.07.42c0,.13-.2.13-.2.13,0,.18-.46,0-.45.08,0,.19-.24.27-.76-.12,0,0-1.52-.74-2-1A6.82,6.82,0,0,1,455.11,199.83Z"/><path class="cls-11" d="M448,193.72a.85.85,0,0,1,.27.13c1.29.94,5.45,5.25,6.94,6a5.58,5.58,0,0,0-.74,1.11c-2.44-1.31-8.14-5.25-7.91-6.33A1.08,1.08,0,0,1,448,193.72Z"/><path class="cls-11" d="M447.2,185.27c.49,1.39.85,6.14,1.45,8.37.75,2.75-1.43,2.29-1.93,1.53-1.3-2-3.91-8.1-3-8.88C444.19,186,447.11,185,447.2,185.27Z"/><path class="cls-12" d="M447.26,184.92a.4.4,0,0,1,.25.24,27.07,27.07,0,0,1,.7,3.93c.23,1.65.86,4.84.88,5,.52.45,5.4,5,6.26,5.47l-1.05,1.71c-2.14-1.16-6.88-4.37-7.87-5.95s-4.18-8.23-2.87-9.3A9.54,9.54,0,0,1,447.26,184.92Z"/><path class="cls-10" d="M427.24,227.9l1.08-.5s.2.35.37.58c.31.44,2,.87,1.92,1.46,0,.3-.67.52-1.18.5a2.48,2.48,0,0,1-1.22-.27c-.32-.23-.95-.45-1-.65a.86.86,0,0,1,0-.69C427.15,228,427.24,227.9,427.24,227.9Z"/><path class="cls-4" d="M428.55,227.36a.72.72,0,0,0,.14.62,1.7,1.7,0,0,1-.65.53c-.23.11-.86-.18-.86-.18a7.85,7.85,0,0,1,0-.82Z"/><path class="cls-8" d="M428.46,193.36c2.48.36,5.26,1.69,6.12,1.4a108.53,108.53,0,0,1-.28,19.13c-.57,4.66-5.7,11.16-5.7,13.73,0,0-1.07.52-1.54-.08,0-6.32,2.94-14,2.94-14C429.46,207.94,425.35,199.28,428.46,193.36Z"/><path class="cls-11" d="M445.16,178.32c.1.19,1.21,1.93,1.7,2.11a5.71,5.71,0,0,0-1.19,2.16c-.48.6-2.33-.39-2.23-1.79A8,8,0,0,0,445.16,178.32Z"/><path class="cls-11" d="M444.65,178.37a1.74,1.74,0,0,1,1-2.33c.89-.33,1.83-.38,2.29.42.16.29.85,3.11-.51,4-.57.37-2.1-.35-2.36-1.06C445,179.36,444.66,178.38,444.65,178.37Z"/><path class="cls-12" d="M441.3,180.29c.55.06,2.14.51,2.14.51a4.66,4.66,0,0,0,1.16,1.79,1.3,1.3,0,0,0,1.07,0s1.36,1.37,1.56,1.7c.78,1.27-.4,2.56-1.09,3.81A46.17,46.17,0,0,0,440,200.35c-1.88,2.87-7.94,1.53-11.23-2.3l1.64-4.35-2.62,3.63c-.25-.18-.82-.45-1-.58C431.7,183.93,436.41,179.75,441.3,180.29Z"/><path class="cls-6" d="M443.44,180.8a4.66,4.66,0,0,0,1.16,1.79,1.3,1.3,0,0,0,1.07,0s1.27,1.28,1.53,1.66c-.81,1.27-3.06,1.85-3.06,1.85a32.46,32.46,0,0,0-2.84-5.81,5.14,5.14,0,0,1,1.08.18Z"/><path class="cls-9" d="M443.07,175.25c1.2-2.25,4.89-1.9,5.65,0,.17.41.14,1.58-4.1,2.16a6.76,6.76,0,0,0,.13,2.43A3.43,3.43,0,0,1,443.07,175.25Z"/><path class="cls-11" d="M444.37,178a1,1,0,0,1,.44-.09c.09.35.17.94.21,1.23a.9.9,0,0,1-.81-.35A.65.65,0,0,1,444.37,178Z"/><path class="cls-6" d="M439.57,185c-1.45,3.05,1.86,11.33,1.86,11.33s-3.58-2.22-3.95-3.38c-.13-.4-1.68-6.19-.78-8.33C437.39,183,440,184,439.57,185Z"/><path class="cls-11" d="M447.55,199.4c0,.13-.57.18-.68.13-.24-.21-.11-.35-.36-.52a2.61,2.61,0,0,0,.77.22C447.43,199.24,447.59,199.21,447.55,199.4Z"/><path class="cls-11" d="M446.32,198.88a7.83,7.83,0,0,1,.74.58c.28.24.85.87.89.91a5.53,5.53,0,0,1,.47.55.79.79,0,0,1,0,.43.22.22,0,0,1-.23.08c-.06.18-.45-.05-.46,0,0,.19-.28.21-.71-.28,0,0-1.33-1-1.72-1.4A7.44,7.44,0,0,1,446.32,198.88Z"/><path class="cls-12" d="M437.94,183a9.32,9.32,0,0,1,3.84-.31.36.36,0,0,1,.2.29,27.3,27.3,0,0,1-.14,4,40.88,40.88,0,0,0-.2,4.53,5.23,5.23,0,0,1,0,.56c.41.55.94,1.31,1.5,2.11a33.41,33.41,0,0,0,3.47,4.55l-1.39,1.45c-1.85-1.58-5.8-5.72-6.44-7.48S436.43,183.73,437.94,183Z"/><ellipse class="cls-13" cx="449.1" cy="229.87" rx="37.42" ry="1.25"/><path class="cls-14" d="M463.82,224.42a30.44,30.44,0,0,0,.49,5.45h17.91a29.62,29.62,0,0,1-.5-5.45,30,30,0,0,1,3.14-13.4H467A30.09,30.09,0,0,0,463.82,224.42Z"/><polygon class="cls-15" points="439.98 197.71 455.91 205.57 466.95 211.02 484.86 211.02 457.88 197.71 439.98 197.71"/><path class="cls-11" d="M452.31,196.71a8,8,0,0,1,1.95.2c.56.17,1.22,1.09,1,1.32a3.52,3.52,0,0,1-2.8-.13c-.41-.44-1.13-.26-1.3-.55C450.9,197.08,451.4,196.72,452.31,196.71Z"/><path class="cls-11" d="M444.57,196.71a8,8,0,0,1,1.95.2c.56.17,1.22,1.09,1,1.32a3.52,3.52,0,0,1-2.8-.13c-.41-.44-1.13-.26-1.3-.55C443.16,197.08,443.66,196.72,444.57,196.71Z"/><path class="cls-16" d="M434,229.87h30.31a30.44,30.44,0,0,1-.49-5.45A30.09,30.09,0,0,1,467,211l-11-5.45L440,197.71A60,60,0,0,0,434,229.87Z"/><path class="cls-17" d="M483.76,258.57H470a5,5,0,0,1-5-5V214.83h23.77v38.75A5,5,0,0,1,483.76,258.57Zm-18.18-43.15v38.16A4.4,4.4,0,0,0,470,258h13.79a4.4,4.4,0,0,0,4.39-4.39V215.42Z"/><path class="cls-17" d="M561,258.57H547.16a5,5,0,0,1-5-5V214.83h23.77v38.75A5,5,0,0,1,561,258.57Zm-18.18-43.15v38.16a4.4,4.4,0,0,0,4.39,4.39H561a4.4,4.4,0,0,0,4.4-4.39V215.42Z"/><rect class="cls-18" x="549.51" y="213.4" width="19.69" height="3.44"/><rect class="cls-18" x="461.41" y="213.4" width="88.11" height="3.44"/><path class="cls-10" d="M509.41,182.25c.64.64,1.31,1.25,2,1.86h4.15c-8-7.49,10.69-47.88,10.69-59.72a41,41,0,0,1,77.84-18.14h4.15c-3.83-7.83,23.36-33.21,16.87-39.7a81.8,81.8,0,0,0-115.67,115.7Z"/><path class="cls-8" d="M513.56,182.25c.64.64,1.31,1.25,2,1.86l27.83-29.74a41,41,0,1,1,64.85-48.12l36.53-18a81,81,0,0,0-15.51-21.67,81.8,81.8,0,0,0-115.67,115.7Z"/><path class="cls-11" d="M451.81,197.4c.18.15,1.24,1.07,1.08,1.23s-1-.33-1.44-.7c-.26-.21-.48-.62-.29-.76S451.53,197.16,451.81,197.4Z"/><path class="cls-13" d="M679.48,247.51c0,.91-24.13,1.64-53.89,1.64s-53.9-.73-53.9-1.64,24.13-1.64,53.9-1.64S679.48,246.61,679.48,247.51Z"/><path class="cls-15" d="M592.45,241H568.2c16,6.35,39,7.53,58.36,5.73l0,0A81.75,81.75,0,0,1,592.45,241Z"/><path class="cls-15" d="M662.85,173.79a41.09,41.09,0,0,1-40.11,32.29,40,40,0,0,1-12.11-1.84,41.11,41.11,0,0,0,28-30.45Z"/><path class="cls-19" d="M659.55,146.87H635.3a41.1,41.1,0,0,1,3.3,26.92h24.25a41.1,41.1,0,0,0-3.3-26.92Z"/><path class="cls-16" d="M592.45,241a81.75,81.75,0,0,0,110.18-58.53l-39.78-8.71a41.08,41.08,0,0,1-55.31,29.38Z"/><path class="cls-8" d="M663.79,165a41.18,41.18,0,0,1-.94,8.76l39.78,8.71a81.39,81.39,0,0,0-6.55-53.64l-36.53,18A40.56,40.56,0,0,1,663.79,165Z"/><polygon class="cls-6" points="696.08 128.84 674.51 139.49 659.55 146.87 635.3 146.87 671.83 128.84 696.08 128.84"/><polygon class="cls-14" points="607.54 203.15 592.45 241.02 568.2 241.02 583.29 203.15 607.54 203.15"/><path class="cls-13" d="M716.53,247.09c0,.24-5.95.42-13.29.42s-13.3-.18-13.3-.42,5.95-.42,13.3-.42S716.53,246.86,716.53,247.09Z"/><path class="cls-13" d="M681.52,253.75c0,.43-4.31.77-9.62.77s-9.61-.34-9.61-.77,4.31-.77,9.61-.77S681.52,253.33,681.52,253.75Z"/><path class="cls-12" d="M667.18,240a7.21,7.21,0,0,0-.5-1s-3.82-6.82-5.12-8.87a16.39,16.39,0,0,1-1.2-3.68,13.93,13.93,0,0,0-1.3-2.9c-.31-.43-.09,1.94.45,6.06s4,5.59,6.88,9.39l.37,1.06,1.81,9.22h.49S667.36,240.46,667.18,240Z"/><path class="cls-5" d="M678.05,213.75s-3.24,5.08-4.68,6-1.73,9.13-1.06,11.06,1.13,18.36,1.13,18.36h.43s-.54-17.14-.86-18.36,0-1.5.5-1.92,1.58-6.09,2.16-7.13,2.38-5.82,2.38-5.82Z"/><path class="cls-12" d="M657.46,212.73s4.35,4.17,6,4.75,3.84,8.46,3.64,10.5,2.41,22.59,2.41,22.59l-.42.1s-2.7-21.27-2.67-22.53-.39-1.44-.94-1.74-3-5.55-3.78-6.43-3.69-5.09-3.69-5.09Z"/><path class="cls-12" d="M671.76,249.19s-1.34-28.27-1.83-30.79.2-3.67,0-4.6-.58-9.7-.87-11.26-5-9.74-5.61-11.12-1.3-.55-1.34.22,1.76,5.39,2.78,9.37c.7,2.73.94,10.45,2.49,13.74.45,1,1.58,2.48,1.83,3.88s1.89,30.56,1.89,30.56Z"/><polygon class="cls-20" points="676.83 253.75 666.94 253.75 665.88 243.22 678.05 243.22 676.83 253.75"/><path class="cls-12" d="M669.08,214.3s1.22-29.25,2.11-31.42,3.67-7.64,6.18-9.29,6.83-7,6.54-5.79a19.82,19.82,0,0,1-4.5,8.89,28.75,28.75,0,0,1-5,5c-.82.56-2.56,1.2-2.68,1.89-1.94,12.05-2,34.41-2,34.41Z"/><path class="cls-12" d="M679.33,193.91c-.53,3.34-3,9.46-4.08,12.47s-2.51,3.74-3.44,5.44-2,10-2,10l-.37-2s1-7.51,1.44-8.64.12-3.68.58-5.34,3.9-6.71,4.85-8.3,2.5-5.08,3-5.47S679.33,193.91,679.33,193.91Z"/><path class="cls-12" d="M665.85,169.72a57.94,57.94,0,0,0,1.27,8.8c.4,2.15,1.24,2.8,1.67,4s1.76,7.83,1.76,7.83l.3-.8s-1.26-6.1-1.42-6.91.41-2.89.29-4.06-1.82-4.94-2.27-6.11-1.08-3.69-1.37-4S665.85,169.72,665.85,169.72Z"/><path class="cls-12" d="M481.19,203.75a4.06,4.06,0,0,0-.35-.73s-2.68-4.79-3.6-6.23a11.84,11.84,0,0,1-.84-2.58,9.32,9.32,0,0,0-.91-2c-.22-.3-.06,1.36.32,4.26s2.78,3.92,4.82,6.59l.27.74,1.27,6.47h.34S481.32,204.11,481.19,203.75Z"/><path class="cls-5" d="M474.39,184.64s3.06,2.93,4.19,3.33,2.7,5.95,2.56,7.38,1.69,15.85,1.69,15.85l-.3.07s-1.89-14.93-1.87-15.81-.27-1-.66-1.22-2.08-3.9-2.65-4.51-2.59-3.58-2.59-3.58Z"/><path class="cls-5" d="M484.66,209.85s1-19.85.86-21.64.39-2.55.32-3.21.27-6.81.17-7.92-2.79-7.15-3.14-8.16-.87-.48-.95.06.85,3.89,1.29,6.74c.3,2-.08,7.36.78,9.77a11.63,11.63,0,0,1,1,2.84c.08,1-.8,21.47-.8,21.47Z"/><path class="cls-12" d="M488.83,185.66s-2.62,3.32-3.7,3.88-1.84,6.26-1.5,7.65-.49,12.9-.49,12.9l.3,0s.81-12,.67-12.88.13-1,.49-1.3,1.52-4.15,2-4.83,2.07-3.9,2.07-3.9Z"/><polygon class="cls-21" points="487.96 213.44 481.02 213.44 480.28 206.04 488.82 206.04 487.96 213.44"/><g class="cls-22"><path class="cls-23" d="M699.52,160.62a.91.91,0,0,0-.78-1,.89.89,0,0,0-.78,1L698.1,175H680.33l-.13-14.42a.9.9,0,0,0-.77-1,.88.88,0,0,0-.77,1l.44,48.76h1.55l-.12-12.59H698.3l.11,12.59H700Zm-19,34.2-.16-17.8h17.76l.16,17.8Z"/></g><path class="cls-20" d="M698.81,159.64a.64.64,0,0,0-.65.77L700,171.68H682.21l-1.82-11.27a.94.94,0,0,0-.89-.77.64.64,0,0,0-.65.77l13.85,86a1,1,0,0,0,.9.78.64.64,0,0,0,.65-.78l-1.82-11.26H710.2L712,246.36a1,1,0,0,0,.9.78.64.64,0,0,0,.65-.78l-13.86-86A.93.93,0,0,0,698.81,159.64ZM685,188.69h17.77L705,202.61H687.2Zm2.5,15.47h17.76l2.24,13.92H689.69Zm12.77-30.93,2.25,13.92H684.7l-2.24-13.92Zm-8,60.32-2.24-13.92H707.7L710,233.55Z"/><path class="cls-17" d="M503,212.86l2.3-6.32h-6.95l-1.89,5.2a1.31,1.31,0,0,0,1.23,1.76h9.72a.64.64,0,0,0-.63-.64Z"/><rect class="cls-17" x="491.21" y="212.91" width="12.07" height="0.59"/><path class="cls-17" d="M514.19,209.13H489.48a1.72,1.72,0,0,1-1.67-1.33l-3.24-14.11a.9.9,0,0,1,.89-1.1h24.7a1.7,1.7,0,0,1,1.67,1.33l3.24,14.1A.91.91,0,0,1,514.19,209.13Z"/><polygon class="cls-21" points="485.73 193.57 488.57 206.15 513.32 206.15 510.67 193.57 485.73 193.57"/><path class="cls-13" d="M454.46,258h146.4c1.68,0,3,.86,3,1.93h0c0,1.06-1.36,1.92-3,1.92h-4.09c-5.46,0-28.07,5.36-35,5.24,1.13,0-5.44-.1-16.45,0-25.71.32-58-.06-61.89-.48l-9-1a31.12,31.12,0,0,1-5-.94L463.09,263a32.68,32.68,0,0,0-8.63-1.14h0c-1.67,0-3-.86-3-1.92h0C451.43,258.82,452.79,258,454.46,258Z"/><g class="cls-24"><polygon class="cls-25" points="498.73 197.93 504.64 203.04 505.02 202.12 505.76 202.91 507.06 200.46 508.72 205.45 489.38 205.45 487.63 198.65 493.41 202.48 494.68 201.13 496.01 201.91 498.73 197.93"/><polygon class="cls-10" points="499.25 194.65 498.33 194.65 499.39 199.04 500.31 199.04 499.25 194.65"/><polygon class="cls-8" points="501.02 195.83 500.11 195.83 500.88 199.04 501.31 199.04 501.79 199.04 501.02 195.83"/><polygon class="cls-12" points="503.28 199.04 502.76 196.87 501.84 196.87 502.37 199.04 502.99 199.04 503.28 199.04"/><polygon class="cls-5" points="504.46 197.76 503.54 197.76 503.85 199.04 504.77 199.04 504.46 197.76"/><polygon class="cls-10" points="510.35 199.11 510.45 199.54 505.46 199.54 505.36 199.11 510.35 199.11"/><path class="cls-8" d="M510.74,199.11a.26.26,0,0,1,.24.21c0,.12,0,.22-.14.22h0a.27.27,0,0,1-.24-.22C510.57,199.2,510.63,199.11,510.74,199.11Z"/><polygon class="cls-10" points="510.65 200.36 510.75 200.79 505.76 200.79 505.66 200.36 510.65 200.36"/><path class="cls-8" d="M511,200.36a.28.28,0,0,1,.24.22c0,.12,0,.21-.14.21h0a.25.25,0,0,1-.24-.21C510.87,200.46,510.93,200.36,511,200.36Z"/><polygon class="cls-10" points="510.95 201.62 511.05 202.05 506.06 202.05 505.95 201.62 510.95 201.62"/><path class="cls-8" d="M511.34,201.62a.27.27,0,0,1,.24.21c0,.12,0,.22-.14.22h0a.29.29,0,0,1-.25-.22C511.17,201.71,511.23,201.62,511.34,201.62Z"/><polygon class="cls-10" points="511.25 202.88 511.35 203.31 506.36 203.31 506.25 202.88 511.25 202.88"/><path class="cls-8" d="M511.63,202.88a.27.27,0,0,1,.25.21.16.16,0,0,1-.14.22h0a.29.29,0,0,1-.25-.22A.15.15,0,0,1,511.63,202.88Z"/><polygon class="cls-10" points="511.55 204.13 511.65 204.56 506.65 204.56 506.55 204.13 511.55 204.13"/><path class="cls-8" d="M511.93,204.13a.29.29,0,0,1,.25.22.16.16,0,0,1-.14.21h0a.29.29,0,0,1-.25-.21A.16.16,0,0,1,511.93,204.13Z"/><polygon class="cls-15" points="502.19 200.08 503.27 204.59 500.7 204.59 499.63 200.08 502.19 200.08"/><polygon class="cls-15" points="505.08 200.15 506.16 204.66 503.59 204.66 502.51 200.15 505.08 200.15"/></g><path class="cls-26" d="M508,197.46a8,8,0,1,0-5.85-9.63A8,8,0,0,0,508,197.46Zm2.56-7a2.16,2.16,0,0,0-.67-.36l-.24-.09-.29-.09a3.34,3.34,0,0,1-.59-.27,2,2,0,0,1-.91-1.67,2,2,0,0,1,.27-1,2,2,0,0,1,.76-.73,1.78,1.78,0,0,1,.48-.19h0v-1.22h1.12v1.21a1.84,1.84,0,0,1,.49.19,2,2,0,0,1,.74.72,2.21,2.21,0,0,1,.3,1h-1.35a.76.76,0,0,0-.25-.53.74.74,0,0,0-.53-.2h0a.69.69,0,0,0-.51.2.75.75,0,0,0-.19.53.7.7,0,0,0,.2.52,1.51,1.51,0,0,0,.52.3l.17.07.31.1a3.84,3.84,0,0,1,1.08.55,1.93,1.93,0,0,1,.75,1.59,2.21,2.21,0,0,1-.31,1.15,2.25,2.25,0,0,1-.83.82,2.35,2.35,0,0,1-.57.23v1.2h-1.12v-1.18a2.25,2.25,0,0,1-1.16-.65,1.86,1.86,0,0,1-.46-.69,2.28,2.28,0,0,1-.16-.78H509a.92.92,0,0,0,.29.66.94.94,0,0,0,.63.24h.05a1,1,0,0,0,.68-.26.89.89,0,0,0,.26-.65A.93.93,0,0,0,510.54,190.51Z"/><path class="cls-12" d="M494.46,192.92h-.73v-.73a.52.52,0,0,0-1,0v.73H492a.52.52,0,1,0,0,1h.73v.73a.52.52,0,0,0,1,0V194h.73a.52.52,0,1,0,0-1Z"/><path class="cls-12" d="M496.17,187.55h-.74a.52.52,0,1,1,0-1h2.51a.52.52,0,0,1,0,1h-1.77Z"/><path class="cls-12" d="M491.3,179.8a.8.8,0,1,1,.8-.8A.8.8,0,0,1,491.3,179.8Z"/><path class="cls-12" d="M493.71,182.28a.8.8,0,0,1-.8-.8.8.8,0,0,1,1.6,0A.8.8,0,0,1,493.71,182.28Z"/><path class="cls-12" d="M493.38,179.72l-1.83,2.42a.33.33,0,0,1-.49.06.34.34,0,0,1-.06-.49l1.82-2.42.43-.56.31-.39a.36.36,0,0,1,.5-.06.35.35,0,0,1,.06.49l-.31.4Z"/><g class="cls-27"><path class="cls-26" d="M544.74,190.8v2.13a2.13,2.13,0,0,0,2.13,2.12H565V190.8Z"/><path class="cls-12" d="M547.4,166.34V190.8h15.43v2.13a2.13,2.13,0,0,0,4.25,0V166.34a2.13,2.13,0,0,1,2.13-2.13H549.53A2.13,2.13,0,0,0,547.4,166.34Z"/><path class="cls-28" d="M553.25,181.76H549v-1.07h4.25Z"/><path class="cls-28" d="M565.49,181.76H554.32v-1.07h11.17Z"/><path class="cls-28" d="M559.64,183.89H549v-1.07h10.64Z"/><path class="cls-28" d="M565.49,183.89H560.7v-1.07h4.79Z"/><path class="cls-28" d="M555.91,188.14H549v-1.06h6.91Z"/><path class="cls-28" d="M565.49,188.14H557v-1.06h8.51Z"/><path class="cls-26" d="M560.7,168.78V167.4l-3.19-1.06-3.19,1.06v1.38a6.4,6.4,0,0,0,2.82,5.32l.37.21.37-.21A6.47,6.47,0,0,0,560.7,168.78Z"/><path class="cls-28" d="M562.29,186H549V185h13.29Z"/><path class="cls-28" d="M565.49,186h-2.13V185h2.13Z"/><path class="cls-28" d="M559.64,179.63H549v-1.06h10.64Z"/><path class="cls-28" d="M565.49,179.63H560.7v-1.06h4.79Z"/><path class="cls-28" d="M561.23,177h-7.45v-1.06h7.45Z"/><path class="cls-26" d="M571.34,166.34v3.72h-4.26v-3.72a2.13,2.13,0,0,1,4.26,0Z"/></g><path class="cls-11" d="M569.11,192.05c-1,1.86-2.49,8.49-3.82,11.52-1.62,3.72,1.55,3.52,2.41,2.56,2.25-2.55,7.23-10.61,6-11.91C573.21,193.65,569.29,191.71,569.11,192.05Z"/><path class="cls-8" d="M569.11,192.05c-.7,1.32-1.79,5-3.06,8a26.35,26.35,0,0,0,3.24,1.71c.41.17,1.62.73,2,.87,2.06-3.24,3.21-7.53,2.41-8.4C573.21,193.65,569.29,191.71,569.11,192.05Z"/><path class="cls-11" d="M567.24,204.22c-1.58-1.63-8.51-6.63-9.9-8.59a8.11,8.11,0,0,1-1.43,1.28c2.34,3.17,9.07,10.43,10.55,9.89a1.54,1.54,0,0,0,1-2.22A1.27,1.27,0,0,0,567.24,204.22Z"/><path class="cls-11" d="M578.72,230.47c0,.56,1.6,28.31,1.6,28.31a2.31,2.31,0,0,0,1.78.4s2.5-28.33,2.4-29.61C583.77,230.14,579.18,230.92,578.72,230.47Z"/><path class="cls-10" d="M582,258.78l-1.49-.82a8.57,8.57,0,0,1-.57.78c-.5.6-2.91,1-2.91,1.87,0,.42.9.8,1.63.83a3.47,3.47,0,0,0,1.76-.24c.48-.29,1.41-.54,1.56-.8a1.17,1.17,0,0,0,.06-1A.92.92,0,0,0,582,258.78Z"/><path class="cls-4" d="M579.94,258.74a2.48,2.48,0,0,0,.86.83c.32.17,1.24-.15,1.24-.15.08-.47.11-.79.11-.79l-1.68-.76A3.94,3.94,0,0,1,579.94,258.74Z"/><path class="cls-12" d="M576.32,209.45c-.26,1.9,3.78,48.79,3.78,48.79s1.47.86,2.19.06c0,0,.76-10.81,2.22-21,1.25-8.8,1.76-27,1.76-27C582.7,210.5,577.51,210,576.32,209.45Z"/><path class="cls-11" d="M571,230.47c0,.56,1.6,28.31,1.6,28.31a2.31,2.31,0,0,0,1.78.4s2.49-28.33,2.4-29.61C576,230.14,571.42,230.92,571,230.47Z"/><path class="cls-10" d="M574.24,258.78l-1.48-.82a9.64,9.64,0,0,1-.58.78c-.5.6-2.9,1-2.9,1.87,0,.42.9.8,1.63.83a5,5,0,0,0,1.75-.24,4.44,4.44,0,0,0,1.57-.8,1.21,1.21,0,0,0,.06-1C574.37,259,574.24,258.78,574.24,258.78Z"/><path class="cls-4" d="M572.18,258.74a2.46,2.46,0,0,0,.87.83c.31.17,1.24-.15,1.24-.15.08-.47.11-.79.11-.79l-1.69-.76A3.51,3.51,0,0,1,572.18,258.74Z"/><path class="cls-12" d="M568.57,209.45c-.27,1.9,3.78,48.79,3.78,48.79s1.46.86,2.19.06c0,0,.76-10.81,2.21-21,1.26-8.8,1.07-17.15,1.77-17.7v-9.33C574.94,210.5,569.76,210,568.57,209.45Z"/><path class="cls-8" d="M568.3,208.68s-1.14,5.46-.6,5.93c1.24,1.08,5.88.09,9.41-.35s10,.28,10.2-.44c.46-1.94-.41-6.24-.41-6.24Z"/><path class="cls-11" d="M577.47,183.23c-.25.18-2.82,1.61-3.56,1.5,0,.2.5,2.36,0,3.52.21,1.08,3.2,1.09,4-.74A11.49,11.49,0,0,1,577.47,183.23Z"/><path class="cls-11" d="M574.77,179.65c-1.36-.1-2.67.22-3,1.5-.11.46.09,4.59,2.3,5.22.93.27,2.72-1.33,2.8-2.42,0,0,.1-1.48.1-1.5A2.47,2.47,0,0,0,574.77,179.65Z"/><path class="cls-6" d="M585.07,192.36c-.83-2.28-1.79-3.49-4.08-4-.77-.18-3-.81-3-.81a6.58,6.58,0,0,1-2.68,1.47,1.88,1.88,0,0,1-1.35-.73s-2.62.8-3.1,1.08c-1.85,1.07-1.88,2.88-2,4.39-1.08,15-1.75,17.18-1.28,18,1.15,2,20.25.69,19.89-1.82C586.27,201.54,585.32,193.06,585.07,192.36Z"/><path class="cls-29" d="M577.82,179c-2-1.8-5.05.1-5.05.1-2.33.45-1.83,3.86-.76,4.36-.5-2.51,1.2-3.32,1.2-3.32,3.17-.05,4.27,3.72,4,4.7C577.26,184.81,580.8,181.67,577.82,179Z"/><path class="cls-11" d="M577,181.88a1.31,1.31,0,0,0-.61.21c.14.49.47,1.28.63,1.67a1.32,1.32,0,0,0,.75-1C577.7,182.36,577.32,181.87,577,181.88Z"/><path class="cls-29" d="M585.35,181.21c-.66-9.19-8.13-5.32-8-2.91,0,.6.36.94.85.32.82-1.06,3.76-2,2,3.6-.45,1.47-2.38,3.38,1.8,6.05,3.78,2.41.66,3.34.87,4.45.54,2.87,8-3.34,4-7.63C586.21,184.22,585.55,184,585.35,181.21Z"/><path class="cls-10" d="M577.84,178.12a.89.89,0,0,0-.54-.14,1.14,1.14,0,0,0-.69.34,4.86,4.86,0,0,1,1.76,1.21A1,1,0,0,0,577.84,178.12Z"/><polygon class="cls-12" points="557.58 202.82 566.3 202.82 561.14 193.23 552.41 193.23 557.58 202.82"/><polygon class="cls-30" points="557.06 203.67 565.78 203.67 560.61 194.08 551.89 194.08 557.06 203.67"/><path class="cls-11" d="M563,198.85c-.14.11.19.83.34.93.43.14.51-.11.89.08a3.66,3.66,0,0,1-.82-.8C563.3,198.88,563.23,198.66,563,198.85Z"/><path class="cls-11" d="M561.54,199.06a7.59,7.59,0,0,0-1-.19,1,1,0,0,0-.51.34.31.31,0,0,0,.06.33c-.17.2.4.53.35.56-.22.17-.06.51.86.68.06,0,2.24.9,3,1.12a9.08,9.08,0,0,0,.3-1.9,9,9,0,0,0-1.23-.5C562.79,199.33,561.62,199.08,561.54,199.06Z"/><path class="cls-11" d="M578.77,189.46c-.75,2-1.47,8.72-2.43,11.89-1.17,3.88,2,3.31,2.69,2.25,1.94-2.79,5.93-11.38,4.59-12.54C583,190.56,578.91,189.1,578.77,189.46Z"/><path class="cls-8" d="M578.77,189.46c-1,1.12-1.18,5.19-2.09,8.29a11.06,11.06,0,0,0,5.54,1.95c1.66-3.47,2.42-6.82,2.28-8C584.14,188.69,580,188,578.77,189.46Z"/><path class="cls-11" d="M577.43,201.47c-2.23-.45-10.77-.69-13-1.53a7.85,7.85,0,0,1-.46,1.86c3.72,1.31,13.37,3.52,14.29,2.24a1.54,1.54,0,0,0-.41-2.41A1.59,1.59,0,0,0,577.43,201.47Z"/><path class="cls-11" d="M554.63,197.49c-.2-.37-.53-.94-.68-1.26s-.88,0-1,.23a2,2,0,0,0,.3,1.65,1.77,1.77,0,0,0,1.26.42C555,198.49,555,198.08,554.63,197.49Z"/><path class="cls-4" d="M535.45,228.26c0,1.32,5.53,29.15,5.53,29.15a2.4,2.4,0,0,0,1.79-.59s-1.27-27.68-1.28-28.26C541.06,229.08,536.26,228.76,535.45,228.26Z"/><path class="cls-10" d="M540,214.81c-2.52.62-5,1.24-7.57,1.67l.18,1.72c.78.49,1.48,9.08,3.71,18,2.58,10.31,4.41,20.34,4.41,20.34a1.87,1.87,0,0,1,2.24-.29s-.45-28.1-.87-42C541.4,214.45,540.7,214.62,540,214.81Z"/><path class="cls-8" d="M543.16,256.73a3.61,3.61,0,0,1-.41-.43s-1.41-.34-1.85.7a3.83,3.83,0,0,0,.33,1.65,8.34,8.34,0,0,0,1.8,1.63,3.58,3.58,0,0,0,1.83.07c.74-.11,1.62-.6,1.58-1C546.35,258.45,543.73,257.29,543.16,256.73Z"/><path class="cls-6" d="M542.8,257.39c-.73-.51-2,.37-1.13,1.54a6.43,6.43,0,0,0,1.51,1.38,3.06,3.06,0,0,0,1.54.05c.63-.09,1.37-.5,1.33-.87C546,258.77,543.55,257.91,542.8,257.39Z"/><path class="cls-11" d="M502.55,199.44c-.12.14.37.8.54.87.47.05.49-.23.92-.12a3.84,3.84,0,0,1-1-.63C502.85,199.41,502.72,199.21,502.55,199.44Z"/><path class="cls-11" d="M500,200a1,1,0,0,0-.43.45.32.32,0,0,0,.12.33c-.12.23.53.43.48.48-.18.21.05.52,1,.5.06,0,2.46.4,3.23.47a10.23,10.23,0,0,0-.11-2A9.65,9.65,0,0,0,503,200c-.55-.06-1.79-.06-1.87-.06A7.46,7.46,0,0,0,500,200Z"/><path class="cls-11" d="M504.2,200.23a7.67,7.67,0,0,1-.06,2c4.05.49,14.26.58,14.9-.91a1.58,1.58,0,0,0-.94-2.34,1.22,1.22,0,0,0-.44-.07C515.31,198.93,506.65,200.58,504.2,200.23Z"/><path class="cls-11" d="M517.37,198.31c-3.23,2.67-.21,4,1,3.47,3.26-1.3,11.59-6.41,11.1-8.17-.22-.77-2.94-4.37-3.26-4.14C524.46,190.73,520,196.13,517.37,198.31Z"/><path class="cls-8" d="M516.45,198.48c-1,.11-2.36.3-3.78.49-3.11.44-7,1-8.4.77l-.19,3c3.56.43,12,.58,14.53-.48s10.34-5.82,15.47-11.58c.62-.7-9.33-4.57-9.5-4.54C523.12,186.4,516.63,198.3,516.45,198.48Z"/><path class="cls-11" d="M517.71,192.27a4.15,4.15,0,0,0,.7,1c-.36-.26-.48,0-.9-.24-.13-.13-.34-.92-.17-1S517.62,192.07,517.71,192.27Z"/><path class="cls-11" d="M514.21,192.18a.31.31,0,0,1,0-.35,1.12,1.12,0,0,1,.57-.25,6.37,6.37,0,0,1,1,.37c.08,0,1.23.49,1.71.75a9.61,9.61,0,0,1,1.17.72,9.88,9.88,0,0,1-.63,1.88c-.7-.35-2.77-1.63-2.82-1.65-.91-.34-1-.71-.76-.84C514.53,192.78,514,192.36,514.21,192.18Z"/><path class="cls-11" d="M531.55,197.14a1.21,1.21,0,0,1,.38.23,1.58,1.58,0,0,1,0,2.52c-1.16,1.15-10.59-2.77-14.16-4.74a7.54,7.54,0,0,0,.8-1.82C520.71,194.58,529.36,196.29,531.55,197.14Z"/><path class="cls-8" d="M531.18,200.59c-2.75,0-10.51-3.27-13.64-5l1.27-2.67c1.25.72,10.8,3.12,11.77,3.4Z"/><path class="cls-4" d="M525.6,229.48c0,.58,1.65,28.24,1.65,28.24a2.37,2.37,0,0,0,1.84.4s2.58-28.25,2.48-29.56C530.82,229.14,526.08,230,525.6,229.48Z"/><path class="cls-10" d="M523.13,207.79c-.27,2,3.9,49.37,3.9,49.37a1.85,1.85,0,0,1,2.26.06s.78-10.17,2.28-20.7c1.3-9.08,1.11-17.7,1.83-18.26v-9.63C529.71,208.87,524.35,208.32,523.13,207.79Z"/><path class="cls-31" d="M536.28,210a104.74,104.74,0,0,1-11.06.55c-.85,0-1.69,0-2.51,0,.09,3.08-.16,5,.22,7.67,7.27,1.21,15.21,1.69,18.29.7a8.57,8.57,0,0,0,2.1-1,58.8,58.8,0,0,0-.72-9.62A22.8,22.8,0,0,1,536.28,210Z"/><path class="cls-11" d="M532.54,179.36c-.26.19-2.92,1.67-3.68,1.55,0,.21.61,2,.12,3.17.21,1.11,3.36,2,4.21.16A14.22,14.22,0,0,1,532.54,179.36Z"/><path class="cls-11" d="M529.75,175.67c-1.4-.1-2.76.22-3.07,1.54-.11.48.09,4.75,2.37,5.4,1,.27,2.81-1.38,2.89-2.5,0,0,.11-1.53.11-1.54A2.55,2.55,0,0,0,529.75,175.67Z"/><path class="cls-8" d="M533.08,184a2.82,2.82,0,0,1-2.1.75,3.15,3.15,0,0,1-2-.66s-2.72,1-3.47,1.27c-2.27.9-2.77,2.8-2.58,4.86.05.5-1.68,16.69-.19,27.22l1.72-.05.33-6.84,1.45,6.83c4.67,0,11.7.35,14.84-.42l.13-6.2,1,5.79c.24-.14.93-.41,1-.6.28-9.69-2-23.78-2.33-25C539.1,184,533.08,184,533.08,184Z"/><path class="cls-8" d="M527.22,257.2a3.31,3.31,0,0,1-.36.47c-.52.62-3,2-3,2.91,0,.44.92.83,1.67.86a3.53,3.53,0,0,0,1.81-.25,8,8,0,0,0,1.62-1.81,3.91,3.91,0,0,0,.16-1.68C528.59,256.72,527.22,257.2,527.22,257.2Z"/><path class="cls-6" d="M527.28,258.29c-.69.6-3,1.7-3,2.43,0,.37.77.7,1.41.72a3,3,0,0,0,1.53-.21,6.84,6.84,0,0,0,1.36-1.52C529.29,258.45,528,257.71,527.28,258.29Z"/><path class="cls-9" d="M532.68,174c-2.18-1.73-5.87-.08-6.85,2.16-.73,1.67-1.4.51-1.32.06-.23,1.11.24,2.08,2.39,1.93.45,0-1,.41-1,.41s2.28,4.76,5.82,3.61a5.39,5.39,0,0,0,2-1.37s-1.15.19-.54-.74C534.34,178.23,534.61,175.51,532.68,174Z"/><path class="cls-6" d="M611.9,198.66l-.65,2.51a1.27,1.27,0,0,1-.13.32l-.5.8a.9.9,0,0,0,.53,1.34s1,.34,2.07.66,2.54,0,2.53-.33c0-.66-.62-.12-1.68-.77-.35-.22-.59-.45-.92-.69-.91-.66-.2-2.45.3-3.47a.61.61,0,0,0-.44-.87l-.26,0A.75.75,0,0,0,611.9,198.66Z"/><path class="cls-32" d="M628.54,176.71c.09-.49.13-1,.19-1.18a2.59,2.59,0,0,1,.19-.33,1.37,1.37,0,0,0,.27-.62l0-.84c0-.4.17-.71.57-.73h0c.44,0,.65.35.61.79l0,.58a2.35,2.35,0,0,0,.22,1,3.73,3.73,0,0,1-.09,2.12c-.11.4-1.06.36-1.8.32-.5,0-1.1-.16-1-.38s2,0,1.65-1c0-.05-.07-.18-.14-.18s-.22.45-.31.67-.33.44-.46.41S628.47,177.06,628.54,176.71Z"/><path class="cls-12" d="M624.45,150.16s6.81,8.46,7,13.33a84,84,0,0,1-1,10.63,4.29,4.29,0,0,1-.66.09,3.43,3.43,0,0,1-.67-.06s-.31-9.26-.93-10.89-6.31-9.31-6.49-11S623.31,148.8,624.45,150.16Z"/><rect class="cls-6" x="616.12" y="158.55" width="29.59" height="18.76" rx="2" transform="translate(17.08 -54.46) rotate(5.01)"/><rect class="cls-4" x="617.96" y="159.94" width="25.9" height="15.99" rx="1.24" transform="translate(17.08 -54.46) rotate(5.01)"/><path class="cls-13" d="M644.41,162.29l.07-.8a.38.38,0,0,0-.35-.42l-25-2.2a.38.38,0,0,0-.42.35l-.07.81Z"/><circle class="cls-8" cx="630.49" cy="167.9" r="6.42" transform="translate(40.99 447.54) rotate(-40.29)"/><path class="cls-4" d="M627.67,170.67l.53-6a.79.79,0,0,1,1.29-.55l4.21,3.39a.8.8,0,0,1-.11,1.32l-4.74,2.61A.8.8,0,0,1,627.67,170.67Z"/><path class="cls-6" d="M622.1,199.16l.09,2.06a4.79,4.79,0,0,1-.13,1.25l-.15.64a.82.82,0,0,0,.83,1l4.42-.17a.2.2,0,0,0,.2-.18c0-.6-1.72-.94-3.05-1.39-1-.35-1-2.15-.95-3.2a.62.62,0,0,0-.7-.67h0A.63.63,0,0,0,622.1,199.16Z"/><polygon class="cls-32" points="626.69 168.94 623.2 149.69 615.73 148.95 612.63 169.33 626.69 168.94"/><path class="cls-10" d="M618.42,169.44l8.21-1s1,6-.62,16.89c-.78,5.12-2.44,14.92-2.44,14.92a2.34,2.34,0,0,1-1.53.21s-.32-4.29-.59-8.9c-.26-4.43-.47-9.16-.81-10.7C620,177.72,618.42,169.44,618.42,169.44Z"/><path class="cls-10" d="M620.12,169.48c1,4.53,3.18,11.28-.23,17.83s-7,13.36-7,13.36a2,2,0,0,1-1.38-.43s.53-2.93,1.33-6.35c.91-3.93,2.08-8.54,1.61-10.91-.89-4.43-1.94-10.34-1.8-13.24S619.58,167.1,620.12,169.48Z"/><path class="cls-4" d="M626.59,169.22a.71.71,0,0,0,.36-.78l-3.75-18.75-7.47-.74L612.49,169a.69.69,0,0,0,.57.79,47.88,47.88,0,0,0,8.49.49A11.88,11.88,0,0,0,626.59,169.22Z"/><path class="cls-12" d="M618.07,149.92a35.31,35.31,0,0,0,.55,3.79c.38,2.76.54,6.45.79,10.68.45,7.3.06,9.29-1.83,10.76s-5.7-.72-5.84-1.49a102.94,102.94,0,0,1,1.12-14.52,69.69,69.69,0,0,1,3.2-10.22l1.12.08a1,1,0,0,1,.89.92Z"/><path class="cls-12" d="M621.17,149.49a32,32,0,0,1,1.32,7.21c.27,4.23,1,13.74,2.61,17.49.51,1.19,3.71-2.14,3.68-3.1a49.07,49.07,0,0,0-2-7c-.76-2.32-2-10.21-2.41-13.16-.1-.66-.22-1.19-.88-1.25Z"/><path class="cls-9" d="M616.7,142.16a.62.62,0,0,0-.71.79,2.07,2.07,0,0,1,0,1.06c-.2.88.84,1.09,1.22,1.42s.49,1.08,1.12,1.12,2.06-.57,2-1.18A7.14,7.14,0,0,0,616.7,142.16Z"/><path class="cls-7" d="M619.8,140.9c-1.65.06-2.23,1.26-2.18,3.45a4.42,4.42,0,0,0,.74,2.12,1.64,1.64,0,0,1,.2,1.26l-.32,1.25a1.52,1.52,0,0,0,1.18,2,1.58,1.58,0,0,0,1.21-.24,1.31,1.31,0,0,0,.32-1.34l-.11-.35a.88.88,0,0,1,.58-1.11c1.27-.33,1.4-1.67,1.67-3.75A3,3,0,0,0,619.8,140.9Z"/><path class="cls-9" d="M623.26,141.09a1.23,1.23,0,0,0-1.08-1.07,5.31,5.31,0,0,1-.67-.08l-1.81-.25c-1.15,0-3,.76-2.73,2.41l.25,1.12a1.12,1.12,0,0,0,1,.87h0a.26.26,0,0,1,.21,0,.22.22,0,0,1,.13.15l.18.64c.2,0,.22-.71.21-.91a1.13,1.13,0,0,1,.85-1.13c.63-.17.75-.67,1.47-.51l.53.16a1.09,1.09,0,0,0,1.34-1C623.13,141.43,623.27,141.21,623.26,141.09Z"/><path class="cls-7" d="M618.54,144.36c0,.5-.15.92-.64.94s-.83-.67-.85-1.17.29-.65.78-.67S618.52,143.85,618.54,144.36Z"/><path class="cls-9" d="M622,142.24c.65.15,1.05,1.2,1.09,1.62h0a.24.24,0,0,0,.23-.25l0-.69c0-.12-.4-.89-.52-.89Z"/><path class="cls-32" d="M612.52,176.3c-.13-.49-.21-1-.28-1.17a2.53,2.53,0,0,0-.21-.32,1.46,1.46,0,0,1-.32-.6l0-.83c0-.4-.22-.7-.63-.68h0c-.43,0-.62.39-.55.83l0,.58a2.4,2.4,0,0,1-.14,1,3.76,3.76,0,0,0,.24,2.1c.14.39.66.61,1.35.87.35.13.92.22.69-.17s-1.23-.8-1-1.88c0-.06.06-.19.12-.2s.26.43.36.65.37.41.5.37S612.62,176.64,612.52,176.3Z"/><path class="cls-12" d="M614.58,149.51s-6.15,9-6,13.82a84.88,84.88,0,0,0,1.8,10.52,4.8,4.8,0,0,0,.67,0,3.21,3.21,0,0,0,.66-.11s-.39-9.26.1-10.93,5.41-9.77,5.62-11.5S616.12,148.08,614.58,149.51Z"/><path class="cls-12" d="M671.44,119.59a3.07,3.07,0,0,0,1.09-2.55c-.23-1.46-.32-3.16-.32-3.16s2.12,5.17,2.5,6.44l-.85.88C674.08,120.79,672.06,118.88,671.44,119.59Z"/><path class="cls-9" d="M673.47,146.44l.2,1.06a3.73,3.73,0,0,0,.32.83.5.5,0,0,1,.11.38l-1.45,1.41-.45-.67s.43-.68.4-.91a7.78,7.78,0,0,0-.22-.76l-.4-1.23Z"/><path class="cls-6" d="M673.1,151c.92-.43,1.79-1.23,1.36-1.9l-.5-.77a2.28,2.28,0,0,1-1.76,1.16s-3.41,2.25-3.32,2.71a.76.76,0,0,0,.09.18C669.27,152.71,672.26,151.35,673.1,151Z"/><path class="cls-9" d="M676.08,154.26A10.53,10.53,0,0,0,676,156a.69.69,0,0,1,0,.45l-1.71,1.24s.13-1.25.25-2.68c0-.33,0-1.33,0-1.33Z"/><path class="cls-6" d="M674.85,158.49c.94-.33,1.65-.78,1.44-1.55L676,156c-.17.58-1.5,1-1.61.74,0,0-4,2.11-4,2.59a.86.86,0,0,0,0,.21C670.6,160,673.92,158.81,674.85,158.49Z"/><path class="cls-12" d="M680.33,124.25c-6.37,1.48-15.46,5-15.46,8.76,0,2.48,7.35,15.05,7.35,15.05s1.3-.12,1.61-.6c0-1.15-6-12.74-4.18-13.71,3.43-1.89,11.62-2.67,11.62-2.67Z"/><path class="cls-12" d="M686.57,128.73c0,4.05-8.14,10.74-8.42,12.32-.46,2.59-2.07,13.21-2.07,13.21-.22.45-1.5.57-1.5.15,0,0-.73-14.25-.42-15.36.52-1.88,2.45-7.79,4.18-10.37.58-.86,2.21-3.45,2.21-3.45S686.61,122.11,686.57,128.73Z"/><path class="cls-6" d="M685.14,131.08s3.81.31,2.84-7.43c-.81-6.43-3.56-9-9.34-12.17-5.42-3-6.74,1.14-6.37,3.5a52.62,52.62,0,0,1,2.82,6.44,14,14,0,0,1,1,5.31c-.19,1.92,8,4.08,8,4.08l.56-3.85Z"/><path class="cls-7" d="M667.44,113c1.61,3.12,2.15,3.14,2.83,3s.69-.62,1.44-.91,1,.39,1.78.63c.55.16.64-1.51.08-2.21s-.74-1.46-1.94-1.06-1.45-.34-2.94-.35S667.44,113,667.44,113Z"/><path class="cls-9" d="M667.2,111.28c-1.31,1.59.18,1.91.84,1.79a6.1,6.1,0,0,1,2.13.16c.85-1.24,1.47.19,1.16.46-.47.4,1.7-.46,2.48,1.35s2.33,1.16,2.9-.51,1.17-3.27,2.68-2.54a21.86,21.86,0,0,1,5.42,4.08,17,17,0,0,1,2.75,5.23c.19-1.16,1.6.43,2.06-1.14.72-2.42-1.33-5.43-4-5.82-2.29-.33-2.8-1.46-4.11-4s-5.84.38-7.42-.22C669.3,108.34,669,109.11,667.2,111.28Z"/><path class="cls-7" d="M680,120.32c-1.48,4.77-1.81,6.93-6.23,8.25s-6.57.72-7.48,1.77-.61,0-.53-.13a5.49,5.49,0,0,1,1.29-1.76,2.15,2.15,0,0,1,1.47-.39c.6,0,6.41-.65,7.18-3.15.54-1.74,1.24-5.41,1.24-5.41l2-.81Z"/><path class="cls-12" d="M677.85,112.64c-.87,1.81-.87,6.86-.87,6.86s2.54-.42,3.06.82c0,0,1.18-2.77,1-4.32S678.36,111.61,677.85,112.64Z"/><path class="cls-7" d="M674.33,120.72s-7,7.49-13.12,10.73a2.4,2.4,0,0,0-1.23,1c-.22.36-1.07.84-.82.16s-.21-.5-.68-.23l-1,.56s-.37-.56,1.1-1.39a17.16,17.16,0,0,0,2.12-1.14c.36-.31,5.58-5.2,5.58-5.2l5.92-6.52S674.24,119.44,674.33,120.72Z"/><path class="cls-12" d="M635.89,129a1.68,1.68,0,0,0-1.68-1.68h-8.9a1.68,1.68,0,0,0-1.69,1.68v5.67a1.68,1.68,0,0,0,1.69,1.69h2.63a1.38,1.38,0,0,1,1.13.6l.51.75a.2.2,0,0,0,.18.09.21.21,0,0,0,.18-.09l.5-.75a1.39,1.39,0,0,1,1.14-.6h2.63a1.68,1.68,0,0,0,1.68-1.69Z"/><path class="cls-12" d="M644.62,141.23a1.68,1.68,0,0,0-1.68-1.68H634a1.68,1.68,0,0,0-1.69,1.68v5.68a1.68,1.68,0,0,0,1.69,1.68h2.63a1.36,1.36,0,0,1,1.13.61l.51.74a.2.2,0,0,0,.18.09.21.21,0,0,0,.18-.09l.5-.74a1.38,1.38,0,0,1,1.14-.61h2.63a1.68,1.68,0,0,0,1.68-1.68Z"/><path class="cls-26" d="M659.55,133.38a1.69,1.69,0,0,0-1.69-1.69H649a1.69,1.69,0,0,0-1.69,1.69v5.67a1.69,1.69,0,0,0,1.69,1.69h2.63a1.37,1.37,0,0,1,1.14.6l.5.74a.21.21,0,0,0,.36,0l.51-.74a1.35,1.35,0,0,1,1.13-.6h2.63a1.69,1.69,0,0,0,1.69-1.69Z"/><path class="cls-26" d="M631.05,130.08a1.3,1.3,0,1,1-1.29-1.29A1.3,1.3,0,0,1,631.05,130.08Z"/><path class="cls-26" d="M631.78,134.85a.4.4,0,0,0,.39-.47,2.42,2.42,0,0,0-4.83,0,.4.4,0,0,0,.39.47Z"/><path class="cls-26" d="M641.09,143.91a.7.7,0,0,0-.68-.87h-.76a.27.27,0,0,1-.26-.36l.41-.79a.42.42,0,0,0-.38-.61h0a.65.65,0,0,0-.59.35l-.71,1.29a.23.23,0,0,1-.2.12.35.35,0,0,0-.35.35v2.92a.35.35,0,0,0,.35.35h2.13a.55.55,0,0,0,.53-.43Z"/><path class="cls-4" d="M654.77,134.07a1.55,1.55,0,0,0-.8.22,1.06,1.06,0,0,1-1.11,0,1.55,1.55,0,0,0-1.09-.21,1.51,1.51,0,0,0-1.23,1.41c-.06,1.52,1.84,2.87,2.58,3.34a.55.55,0,0,0,.58,0c.72-.47,2.53-1.77,2.58-3.2A1.54,1.54,0,0,0,654.77,134.07Z"/><rect class="cls-26" x="635.28" y="143.04" width="1.5" height="3.61" rx="0.75"/><path class="cls-12" d="M455.25,156.56l14.63-.08.07,7.14c0,1.19,0,2.19,0,2.19l-2.15,0,0,2.38-2.4-2.36-10.11.05Z"/><rect class="cls-26" x="456.88" y="159.84" width="10.86" height="0.58" transform="translate(-1.41 4.14) rotate(-0.51)"/><rect class="cls-26" x="456.9" y="162.03" width="10.86" height="0.6" transform="translate(-1.43 4.14) rotate(-0.51)"/><path class="cls-5" d="M460.37,169.87l-9-.05,0,4.4c0,.73,0,1.34,0,1.34h1.32V177l1.48-1.45,6.21,0Z"/><rect class="cls-12" x="455.84" y="168.73" width="0.35" height="6.68" transform="translate(279.89 626.53) rotate(-89.49)"/><rect class="cls-12" x="455.82" y="170.08" width="0.37" height="6.68" transform="translate(278.52 627.86) rotate(-89.49)"/><path class="cls-7" d="M463.73,202.21l1.36-1.6a4.39,4.39,0,0,1-.8-.12c-.3-.1-.36-.46,0-.39a4.34,4.34,0,0,0,1.36-.21l4.18-4.92,1.24,1.41c-1.78,1.51-4.44,3.51-4.78,4C464.45,203.3,463.73,202.21,463.73,202.21Z"/></g></g></g></svg>