<svg width="511" height="93" viewBox="0 0 511 93" fill="none" xmlns="http://www.w3.org/2000/svg">
<circle cx="181.827" cy="18.6985" r="4" transform="rotate(-15.0614 181.827 18.6985)" fill="#DD3B25"/>
<path d="M157.618 43.1398L156.696 33.8552L164.62 31.7228L165.532 41.5646C165.57 41.9491 165.472 42.3341 165.255 42.6514C165.037 42.9687 164.715 43.1976 164.345 43.2974L159.654 44.5597C159.427 44.6207 159.189 44.6311 158.957 44.5903C158.725 44.5494 158.505 44.4583 158.311 44.3231C158.117 44.188 157.955 44.0122 157.835 43.8078C157.716 43.6035 157.642 43.3755 157.618 43.1398Z" fill="#DD3B25"/>
<line x1="188.587" y1="16.8795" x2="198.243" y2="14.281" stroke="#B9C2F8"/>
<line x1="185.907" y1="12.1302" x2="190.898" y2="3.46462" stroke="#B9C2F8"/>
<line y1="-0.5" x2="10" y2="-0.5" transform="matrix(0.866561 0.499072 0.499072 -0.866561 188.92 21.9676)" stroke="#B9C2F8"/>
<path d="M177.161 4.63906C177.435 4.56354 177.724 4.56206 178 4.63479C178.276 4.70876 178.527 4.85471 178.73 5.05787C178.932 5.26103 179.078 5.51422 179.153 5.79182L186.014 31.2907C186.083 31.5468 186.089 31.8156 186.031 32.074C185.974 32.3323 185.855 32.5724 185.684 32.7735C185.513 32.9745 185.297 33.1305 185.052 33.2279C184.808 33.3253 184.543 33.3613 184.282 33.3326C177.95 32.6372 171.573 32.5003 165.222 32.9234C165.041 32.935 164.86 32.9565 164.678 32.9701L156.696 33.8553C154.543 34.1758 152.4 34.5481 150.284 34.9991C149.878 35.0854 149.454 35.0113 149.1 34.7921C148.745 34.5729 148.487 34.2254 148.379 33.8212L145.901 24.6123C145.789 24.1964 145.845 23.7534 146.056 23.38C146.267 23.0065 146.616 22.7328 147.028 22.6185C151.841 21.28 156.481 19.3846 160.857 16.97C166.601 13.7882 171.85 9.77762 176.438 5.06504C176.638 4.8615 176.887 4.71459 177.161 4.63906Z" fill="#EB4F3A"/>
<path d="M468.438 68H8.56154C1.83462 68 0 71.5714 0 73.6122C0 75.6531 3.05769 78.2041 7.95 78.2041C59.3192 78.2041 97.2346 93 127.812 93H349.188C379.765 93 417.681 78.2041 469.05 78.2041C473.942 78.2041 477 75.6531 477 73.6122C477 71.5714 475.165 68 468.438 68Z" fill="#333333"/>
<path d="M14.7074 73H23.0994L30.8352 46.3722H31.1534L38.9091 73H47.3011L58.9545 32.2727H49.5483L42.8068 60.6307H42.4489L35.0312 32.2727H26.9773L19.5398 60.571H19.2017L12.4602 32.2727H3.05398L14.7074 73ZM165.143 52.6364C165.143 39.3125 156.87 31.7159 146.072 31.7159C135.214 31.7159 127.001 39.3125 127.001 52.6364C127.001 65.9006 135.214 73.5568 146.072 73.5568C156.87 73.5568 165.143 65.9602 165.143 52.6364ZM156.413 52.6364C156.413 61.267 152.316 65.9403 146.072 65.9403C139.808 65.9403 135.731 61.267 135.731 52.6364C135.731 44.0057 139.808 39.3324 146.072 39.3324C152.316 39.3324 156.413 44.0057 156.413 52.6364ZM211.57 73H219.962L227.698 46.3722H228.016L235.772 73H244.164L255.817 32.2727H246.411L239.67 60.6307H239.312L231.894 32.2727H223.84L216.403 60.571H216.065L209.323 32.2727H199.917L211.57 73ZM269.386 73H296.909V65.9006H277.997V56.1761H295.417V49.0767H277.997V39.3722H296.829V32.2727H269.386V73ZM341.576 73L344.599 63.7131H359.295L362.317 73H371.545L357.505 32.2727H346.408L332.349 73H341.576ZM346.786 56.9915L351.798 41.5795H352.116L357.127 56.9915H346.786ZM385.407 73H394.017V58.5625H400.302L408.017 73H417.523L408.873 57.1705C413.506 55.1818 416.071 51.1449 416.071 45.5767C416.071 37.483 410.722 32.2727 401.475 32.2727H385.407V73ZM394.017 51.642V39.3125H399.824C404.796 39.3125 407.202 41.5199 407.202 45.5767C407.202 49.6136 404.796 51.642 399.864 51.642H394.017ZM431.117 73H458.639V65.9006H439.727V56.1761H457.148V49.0767H439.727V39.3722H458.56V32.2727H431.117V73Z" fill="white"/>
<path d="M14.7074 73L13.746 73.2751L13.9534 74H14.7074V73ZM23.0994 73V74H23.8503L24.0597 73.279L23.0994 73ZM30.8352 46.3722V45.3722H30.0844L29.8749 46.0932L30.8352 46.3722ZM31.1534 46.3722L32.1135 46.0925L31.9037 45.3722H31.1534V46.3722ZM38.9091 73L37.949 73.2796L38.1588 74H38.9091V73ZM47.3011 73V74H48.0551L48.2626 73.2751L47.3011 73ZM58.9545 32.2727L59.916 32.5478L60.2808 31.2727H58.9545V32.2727ZM49.5483 32.2727V31.2727H48.7582L48.5754 32.0414L49.5483 32.2727ZM42.8068 60.6307V61.6307H43.597L43.7797 60.862L42.8068 60.6307ZM42.4489 60.6307L41.4814 60.8837L41.6768 61.6307H42.4489V60.6307ZM35.0312 32.2727L35.9987 32.0197L35.8033 31.2727H35.0312V32.2727ZM26.9773 32.2727V31.2727H26.2061L26.0101 32.0185L26.9773 32.2727ZM19.5398 60.571V61.571H20.3109L20.5069 60.8252L19.5398 60.571ZM19.2017 60.571L18.2289 60.8028L18.4119 61.571H19.2017V60.571ZM12.4602 32.2727L13.433 32.041L13.25 31.2727H12.4602V32.2727ZM3.05398 32.2727V31.2727H1.72771L2.09256 32.5478L3.05398 32.2727ZM14.7074 74H23.0994V72H14.7074V74ZM24.0597 73.279L31.7955 46.6511L29.8749 46.0932L22.1391 72.721L24.0597 73.279ZM30.8352 47.3722H31.1534V45.3722H30.8352V47.3722ZM30.1933 46.6518L37.949 73.2796L39.8692 72.7204L32.1135 46.0925L30.1933 46.6518ZM38.9091 74H47.3011V72H38.9091V74ZM48.2626 73.2751L59.916 32.5478L57.9931 31.9976L46.3397 72.7249L48.2626 73.2751ZM58.9545 31.2727H49.5483V33.2727H58.9545V31.2727ZM48.5754 32.0414L41.8339 60.3994L43.7797 60.862L50.5212 32.504L48.5754 32.0414ZM42.8068 59.6307H42.4489V61.6307H42.8068V59.6307ZM43.4163 60.3776L35.9987 32.0197L34.0638 32.5258L41.4814 60.8837L43.4163 60.3776ZM35.0312 31.2727H26.9773V33.2727H35.0312V31.2727ZM26.0101 32.0185L18.5726 60.3168L20.5069 60.8252L27.9444 32.5269L26.0101 32.0185ZM19.5398 59.571H19.2017V61.571H19.5398V59.571ZM20.1745 60.3393L13.433 32.041L11.4875 32.5045L18.2289 60.8028L20.1745 60.3393ZM12.4602 31.2727H3.05398V33.2727H12.4602V31.2727ZM2.09256 32.5478L13.746 73.2751L15.6688 72.7249L4.01539 31.9976L2.09256 32.5478ZM166.143 52.6364C166.143 45.7644 164.006 40.2703 160.379 36.4876C156.751 32.7042 151.712 30.7159 146.072 30.7159V32.7159C151.231 32.7159 155.727 34.5259 158.935 37.8718C162.144 41.2183 164.143 46.1845 164.143 52.6364H166.143ZM146.072 30.7159C140.404 30.7159 135.364 32.7035 131.742 36.4884C128.122 40.2721 126.001 45.7664 126.001 52.6364H128.001C128.001 46.1825 129.986 41.2166 133.187 37.871C136.387 34.5266 140.882 32.7159 146.072 32.7159V30.7159ZM126.001 52.6364C126.001 59.4775 128.123 64.971 131.742 68.7612C135.362 72.5528 140.402 74.5568 146.072 74.5568V72.5568C140.885 72.5568 136.389 70.7327 133.188 67.3801C129.986 64.0262 128.001 59.0594 128.001 52.6364H126.001ZM146.072 74.5568C151.712 74.5568 156.751 72.5686 160.379 68.7851C164.006 65.0024 166.143 59.5083 166.143 52.6364H164.143C164.143 59.0883 162.144 64.0544 158.935 67.4009C155.727 70.7468 151.231 72.5568 146.072 72.5568V74.5568ZM155.413 52.6364C155.413 56.8071 154.422 59.8846 152.804 61.8987C151.209 63.8859 148.923 64.9403 146.072 64.9403V66.9403C149.466 66.9403 152.35 65.6581 154.364 63.151C156.356 60.6708 157.413 57.0963 157.413 52.6364H155.413ZM146.072 64.9403C143.211 64.9403 140.926 63.8854 139.333 61.8992C137.718 59.8855 136.731 56.8082 136.731 52.6364H134.731C134.731 57.0952 135.783 60.6699 137.772 63.1505C139.784 65.6586 142.669 66.9403 146.072 66.9403V64.9403ZM136.731 52.6364C136.731 48.4645 137.718 45.3872 139.333 43.3735C140.926 41.3873 143.211 40.3324 146.072 40.3324V38.3324C142.669 38.3324 139.784 39.6141 137.772 42.1222C135.783 44.6028 134.731 48.1775 134.731 52.6364H136.731ZM146.072 40.3324C148.923 40.3324 151.209 41.3868 152.804 43.374C154.422 45.3882 155.413 48.4656 155.413 52.6364H157.413C157.413 48.1764 156.356 44.6019 154.364 42.1217C152.35 39.6146 149.466 38.3324 146.072 38.3324V40.3324ZM211.57 73L210.609 73.2751L210.816 74H211.57V73ZM219.962 73V74H220.713L220.923 73.279L219.962 73ZM227.698 46.3722V45.3722H226.947L226.738 46.0932L227.698 46.3722ZM228.016 46.3722L228.976 46.0925L228.767 45.3722H228.016V46.3722ZM235.772 73L234.812 73.2796L235.022 74H235.772V73ZM244.164 73V74H244.918L245.125 73.2751L244.164 73ZM255.817 32.2727L256.779 32.5478L257.144 31.2727H255.817V32.2727ZM246.411 32.2727V31.2727H245.621L245.438 32.0414L246.411 32.2727ZM239.67 60.6307V61.6307H240.46L240.643 60.862L239.67 60.6307ZM239.312 60.6307L238.344 60.8837L238.54 61.6307H239.312V60.6307ZM231.894 32.2727L232.862 32.0197L232.666 31.2727H231.894V32.2727ZM223.84 32.2727V31.2727H223.069L222.873 32.0185L223.84 32.2727ZM216.403 60.571V61.571H217.174L217.37 60.8252L216.403 60.571ZM216.065 60.571L215.092 60.8028L215.275 61.571H216.065V60.571ZM209.323 32.2727L210.296 32.041L210.113 31.2727H209.323V32.2727ZM199.917 32.2727V31.2727H198.591L198.955 32.5478L199.917 32.2727ZM211.57 74H219.962V72H211.57V74ZM220.923 73.279L228.658 46.6511L226.738 46.0932L219.002 72.721L220.923 73.279ZM227.698 47.3722H228.016V45.3722H227.698V47.3722ZM227.056 46.6518L234.812 73.2796L236.732 72.7204L228.976 46.0925L227.056 46.6518ZM235.772 74H244.164V72H235.772V74ZM245.125 73.2751L256.779 32.5478L254.856 31.9976L243.203 72.7249L245.125 73.2751ZM255.817 31.2727H246.411V33.2727H255.817V31.2727ZM245.438 32.0414L238.697 60.3994L240.643 60.862L247.384 32.504L245.438 32.0414ZM239.67 59.6307H239.312V61.6307H239.67V59.6307ZM240.279 60.3776L232.862 32.0197L230.927 32.5258L238.344 60.8837L240.279 60.3776ZM231.894 31.2727H223.84V33.2727H231.894V31.2727ZM222.873 32.0185L215.435 60.3168L217.37 60.8252L224.807 32.5269L222.873 32.0185ZM216.403 59.571H216.065V61.571H216.403V59.571ZM217.037 60.3393L210.296 32.041L208.35 32.5045L215.092 60.8028L217.037 60.3393ZM209.323 31.2727H199.917V33.2727H209.323V31.2727ZM198.955 32.5478L210.609 73.2751L212.532 72.7249L200.878 31.9976L198.955 32.5478ZM269.386 73H268.386V74H269.386V73ZM296.909 73V74H297.909V73H296.909ZM296.909 65.9006H297.909V64.9006H296.909V65.9006ZM277.997 65.9006H276.997V66.9006H277.997V65.9006ZM277.997 56.1761V55.1761H276.997V56.1761H277.997ZM295.417 56.1761V57.1761H296.417V56.1761H295.417ZM295.417 49.0767H296.417V48.0767H295.417V49.0767ZM277.997 49.0767H276.997V50.0767H277.997V49.0767ZM277.997 39.3722V38.3722H276.997V39.3722H277.997ZM296.829 39.3722V40.3722H297.829V39.3722H296.829ZM296.829 32.2727H297.829V31.2727H296.829V32.2727ZM269.386 32.2727V31.2727H268.386V32.2727H269.386ZM269.386 74H296.909V72H269.386V74ZM297.909 73V65.9006H295.909V73H297.909ZM296.909 64.9006H277.997V66.9006H296.909V64.9006ZM278.997 65.9006V56.1761H276.997V65.9006H278.997ZM277.997 57.1761H295.417V55.1761H277.997V57.1761ZM296.417 56.1761V49.0767H294.417V56.1761H296.417ZM295.417 48.0767H277.997V50.0767H295.417V48.0767ZM278.997 49.0767V39.3722H276.997V49.0767H278.997ZM277.997 40.3722H296.829V38.3722H277.997V40.3722ZM297.829 39.3722V32.2727H295.829V39.3722H297.829ZM296.829 31.2727H269.386V33.2727H296.829V31.2727ZM268.386 32.2727V73H270.386V32.2727H268.386ZM341.576 73V74H342.302L342.527 73.3095L341.576 73ZM344.599 63.7131V62.7131H343.873L343.648 63.4036L344.599 63.7131ZM359.295 63.7131L360.246 63.4036L360.021 62.7131H359.295V63.7131ZM362.317 73L361.367 73.3095L361.591 74H362.317V73ZM371.545 73V74H372.947L372.49 72.6741L371.545 73ZM357.505 32.2727L358.45 31.9468L358.218 31.2727H357.505V32.2727ZM346.408 32.2727V31.2727H345.696L345.463 31.9464L346.408 32.2727ZM332.349 73L331.403 72.6737L330.946 74H332.349V73ZM346.786 56.9915L345.835 56.6823L345.409 57.9915H346.786V56.9915ZM351.798 41.5795V40.5795H351.071L350.847 41.2703L351.798 41.5795ZM352.116 41.5795L353.067 41.2703L352.842 40.5795H352.116V41.5795ZM357.127 56.9915V57.9915H358.504L358.078 56.6823L357.127 56.9915ZM342.527 73.3095L345.55 64.0226L343.648 63.4036L340.625 72.6905L342.527 73.3095ZM344.599 64.7131H359.295V62.7131H344.599V64.7131ZM358.344 64.0226L361.367 73.3095L363.268 72.6905L360.246 63.4036L358.344 64.0226ZM362.317 74H371.545V72H362.317V74ZM372.49 72.6741L358.45 31.9468L356.56 32.5986L370.599 73.3259L372.49 72.6741ZM357.505 31.2727H346.408V33.2727H357.505V31.2727ZM345.463 31.9464L331.403 72.6737L333.294 73.3263L347.354 32.599L345.463 31.9464ZM332.349 74H341.576V72H332.349V74ZM347.737 57.3007L352.749 41.8888L350.847 41.2703L345.835 56.6823L347.737 57.3007ZM351.798 42.5795H352.116V40.5795H351.798V42.5795ZM351.165 41.8888L356.176 57.3007L358.078 56.6823L353.067 41.2703L351.165 41.8888ZM357.127 55.9915H346.786V57.9915H357.127V55.9915ZM385.407 73H384.407V74H385.407V73ZM394.017 73V74H395.017V73H394.017ZM394.017 58.5625V57.5625H393.017V58.5625H394.017ZM400.302 58.5625L401.184 58.0912L400.901 57.5625H400.302V58.5625ZM408.017 73L407.136 73.4713L407.418 74H408.017V73ZM417.523 73V74H419.209L418.401 72.5205L417.523 73ZM408.873 57.1705L408.478 56.2515L407.468 56.6852L407.995 57.65L408.873 57.1705ZM385.407 32.2727V31.2727H384.407V32.2727H385.407ZM394.017 51.642H393.017V52.642H394.017V51.642ZM394.017 39.3125V38.3125H393.017V39.3125H394.017ZM385.407 74H394.017V72H385.407V74ZM395.017 73V58.5625H393.017V73H395.017ZM394.017 59.5625H400.302V57.5625H394.017V59.5625ZM399.42 59.0338L407.136 73.4713L408.899 72.5287L401.184 58.0912L399.42 59.0338ZM408.017 74H417.523V72H408.017V74ZM418.401 72.5205L409.75 56.6909L407.995 57.65L416.646 73.4795L418.401 72.5205ZM409.267 58.0894C414.303 55.928 417.071 51.5052 417.071 45.5767H415.071C415.071 50.7846 412.709 54.4356 408.478 56.2515L409.267 58.0894ZM417.071 45.5767C417.071 41.3019 415.652 37.6918 412.921 35.1566C410.198 32.6292 406.282 31.2727 401.475 31.2727V33.2727C405.915 33.2727 409.297 34.5214 411.561 36.6225C413.816 38.7159 415.071 41.7577 415.071 45.5767H417.071ZM401.475 31.2727H385.407V33.2727H401.475V31.2727ZM384.407 32.2727V73H386.407V32.2727H384.407ZM395.017 51.642V39.3125H393.017V51.642H395.017ZM394.017 40.3125H399.824V38.3125H394.017V40.3125ZM399.824 40.3125C402.183 40.3125 403.752 40.8386 404.723 41.6793C405.668 42.4973 406.202 43.7503 406.202 45.5767H408.202C408.202 43.3463 407.533 41.4672 406.032 40.1673C404.557 38.8901 402.438 38.3125 399.824 38.3125V40.3125ZM406.202 45.5767C406.202 47.39 405.67 48.5842 404.744 49.354C403.781 50.1538 402.218 50.642 399.864 50.642V52.642C402.441 52.642 404.548 52.1161 406.021 50.8925C407.531 49.6389 408.202 47.8004 408.202 45.5767H406.202ZM399.864 50.642H394.017V52.642H399.864V50.642ZM431.117 73H430.117V74H431.117V73ZM458.639 73V74H459.639V73H458.639ZM458.639 65.9006H459.639V64.9006H458.639V65.9006ZM439.727 65.9006H438.727V66.9006H439.727V65.9006ZM439.727 56.1761V55.1761H438.727V56.1761H439.727ZM457.148 56.1761V57.1761H458.148V56.1761H457.148ZM457.148 49.0767H458.148V48.0767H457.148V49.0767ZM439.727 49.0767H438.727V50.0767H439.727V49.0767ZM439.727 39.3722V38.3722H438.727V39.3722H439.727ZM458.56 39.3722V40.3722H459.56V39.3722H458.56ZM458.56 32.2727H459.56V31.2727H458.56V32.2727ZM431.117 32.2727V31.2727H430.117V32.2727H431.117ZM431.117 74H458.639V72H431.117V74ZM459.639 73V65.9006H457.639V73H459.639ZM458.639 64.9006H439.727V66.9006H458.639V64.9006ZM440.727 65.9006V56.1761H438.727V65.9006H440.727ZM439.727 57.1761H457.148V55.1761H439.727V57.1761ZM458.148 56.1761V49.0767H456.148V56.1761H458.148ZM457.148 48.0767H439.727V50.0767H457.148V48.0767ZM440.727 49.0767V39.3722H438.727V49.0767H440.727ZM439.727 40.3722H458.56V38.3722H439.727V40.3722ZM459.56 39.3722V32.2727H457.56V39.3722H459.56ZM458.56 31.2727H431.117V33.2727H458.56V31.2727ZM430.117 32.2727V73H432.117V32.2727H430.117Z" fill="white"/>
<path fill-rule="evenodd" clip-rule="evenodd" d="M452 10C449.791 10 448 11.7909 448 14V33C448 35.2091 449.791 37 452 37H470V46.5L479.5 37H485C487.209 37 489 35.2091 489 33V14C489 11.7909 487.209 10 485 10H452Z" fill="#276EF1"/>
<path fill-rule="evenodd" clip-rule="evenodd" d="M489 41C486.791 41 485 42.7909 485 45V54.122C485 56.3311 486.791 58.122 489 58.122H498.951V64.1463L504.976 58.122H507C509.209 58.122 511 56.3311 511 54.122V45C511 42.7909 509.209 41 507 41H489Z" fill="#EB4F3A"/>
<rect x="101" y="73" width="41" height="11" transform="rotate(-90 101 73)" fill="#E2EEF7"/>
<rect x="75" y="73" width="41" height="11" transform="rotate(-90 75 73)" fill="#93B7F8"/>
<rect x="75" y="47" width="37" height="10" fill="#3870E9"/>
<circle cx="198" cy="63" r="2" stroke="#B9C2F8"/>
<circle cx="464" cy="90" r="2" stroke="#B9C2F8"/>
<circle cx="377" cy="17" r="2" stroke="#B9C2F8"/>
<line x1="135" y1="25.5" x2="140" y2="25.5" stroke="#B9C2F8"/>
<line x1="137.5" y1="28" x2="137.5" y2="23" stroke="#B9C2F8"/>
<line x1="324" y1="43.5" x2="329" y2="43.5" stroke="#B9C2F8"/>
<line x1="326.5" y1="46" x2="326.5" y2="41" stroke="#B9C2F8"/>
<line x1="59" y1="86.5" x2="64" y2="86.5" stroke="#B9C2F8"/>
<line x1="61.5" y1="89" x2="61.5" y2="84" stroke="#B9C2F8"/>
<line x1="178" y1="83.5" x2="225" y2="83.5" stroke="#B9C2F8"/>
<rect x="310" y="67" width="31" height="21" fill="#5D92F5"/>
<rect x="304" y="67" width="6" height="21" fill="#93B7F8"/>
<path fill-rule="evenodd" clip-rule="evenodd" d="M325 73H334V84H325C322.791 84 321 81.5376 321 78.5C321 75.4624 322.791 73 325 73Z" fill="#276EF1"/>
<path fill-rule="evenodd" clip-rule="evenodd" d="M334 83.9054C335.206 82.7394 336 80.7536 336 78.5C336 76.2464 335.206 74.2606 334 73.0946V72H331.5C329.015 72 327 74.9101 327 78.5C327 82.0899 329.015 85 331.5 85H334V83.9054Z" fill="#125EEB"/>
<ellipse cx="334" cy="78.5" rx="5" ry="6.5" fill="#276EF1"/>
<ellipse cx="334" cy="78.5" rx="4" ry="5.5" fill="#043081"/>
<mask id="mask0" mask-type="alpha" maskUnits="userSpaceOnUse" x="330" y="73" width="8" height="11">
<ellipse cx="334" cy="78.5" rx="4" ry="5.5" fill="#0A40A5"/>
</mask>
<g mask="url(#mask0)">
<ellipse cx="333" cy="78.5" rx="4" ry="5.5" fill="#0A40A5"/>
</g>
<rect x="315" y="57" width="7" height="10" fill="#0A40A5"/>
<rect x="315" y="55" width="12" height="8" fill="#5D92F5"/>
<rect x="317" y="55" width="12" height="8" fill="#93B7F8"/>
<rect x="318" y="56" width="10" height="6" fill="#E9F1FE"/>
</svg>
